<?xml version="1.0" standalone="no"?>
<!DOCTYPE svg PUBLIC "-//W3C//DTD SVG 1.1//EN" "http://www.w3.org/Graphics/SVG/1.1/DTD/svg11.dtd" >
<svg xmlns="http://www.w3.org/2000/svg" xmlns:xlink="http://www.w3.org/1999/xlink" version="1.1">
<metadata>
Created by FontForge 20170910 at Tue Jun 12 17:44:56 2018
 By Jimmy Wärting
All rights reserved Copyright C A2-TYPE. Henrik Kubel, 2017.
</metadata>
<defs>
<font id="English1766-Thin" horiz-adv-x="705" >
  <font-face 
    font-family="English 1766"
    font-weight="100"
    font-stretch="normal"
    units-per-em="1000"
    panose-1="0 0 0 0 0 0 0 0 0 0"
    ascent="750"
    descent="-250"
    x-height="458"
    cap-height="700"
    bbox="-228 -313 1470 991"
    underline-thickness="50"
    underline-position="-125"
    unicode-range="U+0020-FB06"
  />
<missing-glyph horiz-adv-x="500" 
d="M500 700v-700h-500v700h500zM432 661h-364l182 -276zM226 350l-182 277v-554zM274 350l182 -277v554zM250 314l-182 -276h364z" />
    <glyph glyph-name="fb" unicode="fb" horiz-adv-x="855" 
d="M567 -15c-75 0 -123 24 -159 46l-25 -31h-10v694c-20 15 -52 38 -92 38c-63 0 -122 -50 -122 -166v-108h144l-21 -36h-123v-385l86 -27v-10h-211v10l65 22v390h-61v36h61v63c0 83 43 169 115 213c27 17 69 32 115 32c26 0 56 -3 86 -16l7 2h11v-357c33 34 97 78 165 78
c115 0 213 -90 213 -233c0 -144 -111 -255 -244 -255zM573 2c102 0 175 87 175 219c0 152 -93 210 -183 210c-53 0 -105 -24 -132 -59v-276c23 -59 84 -94 140 -94z" />
    <glyph glyph-name="ff" unicode="ff" horiz-adv-x="590" 
d="M308 10l65 22v390h-214v-385l86 -27v-10h-211v10l65 22v390h-61v36h61v50c0 83 43 169 115 213c27 17 67 32 113 32c68 0 116 -30 126 -46c10 10 22 19 35 27c27 17 69 32 115 32c29 0 63 -4 95 -21c13 -7 20 -14 20 -22c0 -20 -28 -42 -49 -42c-13 0 -54 51 -114 51
c-63 0 -122 -50 -122 -166v-108h144l-21 -36h-123v-385l86 -27v-10h-211v10zM159 458h214v63c0 48 14 96 40 137c-22 23 -73 61 -132 61c-63 0 -122 -50 -122 -166v-95z" />
    <glyph glyph-name="fh" unicode="fh" horiz-adv-x="830" 
d="M245 0h-211v10l65 22v390h-61v36h61v63c0 83 43 169 115 213c27 17 69 32 115 32c26 0 56 -3 86 -16l7 2h11v-350c44 33 127 71 184 71c82 0 119 -43 119 -112v-328l73 -23v-10h-196v10l63 22v329c0 51 -85 112 -243 32v-360l73 -23v-10h-196v10l63 22v662
c-20 15 -52 38 -92 38c-63 0 -122 -50 -122 -166v-108h144l-21 -36h-123v-385l86 -27v-10z" />
    <glyph glyph-name="fi" unicode="fi" horiz-adv-x="526" 
d="M245 0h-211v10l65 22v390h-61v36h61v63c0 120 72 245 230 245c29 0 63 -4 95 -21c13 -7 20 -14 20 -22c0 -20 -28 -42 -49 -42c-13 0 -54 51 -114 51c-63 0 -122 -50 -122 -166v-108h189c46 0 64 3 75 14h11l-1 -70v-370l63 -22v-10h-186v10l63 22v390h-214v-389l86 -23
v-10z" />
    <glyph glyph-name="fj" unicode="fj" horiz-adv-x="514" 
d="M433 402v-379c0 -68 -17 -161 -76 -220c-37 -36 -97 -79 -176 -60c-54 12 25 80 46 59c58 -63 146 -7 146 174v446h-214v-389l86 -23v-10h-211v10l65 22v390h-61v36h61v63c0 120 72 245 230 245c29 0 63 -4 95 -21c13 -7 20 -14 20 -22c0 -20 -28 -42 -49 -42
c-13 0 -54 51 -114 51c-63 0 -122 -50 -122 -166v-108h189c46 0 64 3 75 14h11z" />
    <glyph glyph-name="fk" unicode="fk" horiz-adv-x="782" 
d="M373 32v662c-20 15 -52 38 -92 38c-63 0 -122 -50 -122 -166v-108h144l-21 -36h-123v-385l86 -27v-10h-211v10l65 22v390h-61v36h61v63c0 83 43 169 115 213c27 17 69 32 115 32c26 0 56 -3 86 -16l7 2h11v-479h23l169 152l-91 23v10h217v-10l-74 -22l-180 -148l238 -247
l63 -20v-11h-203v11l63 14l-212 226h-13v-218l83 -23v-10h-206v10z" />
    <glyph glyph-name="fl" unicode="fl" horiz-adv-x="526" 
d="M373 32v662c-20 15 -52 38 -92 38c-63 0 -122 -50 -122 -166v-108h144l-21 -36h-123v-385l86 -27v-10h-211v10l65 22v390h-61v36h61v63c0 83 43 169 115 213c27 17 69 32 115 32c26 0 56 -3 86 -16l7 2h11v-720l63 -22v-10h-186v10z" />
    <glyph glyph-name="ffb" unicode="ffb" horiz-adv-x="1129" 
d="M373 32v390h-214v-385l86 -27v-10h-211v10l65 22v390h-61v36h61v33c0 83 43 169 115 213c27 17 69 32 118 32c45 0 104 -13 111 -38c14 14 29 26 45 36c27 17 69 32 115 32c26 0 56 -3 86 -16l7 2h11v-357c33 34 97 78 165 78c115 0 213 -90 213 -233
c0 -144 -111 -255 -244 -255c-75 0 -123 24 -159 46l-25 -31h-10v694c-20 15 -52 38 -92 38c-63 0 -122 -50 -122 -166v-108h144l-21 -36h-123v-385l86 -27v-10h-211v10zM159 536v-78h214v63c0 46 13 93 37 133c-5 -2 -10 -3 -15 -3c-13 0 -54 51 -114 51
c-63 0 -122 -50 -122 -166zM847 2c102 0 175 87 175 219c0 152 -93 210 -183 210c-53 0 -105 -24 -132 -59v-276c23 -59 84 -94 140 -94z" />
    <glyph glyph-name="fff" unicode="fff" horiz-adv-x="989" 
d="M378 32v390h-214v-385l86 -27v-10h-211v10l65 22v390h-61v36h61v33c0 83 43 169 115 213c27 17 69 32 118 32c48 0 112 -15 112 -43c0 -3 -1 -6 -2 -10c14 15 29 28 46 38c27 17 67 32 113 32c68 0 116 -30 126 -46c10 10 22 19 35 27c27 17 69 32 115 32
c29 0 63 -4 95 -21c13 -7 20 -14 20 -22c0 -20 -28 -42 -49 -42c-13 0 -54 51 -114 51c-63 0 -122 -50 -122 -166v-108h144l-21 -36h-123v-385l86 -27v-10h-211v10l65 22v390h-214v-385l86 -27v-10h-211v10zM438 458h214v63c0 48 14 96 40 137c-22 23 -73 61 -132 61
c-63 0 -122 -50 -122 -166v-95zM164 536v-78h214v50c0 54 18 110 51 154c-9 -7 -20 -11 -29 -11c-13 0 -54 51 -114 51c-63 0 -122 -50 -122 -166z" />
    <glyph glyph-name="ffh" unicode="ffh" horiz-adv-x="1104" 
d="M373 32v390h-214v-385l86 -27v-10h-211v10l65 22v390h-61v36h61v33c0 83 43 169 115 213c27 17 69 32 118 32c45 0 104 -13 111 -38c14 14 29 26 45 36c27 17 69 32 115 32c26 0 56 -3 86 -16l7 2h11v-350c44 33 127 71 184 71c82 0 119 -43 119 -112v-328l73 -23v-10
h-196v10l63 22v329c0 51 -85 112 -243 32v-360l73 -23v-10h-196v10l63 22v662c-20 15 -52 38 -92 38c-63 0 -122 -50 -122 -166v-108h144l-21 -36h-123v-385l86 -27v-10h-211v10zM159 536v-78h214v63c0 46 13 93 37 133c-5 -2 -10 -3 -15 -3c-13 0 -54 51 -114 51
c-63 0 -122 -50 -122 -166z" />
    <glyph glyph-name="ffi" unicode="ffi" horiz-adv-x="800" 
d="M373 32v390h-214v-385l86 -27v-10h-211v10l65 22v390h-61v36h61v33c0 83 43 169 115 213c27 17 67 32 113 32c53 0 94 -18 114 -34c37 39 91 64 162 64c29 0 63 -4 95 -21c13 -7 20 -14 20 -22c0 -20 -28 -42 -49 -42c-13 0 -54 51 -114 51c-63 0 -122 -50 -122 -166
v-108h189c46 0 64 3 75 14h11l-1 -70v-370l63 -22v-10h-186v10l63 22v390h-214v-389l86 -23v-10h-211v10zM159 536v-78h214v63c0 45 10 90 30 129c-25 23 -70 52 -122 52c-63 0 -122 -50 -122 -166z" />
    <glyph glyph-name="ffj" unicode="ffj" horiz-adv-x="788" 
d="M373 32v390h-214v-385l86 -27v-10h-211v10l65 22v390h-61v36h61v33c0 83 43 169 115 213c27 17 69 32 118 32c42 0 97 -12 109 -33c38 38 91 63 162 63c29 0 63 -4 95 -21c13 -7 20 -14 20 -22c0 -20 -28 -42 -49 -42c-13 0 -54 51 -114 51c-63 0 -122 -50 -122 -166
v-108h189c46 0 64 3 75 14h11l-1 -70v-379c0 -68 -17 -161 -76 -220c-37 -36 -97 -79 -176 -60c-54 12 25 80 46 59c58 -63 146 -7 146 174v446h-214v-389l86 -23v-10h-211v10zM159 536v-78h214v63c0 45 10 92 32 131c-4 -1 -7 -1 -10 -1c-13 0 -54 51 -114 51
c-63 0 -122 -50 -122 -166z" />
    <glyph glyph-name="ffk" unicode="ffk" horiz-adv-x="1056" 
d="M373 32v390h-214v-385l86 -27v-10h-211v10l65 22v390h-61v36h61v33c0 83 43 169 115 213c27 17 67 32 113 32c56 0 99 -21 118 -37c12 13 27 25 43 35c27 17 69 32 115 32c26 0 56 -3 86 -16l7 2h11v-479h23l169 152l-91 23v10h217v-10l-74 -22l-180 -148l238 -247
l63 -20v-11h-203v11l63 14l-212 226h-13v-218l83 -23v-10h-206v10l63 22v662c-20 15 -52 38 -92 38c-63 0 -122 -50 -122 -166v-108h144l-21 -36h-123v-385l86 -27v-10h-211v10zM159 536v-78h214v63c0 43 12 88 33 126c-24 24 -71 55 -125 55c-63 0 -122 -50 -122 -166z" />
    <glyph glyph-name="ffl" unicode="ffl" horiz-adv-x="800" 
d="M373 32v390h-214v-385l86 -27v-10h-211v10l65 22v390h-61v36h61v33c0 83 43 169 115 213c27 17 67 32 113 32c56 0 99 -21 118 -37c12 13 27 25 43 35c27 17 69 32 115 32c26 0 56 -3 86 -16l7 2h11v-720l63 -22v-10h-186v10l63 22v662c-20 15 -52 38 -92 38
c-63 0 -122 -50 -122 -166v-108h144l-21 -36h-123v-385l86 -27v-10h-211v10zM159 536v-78h214v63c0 43 12 88 33 126c-24 24 -71 55 -125 55c-63 0 -122 -50 -122 -166z" />
    <glyph glyph-name=".notdef" horiz-adv-x="500" 
d="M500 700v-700h-500v700h500zM432 661h-364l182 -276zM226 350l-182 277v-554zM274 350l182 -277v554zM250 314l-182 -276h364z" />
    <glyph glyph-name="space" unicode=" " horiz-adv-x="258" 
 />
    <glyph glyph-name="A" unicode="A" 
d="M207 10v-10h-215v10l78 29l243 624l-15 38c26 6 48 14 64 26l273 -687l78 -30v-10h-245v10l91 29l-99 250h-261l-91 -250zM209 314h242l-126 319z" />
    <glyph glyph-name="B" unicode="B" horiz-adv-x="671" 
d="M43 690v10h321c151 0 217 -74 217 -160c0 -101 -110 -164 -188 -168c125 -2 230 -73 230 -180c0 -117 -104 -192 -246 -192h-334v10l89 29v622zM348 675h-147v-294h135c103 0 174 56 174 157c0 80 -60 137 -162 137zM363 356h-162v-331h157c120 0 192 62 192 164
c0 122 -95 167 -187 167z" />
    <glyph glyph-name="C" unicode="C" horiz-adv-x="785" 
d="M704 10l-36 47c-55 -32 -142 -72 -242 -72c-218 0 -376 157 -376 365s158 365 366 365c108 0 197 -40 252 -72l36 47h16v-203h-15c-73 134 -154 199 -289 199c-137 0 -287 -113 -287 -336s150 -336 297 -336c128 0 203 65 279 209h15v-213h-16z" />
    <glyph glyph-name="D" unicode="D" horiz-adv-x="806" 
d="M43 690v10h306c276 0 405 -159 405 -350s-129 -350 -405 -350h-306v10l89 29v622zM332 675h-131v-650h131c195 0 351 96 351 325s-156 325 -351 325z" />
    <glyph glyph-name="E" unicode="E" horiz-adv-x="670" 
d="M43 690v10h527l20 -129l-12 -6l-85 110h-292v-309h214l40 89h11v-212h-11l-39 98h-215v-316h321l111 125l11 -6l-39 -144h-562v10l89 29v622z" />
    <glyph glyph-name="F" unicode="F" horiz-adv-x="585" 
d="M43 690v10h504l20 -129l-12 -6l-85 110h-269v-309h211l40 89h11v-200h-11l-39 86h-212v-301l99 -30v-10h-257v10l89 29v622z" />
    <glyph glyph-name="G" unicode="G" horiz-adv-x="842" 
d="M779 119c-38 -44 -135 -137 -332 -137c-254 0 -397 166 -397 366c0 208 158 367 383 367c114 0 196 -40 247 -72l36 47h16v-203h-15c-76 134 -157 199 -286 199c-136 0 -302 -92 -302 -332c0 -204 146 -336 342 -336c61 0 123 13 178 36v234l-132 30v11h286v-11l-87 -38
v-192c23 14 44 30 63 47v-16z" />
    <glyph glyph-name="H" unicode="H" horiz-adv-x="833" 
d="M300 10v-10h-257v10l89 29v622l-89 29v10h257v-10l-99 -30v-284h431v284l-99 30v10h257v-10l-89 -29v-622l89 -29v-10h-257v10l99 30v309h-431v-309z" />
    <glyph glyph-name="I" unicode="I" horiz-adv-x="333" 
d="M290 10v-10h-247v10l89 29v622l-89 29v10h247v-10l-89 -29v-622z" />
    <glyph glyph-name="J" unicode="J" horiz-adv-x="451" 
d="M337 63c0 -118 -85 -174 -177 -174c-108 0 -155 71 -155 122c0 43 30 67 58 67c24 0 45 -19 45 -48c0 -27 -20 -40 -44 -45c-10 -2 -13 -15 -4 -29c17 -26 50 -40 87 -40c65 0 121 42 121 142v603l-89 29v10h218v-10l-60 -26v-601z" />
    <glyph glyph-name="K" unicode="K" horiz-adv-x="728" 
d="M300 10v-10h-257v10l89 29v622l-89 29v10h257v-10l-99 -30v-277h23l322 275l-97 32v10h246v-10l-102 -37l-322 -256l382 -357l92 -30v-10h-276v10l93 27l-340 321h-21v-318z" />
    <glyph glyph-name="L" unicode="L" horiz-adv-x="637" 
d="M43 690v10h257v-10l-99 -30v-635h298l121 135l11 -6l-39 -154h-549v10l89 29v622z" />
    <glyph glyph-name="M" unicode="M" horiz-adv-x="968" 
d="M275 0h-240v10l97 37l2 611l-81 32v10h172l264 -604l263 604h172v-10l-89 -32v-618l99 -30v-10h-267v10l99 30v619l-292 -659h-17l-293 659l3 -612l108 -37v-10z" />
    <glyph glyph-name="N" unicode="N" horiz-adv-x="830" 
d="M264 0h-220v10l87 28l4 615l-89 37v10h158l470 -592l-3 554l-97 28v10h210v-10l-78 -29l-3 -671h-22l-516 649l2 -600l97 -29v-10z" />
    <glyph glyph-name="O" unicode="O" horiz-adv-x="818" 
d="M408 -15c-206 0 -358 165 -358 366s152 364 358 364c205 0 360 -163 360 -364s-155 -366 -360 -366zM408 15c155 0 280 132 280 336s-125 335 -280 335c-154 0 -278 -131 -278 -335s124 -336 278 -336z" />
    <glyph glyph-name="P" unicode="P" horiz-adv-x="593" 
d="M43 690v10h288c140 0 237 -78 237 -194s-97 -194 -237 -194h-130v-272l109 -30v-10h-267v10l89 29v622zM327 675h-126v-338h126c111 0 169 72 169 169s-58 169 -169 169z" />
    <glyph glyph-name="Q" unicode="Q" horiz-adv-x="817" 
d="M1026 -171c-46 -30 -106 -36 -151 -36c-82 0 -176 44 -207 61l-239 132c-7 -1 -14 -1 -21 -1c-198 0 -358 165 -358 366s160 364 358 364c197 0 360 -163 360 -364c0 -161 -105 -299 -248 -348l261 -131c70 -35 125 -52 159 -52s53 12 68 29c22 24 24 54 45 54
c7 0 19 -5 19 -18c0 -17 -25 -43 -46 -56zM408 15c155 0 280 132 280 336s-125 335 -280 335c-154 0 -278 -131 -278 -335s124 -336 278 -336z" />
    <glyph glyph-name="R" unicode="R" horiz-adv-x="692" 
d="M43 690v10h322c133 0 230 -73 230 -175c0 -123 -117 -186 -228 -190c29 -7 69 -34 110 -89l108 -144c20 -27 37 -46 57 -61s45 -25 82 -31v-10h-128c-14 -1 -26 10 -43 33l-162 216c-49 66 -78 77 -130 77h-60v-285l119 -31v-10h-277v10l89 29v622zM344 675h-143v-324
h115c132 0 207 55 207 168c0 91 -56 156 -179 156z" />
    <glyph glyph-name="S" unicode="S" horiz-adv-x="602" 
d="M312 -15c-93 0 -173 39 -203 67l-30 -52h-16v218h22c29 -124 106 -209 229 -209c101 0 172 64 172 158c0 76 -50 118 -112 138l-147 47c-87 28 -152 81 -152 174c0 102 85 189 225 189c72 0 136 -28 172 -56l26 47h16v-188h-22c-24 107 -87 174 -191 174
c-105 0 -161 -68 -161 -140c0 -68 39 -112 113 -136l148 -48c77 -25 151 -75 151 -177c0 -110 -88 -206 -240 -206z" />
    <glyph glyph-name="T" unicode="T" horiz-adv-x="693" 
d="M500 10v-10h-297v10l109 30v634h-186l-94 -157l-12 4l13 179h627l13 -179l-12 -4l-94 157h-186v-633z" />
    <glyph glyph-name="U" unicode="U" horiz-adv-x="784" 
d="M665 230c0 -165 -128 -245 -274 -245c-157 0 -275 80 -275 234v442l-89 29v10h247v-10l-89 -29v-442c0 -130 98 -198 227 -198c117 0 220 66 220 216v418l-92 35v10h217v-10l-92 -35v-425z" />
    <glyph glyph-name="V" unicode="V" horiz-adv-x="723" 
d="M370 -10h-14l-291 670l-72 30v10h265v-10l-120 -27l247 -578l232 575l-119 30v10h235v-10l-72 -29z" />
    <glyph glyph-name="W" unicode="W" horiz-adv-x="1052" 
d="M726 -10l-199 531l-198 -531h-14l-251 670l-72 30v10h265v-10l-120 -27l207 -578l172 467l-41 108l-72 30v10h265v-10l-120 -27l207 -578l192 575l-119 30v10h235v-10l-72 -29l-251 -671h-14z" />
    <glyph glyph-name="X" unicode="X" horiz-adv-x="736" 
d="M255 10v-10h-261v10l110 32l235 321l-222 297l-102 30v10h295v-10l-110 -32l183 -245l165 245l-93 32v10h239v-10l-106 -32l-192 -262l266 -356l92 -30v-10h-275v10l100 32l-227 304l-206 -304z" />
    <glyph glyph-name="Y" unicode="Y" horiz-adv-x="718" 
d="M512 10v-10h-297v10l109 30v291l-243 329l-72 30v10h255v-10l-100 -27l220 -299l208 296l-109 30v10h225v-10l-72 -29l-243 -327v-293z" />
    <glyph glyph-name="Z" unicode="Z" horiz-adv-x="682" 
d="M617 700v-5l-490 -670h395l126 168l10 -14l-45 -179h-586v5l494 670h-352l-100 -149l-12 3l16 171h544z" />
    <glyph glyph-name="AE" unicode="&#xc6;" horiz-adv-x="1015" 
d="M989 144l-39 -144h-562v10l89 29v302h-204l-183 -302l115 -29v-10h-225v10l72 29l396 632l-60 19v10h527l20 -129l-12 -6l-85 110h-292v-309h214l40 89h11v-212h-11l-39 98h-215v-316h321l111 125zM288 366h189v295l-9 3z" />
    <glyph glyph-name="OE" unicode="&#x152;" horiz-adv-x="1143" 
d="M457 0c-276 0 -405 159 -405 350s129 350 405 350h586l20 -129l-12 -6l-85 110h-292v-309h214l40 89h11v-212h-11l-39 98h-215v-316h321l111 125l11 -6l-39 -144h-621zM474 25h131v650h-131c-195 0 -351 -96 -351 -325s156 -325 351 -325z" />
    <glyph glyph-name="Lslash" unicode="&#x141;" horiz-adv-x="637" 
d="M43 690v10h257v-10l-99 -30v-335l188 91v-25l-188 -91v-275h298l121 135l11 -6l-39 -154h-549v10l89 29v228l-75 -36v25l75 36v369z" />
    <glyph glyph-name="Oslash" unicode="&#xd8;" horiz-adv-x="830" 
d="M414 -15c-88 0 -168 33 -231 86l-78 -86h-41l97 107c-65 67 -105 158 -105 259c0 201 160 364 358 364c88 0 170 -33 233 -87l79 87h41l-98 -108c65 -66 105 -156 105 -256c0 -201 -163 -366 -360 -366zM136 351c0 -88 23 -162 62 -219l417 460c-51 60 -122 94 -201 94
c-154 0 -278 -131 -278 -335zM694 351c0 87 -23 161 -61 217l-417 -460c51 -60 120 -93 198 -93c155 0 280 132 280 336z" />
    <glyph glyph-name="Eth" unicode="&#xd0;" horiz-adv-x="807" 
d="M44 690v10h306c276 0 405 -159 405 -350s-129 -350 -405 -350h-306v10l89 29v299h-88v25h88v298zM436 338h-234v-313h131c195 0 351 96 351 325s-156 325 -351 325h-131v-312h234v-25z" />
    <glyph glyph-name="Thorn" unicode="&#xde;" horiz-adv-x="610" 
d="M310 10v-10h-267v10l89 29v622l-89 29v10h267v-10l-109 -30v-100h130c140 0 237 -78 237 -194s-97 -194 -237 -194h-130v-132zM327 535h-126v-338h126c111 0 169 72 169 169s-58 169 -169 169z" />
    <glyph glyph-name="a" unicode="a" horiz-adv-x="459" 
d="M300 72v2c-28 -55 -84 -89 -139 -89c-79 0 -113 57 -113 107c0 103 122 155 252 165v112c0 44 -43 64 -94 64c-34 0 -72 -10 -98 -24c7 -20 13 -37 13 -51c0 -32 -22 -45 -40 -45c-19 0 -37 15 -37 39c0 45 114 121 190 121c103 0 126 -49 126 -97v-297
c0 -22 10 -47 39 -47c13 0 31 8 40 22l11 -3c-9 -35 -39 -62 -75 -62c-46 0 -75 30 -75 83zM107 109c0 -44 26 -82 81 -82c43 0 90 25 112 71v145c-65 -8 -193 -37 -193 -134z" />
    <glyph glyph-name="b" unicode="b" horiz-adv-x="563" 
d="M519 240c0 -144 -111 -255 -244 -255c-75 0 -123 24 -159 46l-25 -31h-10v687l-82 13v10l131 42h11v-357c33 34 97 78 165 78c115 0 213 -90 213 -233zM141 96c23 -59 84 -94 140 -94c102 0 175 87 175 219c0 152 -93 210 -183 210c-53 0 -105 -24 -132 -59v-276z" />
    <glyph glyph-name="c" unicode="c" horiz-adv-x="488" 
d="M98 253c0 -147 92 -224 199 -224c78 0 135 47 156 84l9 -4c-31 -77 -118 -124 -202 -124c-135 0 -217 107 -217 230c0 156 106 258 237 258c109 0 160 -53 160 -76s-16 -36 -38 -36c-42 0 -53 91 -141 91c-86 0 -163 -72 -163 -199z" />
    <glyph glyph-name="d" unicode="d" horiz-adv-x="572" 
d="M419 59v2c-32 -34 -90 -76 -163 -76c-115 0 -213 90 -213 233c0 144 114 255 247 255c56 0 96 -13 127 -31v245l-82 13v10l131 42h11v-707l72 -9v-13c-43 -5 -88 -17 -124 -32h-7zM106 239c0 -152 96 -212 186 -212c50 0 100 21 125 51v295c-25 61 -76 83 -129 83
c-112 0 -182 -85 -182 -217z" />
    <glyph glyph-name="e" unicode="e" horiz-adv-x="502" 
d="M269 473c81 0 183 -45 183 -175h-350c-1 -11 -2 -22 -2 -34c0 -152 75 -234 196 -234c73 0 135 42 158 98l13 -4c-33 -100 -130 -139 -207 -139c-114 0 -216 87 -216 234c0 145 101 254 225 254zM267 451c-85 0 -144 -53 -162 -134h260c13 0 17 8 17 23
c-3 82 -63 111 -115 111z" />
    <glyph glyph-name="f" unicode="f" horiz-adv-x="316" 
d="M245 10v-10h-211v10l65 22v390h-61v36h61v63c0 83 43 169 115 213c27 17 69 32 115 32c29 0 63 -4 95 -21c13 -7 20 -14 20 -22c0 -20 -28 -42 -49 -42c-13 0 -54 51 -114 51c-63 0 -122 -50 -122 -166v-108h144l-21 -36h-123v-385z" />
    <glyph glyph-name="g" unicode="g" horiz-adv-x="527" 
d="M495 -86c0 -96 -102 -177 -264 -179c-159 0 -220 65 -220 133c0 66 69 111 143 121c-69 5 -99 51 -99 91c0 36 25 80 76 97c-41 31 -66 77 -66 129c0 92 80 167 184 167c62 0 115 -26 148 -67c32 10 42 19 57 34c12 13 24 23 40 23c14 0 33 -10 33 -33
c0 -14 -11 -34 -35 -34c-22 0 -41 12 -86 -2c17 -26 27 -56 27 -88c0 -92 -80 -167 -184 -167c-40 0 -77 11 -106 30c-30 -13 -46 -41 -46 -65c0 -36 29 -63 81 -63h153c98 0 163 -47 164 -127zM249 454c-60 0 -116 -40 -116 -148s56 -148 116 -148s116 40 116 148
s-56 148 -116 148zM66 -127c0 -57 53 -116 170 -116c126 0 200 57 200 133c0 58 -45 95 -131 95h-97c-88 -4 -142 -50 -142 -112z" />
    <glyph glyph-name="h" unicode="h" horiz-adv-x="548" 
d="M224 10v-10h-196v10l63 22v655l-82 13v10l131 42h11v-350c44 33 127 71 184 71c82 0 119 -43 119 -112v-328l73 -23v-10h-196v10l63 22v329c0 51 -85 112 -243 32v-360z" />
    <glyph glyph-name="i" unicode="i" horiz-adv-x="252" 
d="M177 652c0 -27 -21 -48 -48 -48c-26 0 -47 21 -47 48s21 48 47 48c27 0 48 -21 48 -48zM222 10v-10h-186v10l63 22v374l-65 18v13c48 1 93 14 115 30h11l-1 -65v-370z" />
    <glyph glyph-name="i.TRK" horiz-adv-x="252" 
d="M177 652c0 -27 -21 -48 -48 -48c-26 0 -47 21 -47 48s21 48 47 48c27 0 48 -21 48 -48zM222 10v-10h-186v10l63 22v374l-65 18v13c48 1 93 14 115 30h11l-1 -65v-370z" />
    <glyph glyph-name="j" unicode="j" horiz-adv-x="231" 
d="M168 652c0 -27 -21 -48 -48 -48c-26 0 -47 21 -47 48s21 48 47 48c27 0 48 -21 48 -48zM151 467l-1 -65v-379c0 -68 -17 -161 -76 -220c-37 -36 -97 -79 -176 -60c-54 12 25 80 46 59c58 -63 146 -7 146 174v430l-65 18v13c48 1 93 14 115 30h11z" />
    <glyph glyph-name="k" unicode="k" horiz-adv-x="496" 
d="M224 10v-10h-196v10l63 22v655l-82 13v10l131 42h11v-490h30l158 163l-77 23v10h199v-10l-66 -22l-168 -154l215 -241l71 -20v-11h-203v11l62 14l-188 215h-33v-207z" />
    <glyph glyph-name="l" unicode="l" horiz-adv-x="246" 
d="M216 10v-10h-186v10l63 22v655l-82 13v10l131 42h11v-720z" />
    <glyph glyph-name="m" unicode="m" horiz-adv-x="838" 
d="M230 10v-10h-196v10l63 22v374l-65 18v13c48 1 93 14 115 30h11l-2 -65c43 38 117 71 165 71c65 0 109 -27 124 -72c47 39 120 72 171 72c80 0 129 -43 129 -112v-328l73 -23v-10h-196v10l63 22v329c0 51 -83 107 -237 27c2 -8 3 -17 3 -27v-328l73 -23v-10h-196v10
l63 22v329c0 51 -78 109 -234 29v-357z" />
    <glyph glyph-name="n" unicode="n" horiz-adv-x="552" 
d="M230 10v-10h-196v10l63 22v374l-65 18v13c48 1 93 14 115 30h11l-1 -65c53 38 122 71 179 71c82 0 122 -43 122 -112v-328l73 -23v-10h-196v10l63 22v329c0 51 -83 109 -241 29v-357z" />
    <glyph glyph-name="o" unicode="o" horiz-adv-x="553" 
d="M276 -15c-142 0 -233 117 -233 244s91 244 233 244c143 0 234 -117 234 -244s-91 -244 -234 -244zM276 7c102 0 166 95 166 222s-64 222 -166 222c-101 0 -165 -95 -165 -222s64 -222 165 -222z" />
    <glyph glyph-name="p" unicode="p" horiz-adv-x="571" 
d="M243 -240v-10h-216v10l63 22v624l-65 18v13c48 1 93 14 115 30h11l-1 -65v-7c33 34 97 78 165 78c115 0 213 -90 213 -233c0 -144 -114 -255 -247 -255c-58 0 -99 14 -131 34v-235zM150 96c23 -69 84 -94 130 -94c112 0 185 85 185 217c0 152 -93 212 -183 212
c-53 0 -105 -24 -132 -59v-276z" />
    <glyph glyph-name="q" unicode="q" horiz-adv-x="562" 
d="M544 -240v-10h-216v10l93 24v279c-32 -34 -90 -78 -165 -78c-115 0 -213 90 -213 233c0 144 114 255 247 255c60 0 102 -16 134 -36l47 42h10v-697zM106 239c0 -152 96 -212 186 -212c53 0 106 24 129 56v279c-23 69 -77 94 -133 94c-112 0 -182 -85 -182 -217z" />
    <glyph glyph-name="r" unicode="r" horiz-adv-x="360" 
d="M244 10v-10h-211v10l65 22v374l-65 18v13c48 1 93 14 115 30h11l-2 -96c40 51 91 95 137 95c36 0 55 -19 55 -38c0 -20 -15 -39 -32 -39c-20 0 -34 31 -60 31c-28 0 -62 -28 -99 -66v-321z" />
    <glyph glyph-name="s" unicode="s" horiz-adv-x="408" 
d="M49 15l-7 120l14 2c26 -87 78 -131 144 -131c65 0 113 39 113 101c0 44 -29 70 -76 89l-78 32c-62 25 -99 59 -99 118c0 69 60 127 151 127c63 0 88 -20 132 -16v-104l-13 -2c-30 66 -61 102 -121 102c-52 0 -95 -35 -95 -86c0 -39 22 -65 73 -86l76 -31
c53 -22 105 -54 105 -123c0 -75 -69 -142 -170 -142c-71 0 -126 29 -149 30z" />
    <glyph glyph-name="t" unicode="t" horiz-adv-x="327" 
d="M309 76l10 -2c-10 -36 -50 -85 -123 -85c-76 0 -104 46 -104 76v357h-50v2l102 144h8v-110h154l-21 -36h-133v-324c0 -35 15 -67 78 -67c35 0 68 19 79 45z" />
    <glyph glyph-name="u" unicode="u" horiz-adv-x="538" 
d="M383 406l-66 18v13c48 1 95 14 117 30h11c-3 -73 -2 -137 -2 -195v-227l72 -9v-13c-43 -5 -88 -17 -124 -32h-7v99c-47 -77 -114 -105 -165 -105c-81 0 -130 49 -130 128v293l-65 18v13c48 1 93 14 115 30h10v-347c0 -57 41 -93 96 -93c47 0 88 20 138 71v308z" />
    <glyph glyph-name="v" unicode="v" horiz-adv-x="504" 
d="M264 -5h-23l-181 431l-54 22v10h209v-10l-92 -21l146 -359l141 361l-77 19v10h165v-10l-53 -22z" />
    <glyph glyph-name="w" unicode="w" horiz-adv-x="770" 
d="M519 -5l-137 346l-130 -346h-23l-171 431l-54 22v10h209v-10l-92 -21l139 -357l111 299l-23 57l-54 22v10h209v-10l-92 -21l139 -357l130 359l-79 19v10h165v-10l-53 -22l-171 -431h-23z" />
    <glyph glyph-name="x" unicode="x" horiz-adv-x="490" 
d="M178 10v-10h-174v10l71 22l145 195l-137 196l-63 25v10h195v-10l-63 -19l109 -156l108 157l-66 18v10h150v-10l-53 -22l-128 -168l156 -223l64 -25v-10h-207v10l73 19l-127 182l-124 -183z" />
    <glyph glyph-name="y" unicode="y" horiz-adv-x="504" 
d="M7 448v10h212v-10l-84 -23l142 -326l134 328l-65 21v10h154v-10l-53 -20l-221 -502c-70 -159 -110 -191 -153 -191c-27 0 -51 17 -51 43c0 21 13 41 36 41c12 0 31 -20 47 -20c27 0 53 34 116 174l25 55l-176 397z" />
    <glyph glyph-name="z" unicode="z" horiz-adv-x="457" 
d="M441 114l-44 -114h-366v5l296 430h-213l-52 -98l-13 2l7 119h350v-5l-296 -430h227l93 100z" />
    <glyph glyph-name="ae" unicode="&#xe6;" horiz-adv-x="773" 
d="M540 473c81 0 183 -45 183 -175h-350c-1 -11 -2 -22 -2 -34c0 -152 75 -234 196 -234c73 0 135 42 158 98l13 -4c-33 -100 -130 -139 -207 -139c-79 0 -153 42 -190 117c-20 -58 -77 -117 -167 -117c-97 0 -130 64 -130 109c0 103 118 155 271 162v113
c0 44 -33 70 -84 70c-44 0 -92 -16 -118 -30c7 -20 13 -37 13 -51c0 -32 -22 -45 -40 -45c-19 0 -37 15 -37 39c0 45 104 121 210 121c91 0 112 -38 115 -80c42 50 101 80 166 80zM538 452c-85 0 -144 -53 -162 -135h260c13 0 17 8 17 23c-3 83 -63 112 -115 112zM103 109
c0 -37 27 -82 97 -82c63 0 116 47 134 89c-12 30 -19 64 -19 103v23c-82 -7 -212 -34 -212 -133z" />
    <glyph glyph-name="oe" unicode="&#x153;" horiz-adv-x="913" 
d="M680 473c81 0 183 -45 183 -175h-350c-1 -11 -2 -22 -2 -34c0 -152 75 -234 196 -234c73 0 135 42 158 98l13 -4c-33 -100 -130 -139 -207 -139c-80 0 -155 43 -192 121c-38 -71 -109 -121 -203 -121c-142 0 -233 117 -233 244s91 244 233 244c97 0 170 -54 207 -129
c39 78 113 129 197 129zM276 7c102 0 166 95 166 222s-64 222 -166 222c-101 0 -165 -95 -165 -222s64 -222 165 -222zM678 451c-85 0 -144 -53 -162 -134h260c13 0 17 8 17 23c-3 82 -63 111 -115 111z" />
    <glyph glyph-name="lslash" unicode="&#x142;" horiz-adv-x="264" 
d="M225 10v-10h-186v10l63 22v213l-66 -34v23l66 34v419l-82 13v10l131 42h11v-452l66 34v-23l-66 -34v-245z" />
    <glyph glyph-name="oslash" unicode="&#xf8;" horiz-adv-x="553" 
d="M276 -15c-51 0 -96 15 -132 41l-50 -69h-36l64 87c-50 46 -79 114 -79 185c0 127 91 244 233 244c51 0 95 -15 131 -40l51 70h36l-64 -88c51 -46 80 -114 80 -186c0 -127 -91 -244 -234 -244zM111 229c0 -58 13 -110 38 -148l236 322c-28 30 -65 48 -109 48
c-101 0 -165 -95 -165 -222zM442 229c0 59 -14 111 -39 150l-236 -323c28 -31 65 -49 109 -49c102 0 166 95 166 222z" />
    <glyph glyph-name="eth" unicode="&#xf0;" horiz-adv-x="555" 
d="M510 239c-2 -140 -93 -254 -234 -254c-142 0 -233 117 -233 244s91 244 233 244c41 0 77 -10 109 -26c-35 46 -81 97 -127 143l-96 -55l-11 20l91 52c-49 49 -95 92 -125 118l19 8c35 -21 89 -56 146 -102l104 60l12 -20l-97 -56c104 -89 209 -217 209 -376zM276 7
c102 0 166 95 166 222s-64 222 -166 222c-101 0 -165 -95 -165 -222s64 -222 165 -222z" />
    <glyph glyph-name="partialdiff" unicode="&#x2202;" horiz-adv-x="556" 
d="M276 -15c-142 0 -233 117 -233 244s91 244 233 244c41 0 77 -10 109 -26c-76 100 -206 224 -268 278l19 8c102 -63 374 -238 374 -494c-2 -140 -93 -254 -234 -254zM276 7c102 0 166 95 166 222s-64 222 -166 222c-101 0 -165 -95 -165 -222s64 -222 165 -222z" />
    <glyph glyph-name="thorn" unicode="&#xfe;" horiz-adv-x="563" 
d="M234 -240v-10h-216v10l63 22v899l-75 8v13c54 1 99 22 127 50h11l-3 -350v-7c33 34 97 78 165 78c115 0 213 -90 213 -233c0 -144 -114 -255 -247 -255c-58 0 -99 14 -131 34v-235zM141 96c23 -69 84 -94 130 -94c112 0 185 85 185 217c0 152 -93 212 -183 212
c-53 0 -105 -24 -132 -59v-276z" />
    <glyph glyph-name="germandbls" unicode="&#xdf;" horiz-adv-x="544" 
d="M91 498c0 217 112 282 222 282c68 0 165 -48 165 -153c0 -133 -170 -182 -170 -227c0 -50 203 -169 203 -274c0 -75 -60 -141 -164 -141c-61 0 -105 21 -133 39l-9 85l20 5c18 -64 61 -111 139 -111c39 0 91 35 91 94c0 40 -29 83 -66 118c-58 56 -134 121 -134 155
c0 30 166 112 166 242c0 86 -48 144 -132 144c-66 0 -138 -53 -138 -188v-568h-124v13l64 20v465z" />
    <glyph glyph-name="longs" unicode="&#x17f;" horiz-adv-x="278" 
d="M245 10v-10h-211v10l65 22v390h-61v36h61v63c0 83 43 169 115 213c27 17 69 32 115 32c29 0 63 -4 95 -21c13 -7 20 -14 20 -22c0 -20 -28 -42 -49 -42c-13 0 -54 51 -114 51c-63 0 -122 -50 -122 -166v-533z" />
    <glyph glyph-name="dotlessi" unicode="&#x131;" horiz-adv-x="252" 
d="M222 10v-10h-186v10l63 22v374l-65 18v13c48 1 93 14 115 30h11l-1 -65v-370z" />
    <glyph glyph-name="dotlessj" unicode="&#x237;" horiz-adv-x="231" 
d="M151 467l-1 -65v-379c0 -68 -17 -161 -76 -220c-37 -36 -97 -79 -176 -60c-54 12 25 80 46 59c58 -63 146 -7 146 174v430l-65 18v13c48 1 93 14 115 30h11z" />
    <glyph glyph-name="ct" horiz-adv-x="811" 
d="M466 743c81 0 170 -46 170 -177v-108h154l-21 -36h-133v-324c0 -35 15 -67 78 -67c35 0 68 19 79 45l10 -2c-10 -36 -50 -85 -123 -85c-76 0 -104 46 -104 76v357h-50v2l51 67v84c0 89 -66 133 -134 133c-117 0 -164 -122 -115 -212h-17c-52 90 -13 247 155 247zM98 253
c0 -147 92 -224 199 -224c78 0 135 47 156 84l9 -4c-31 -77 -118 -124 -202 -124c-135 0 -217 107 -217 230c0 156 106 258 237 258c109 0 160 -53 160 -76s-16 -36 -38 -36c-42 0 -53 91 -141 91c-86 0 -163 -72 -163 -199z" />
    <glyph glyph-name="st" unicode="&#xfb06;" horiz-adv-x="715" 
d="M370 743c81 0 170 -46 170 -177v-108h154l-21 -36h-133v-324c0 -35 15 -67 78 -67c35 0 68 19 79 45l10 -2c-10 -36 -50 -85 -123 -85c-76 0 -104 46 -104 76v357h-50v2l51 67v84c0 89 -66 133 -134 133c-117 0 -164 -122 -115 -212h-17c-52 90 -13 247 155 247zM49 15
l-7 120l14 2c26 -87 78 -131 144 -131c65 0 113 39 113 101c0 44 -29 70 -76 89l-78 32c-62 25 -99 59 -99 118c0 69 60 127 151 127c63 0 88 -20 132 -16v-104l-13 -2c-30 66 -61 102 -121 102c-52 0 -95 -35 -95 -86c0 -39 22 -65 73 -86l76 -31c53 -22 105 -54 105 -123
c0 -75 -69 -142 -170 -142c-71 0 -126 29 -149 30z" />
    <glyph glyph-name="Aacute" unicode="&#xc1;" 
d="M352 792l82 160h104l-170 -160h-16zM207 10v-10h-215v10l78 29l243 624l-15 38c26 6 48 14 64 26l273 -687l78 -30v-10h-245v10l91 29l-99 250h-261l-91 -250zM209 314h242l-126 319z" />
    <glyph glyph-name="Acircumflex" unicode="&#xc2;" 
d="M372 952l102 -160h-16l-107 95l-106 -95h-16l102 160h41zM207 10v-10h-215v10l78 29l243 624l-15 38c26 6 48 14 64 26l273 -687l78 -30v-10h-245v10l91 29l-99 250h-261l-91 -250zM209 314h242l-126 319z" />
    <glyph glyph-name="Adieresis" unicode="&#xc4;" 
d="M204 874c0 32 25 57 57 57s57 -25 57 -57s-25 -57 -57 -57s-57 25 -57 57zM386 874c0 32 25 57 57 57s57 -25 57 -57s-25 -57 -57 -57s-57 25 -57 57zM207 10v-10h-215v10l78 29l243 624l-15 38c26 6 48 14 64 26l273 -687l78 -30v-10h-245v10l91 29l-99 250h-261
l-91 -250zM209 314h242l-126 319z" />
    <glyph glyph-name="Agrave" unicode="&#xc0;" 
d="M270 952l82 -160h-16l-170 160h104zM207 10v-10h-215v10l78 29l243 624l-15 38c26 6 48 14 64 26l273 -687l78 -30v-10h-245v10l91 29l-99 250h-261l-91 -250zM209 314h242l-126 319z" />
    <glyph glyph-name="Aring" unicode="&#xc5;" 
d="M251 890c0 56 45 101 101 101s101 -45 101 -101s-45 -101 -101 -101s-101 45 -101 101zM277 890c0 -45 33 -78 75 -78c41 0 75 33 75 78c0 43 -34 78 -75 78c-42 0 -75 -35 -75 -78zM207 10v-10h-215v10l78 29l243 624l-15 38c26 6 48 14 64 26l273 -687l78 -30v-10h-245
v10l91 29l-99 250h-261l-91 -250zM209 314h242l-126 319z" />
    <glyph glyph-name="Atilde" unicode="&#xc3;" 
d="M440 875c22 0 39 19 39 50h18c0 -69 -36 -101 -81 -101s-118 48 -149 48c-22 0 -39 -19 -39 -50h-18c0 69 36 101 81 101c40 0 103 -48 149 -48zM207 10v-10h-215v10l78 29l243 624l-15 38c26 6 48 14 64 26l273 -687l78 -30v-10h-245v10l91 29l-99 250h-261l-91 -250z
M209 314h242l-126 319z" />
    <glyph glyph-name="Abreve" unicode="&#x102;" 
d="M352 792c-102 0 -133 66 -123 140h16c0 -44 30 -75 107 -75s107 31 107 75h16c10 -74 -21 -140 -123 -140zM207 10v-10h-215v10l78 29l243 624l-15 38c26 6 48 14 64 26l273 -687l78 -30v-10h-245v10l91 29l-99 250h-261l-91 -250zM209 314h242l-126 319z" />
    <glyph glyph-name="Amacron" unicode="&#x100;" 
d="M216 843v43h272v-43h-272zM207 10v-10h-215v10l78 29l243 624l-15 38c26 6 48 14 64 26l273 -687l78 -30v-10h-245v10l91 29l-99 250h-261l-91 -250zM209 314h242l-126 319z" />
    <glyph glyph-name="Aogonek" unicode="&#x104;" 
d="M638 -202c-32 -13 -58 -19 -80 -19c-47 0 -72 27 -72 61c0 50 65 114 119 160h-137v10l91 29l-99 250h-261l-91 -250l99 -29v-10h-215v10l78 29l243 624l-15 38c26 6 48 14 64 26l273 -687l78 -30v-10h-91c-19 -20 -78 -87 -78 -146c0 -33 23 -49 56 -49c16 0 34 3 55 8z
M209 314h242l-126 319z" />
    <glyph glyph-name="Ccedilla" unicode="&#xc7;" horiz-adv-x="785" 
d="M480 -142c0 -54 -48 -89 -104 -89c-58 0 -93 25 -93 52c0 15 14 29 29 29c22 0 25 -11 34 -33c7 -18 19 -32 38 -32c23 0 44 18 44 45c0 60 -93 75 -114 77l69 80c-195 19 -333 169 -333 363c0 208 158 365 366 365c108 0 197 -40 252 -72l36 47h16v-203h-15
c-73 134 -154 199 -289 199c-137 0 -287 -113 -287 -336s150 -336 297 -336c128 0 203 65 279 209h15v-213h-16l-36 47c-55 -32 -142 -72 -242 -72c-7 0 -15 0 -22 1l-26 -41c69 -12 102 -51 102 -87z" />
    <glyph glyph-name="Cacute" unicode="&#x106;" horiz-adv-x="785" 
d="M400 792l82 160h104l-170 -160h-16zM704 10l-36 47c-55 -32 -142 -72 -242 -72c-218 0 -376 157 -376 365s158 365 366 365c108 0 197 -40 252 -72l36 47h16v-203h-15c-73 134 -154 199 -289 199c-137 0 -287 -113 -287 -336s150 -336 297 -336c128 0 203 65 279 209h15
v-213h-16z" />
    <glyph glyph-name="Ccaron" unicode="&#x10c;" horiz-adv-x="785" 
d="M420 792h-41l-102 160h16l106 -95l107 95h16zM704 10l-36 47c-55 -32 -142 -72 -242 -72c-218 0 -376 157 -376 365s158 365 366 365c108 0 197 -40 252 -72l36 47h16v-203h-15c-73 134 -154 199 -289 199c-137 0 -287 -113 -287 -336s150 -336 297 -336
c128 0 203 65 279 209h15v-213h-16z" />
    <glyph glyph-name="Ccircumflex" unicode="&#x108;" horiz-adv-x="785" 
d="M420 952l102 -160h-16l-107 95l-106 -95h-16l102 160h41zM704 10l-36 47c-55 -32 -142 -72 -242 -72c-218 0 -376 157 -376 365s158 365 366 365c108 0 197 -40 252 -72l36 47h16v-203h-15c-73 134 -154 199 -289 199c-137 0 -287 -113 -287 -336s150 -336 297 -336
c128 0 203 65 279 209h15v-213h-16z" />
    <glyph glyph-name="Cdotaccent" unicode="&#x10a;" horiz-adv-x="785" 
d="M332 885c0 38 29 68 67 68s68 -30 68 -68s-30 -67 -68 -67s-67 29 -67 67zM704 10l-36 47c-55 -32 -142 -72 -242 -72c-218 0 -376 157 -376 365s158 365 366 365c108 0 197 -40 252 -72l36 47h16v-203h-15c-73 134 -154 199 -289 199c-137 0 -287 -113 -287 -336
s150 -336 297 -336c128 0 203 65 279 209h15v-213h-16z" />
    <glyph glyph-name="Dcaron" unicode="&#x10e;" horiz-adv-x="806" 
d="M428 792h-41l-102 160h16l106 -95l107 95h16zM43 690v10h306c276 0 405 -159 405 -350s-129 -350 -405 -350h-306v10l89 29v622zM332 675h-131v-650h131c195 0 351 96 351 325s-156 325 -351 325z" />
    <glyph glyph-name="Dcroat" unicode="&#x110;" horiz-adv-x="807" 
d="M44 690v10h306c276 0 405 -159 405 -350s-129 -350 -405 -350h-306v10l89 29v299h-88v25h88v298zM436 338h-234v-313h131c195 0 351 96 351 325s-156 325 -351 325h-131v-312h234v-25z" />
    <glyph glyph-name="Eacute" unicode="&#xc9;" horiz-adv-x="670" 
d="M341 792l82 160h104l-170 -160h-16zM43 690v10h527l20 -129l-12 -6l-85 110h-292v-309h214l40 89h11v-212h-11l-39 98h-215v-316h321l111 125l11 -6l-39 -144h-562v10l89 29v622z" />
    <glyph glyph-name="Ecircumflex" unicode="&#xca;" horiz-adv-x="670" 
d="M362 952l102 -160h-16l-107 95l-106 -95h-16l102 160h41zM43 690v10h527l20 -129l-12 -6l-85 110h-292v-309h214l40 89h11v-212h-11l-39 98h-215v-316h321l111 125l11 -6l-39 -144h-562v10l89 29v622z" />
    <glyph glyph-name="Edieresis" unicode="&#xcb;" horiz-adv-x="670" 
d="M193 874c0 32 25 57 57 57s57 -25 57 -57s-25 -57 -57 -57s-57 25 -57 57zM375 874c0 32 25 57 57 57s57 -25 57 -57s-25 -57 -57 -57s-57 25 -57 57zM43 690v10h527l20 -129l-12 -6l-85 110h-292v-309h214l40 89h11v-212h-11l-39 98h-215v-316h321l111 125l11 -6
l-39 -144h-562v10l89 29v622z" />
    <glyph glyph-name="Egrave" unicode="&#xc8;" horiz-adv-x="670" 
d="M259 952l82 -160h-16l-170 160h104zM43 690v10h527l20 -129l-12 -6l-85 110h-292v-309h214l40 89h11v-212h-11l-39 98h-215v-316h321l111 125l11 -6l-39 -144h-562v10l89 29v622z" />
    <glyph glyph-name="Ebreve" unicode="&#x114;" horiz-adv-x="670" 
d="M341 792c-102 0 -133 66 -123 140h16c0 -44 30 -75 107 -75s107 31 107 75h16c10 -74 -21 -140 -123 -140zM43 690v10h527l20 -129l-12 -6l-85 110h-292v-309h214l40 89h11v-212h-11l-39 98h-215v-316h321l111 125l11 -6l-39 -144h-562v10l89 29v622z" />
    <glyph glyph-name="Ecaron" unicode="&#x11a;" horiz-adv-x="670" 
d="M362 792h-41l-102 160h16l106 -95l107 95h16zM43 690v10h527l20 -129l-12 -6l-85 110h-292v-309h214l40 89h11v-212h-11l-39 98h-215v-316h321l111 125l11 -6l-39 -144h-562v10l89 29v622z" />
    <glyph glyph-name="Edotaccent" unicode="&#x116;" horiz-adv-x="670" 
d="M274 885c0 38 29 68 67 68s68 -30 68 -68s-30 -67 -68 -67s-67 29 -67 67zM43 690v10h527l20 -129l-12 -6l-85 110h-292v-309h214l40 89h11v-212h-11l-39 98h-215v-316h321l111 125l11 -6l-39 -144h-562v10l89 29v622z" />
    <glyph glyph-name="Emacron" unicode="&#x112;" horiz-adv-x="670" 
d="M205 843v43h272v-43h-272zM43 690v10h527l20 -129l-12 -6l-85 110h-292v-309h214l40 89h11v-212h-11l-39 98h-215v-316h321l111 125l11 -6l-39 -144h-562v10l89 29v622z" />
    <glyph glyph-name="Eogonek" unicode="&#x118;" horiz-adv-x="670" 
d="M644 144l-39 -144h-93c-19 -20 -78 -87 -78 -146c0 -33 23 -49 56 -49c16 0 34 3 55 8l-17 -15c-32 -13 -58 -19 -80 -19c-47 0 -72 27 -72 61c0 50 65 114 119 160h-452v10l89 29v622l-89 29v10h527l20 -129l-12 -6l-85 110h-292v-309h214l40 89h11v-212h-11l-39 98
h-215v-316h321l111 125z" />
    <glyph glyph-name="Gbreve" unicode="&#x11e;" horiz-adv-x="842" 
d="M425 792c-102 0 -133 66 -123 140h16c0 -44 30 -75 107 -75s107 31 107 75h16c10 -74 -21 -140 -123 -140zM779 119c-38 -44 -135 -137 -332 -137c-254 0 -397 166 -397 366c0 208 158 367 383 367c114 0 196 -40 247 -72l36 47h16v-203h-15c-76 134 -157 199 -286 199
c-136 0 -302 -92 -302 -332c0 -204 146 -336 342 -336c61 0 123 13 178 36v234l-132 30v11h286v-11l-87 -38v-192c23 14 44 30 63 47v-16z" />
    <glyph glyph-name="Gcircumflex" unicode="&#x11c;" horiz-adv-x="842" 
d="M446 952l102 -160h-16l-107 95l-106 -95h-16l102 160h41zM779 119c-38 -44 -135 -137 -332 -137c-254 0 -397 166 -397 366c0 208 158 367 383 367c114 0 196 -40 247 -72l36 47h16v-203h-15c-76 134 -157 199 -286 199c-136 0 -302 -92 -302 -332
c0 -204 146 -336 342 -336c61 0 123 13 178 36v234l-132 30v11h286v-11l-87 -38v-192c23 14 44 30 63 47v-16z" />
    <glyph glyph-name="Gcommaaccent" unicode="&#x122;" horiz-adv-x="842" 
d="M779 119c-38 -44 -135 -137 -332 -137c-254 0 -397 166 -397 366c0 208 158 367 383 367c114 0 196 -40 247 -72l36 47h16v-203h-15c-76 134 -157 199 -286 199c-136 0 -302 -92 -302 -332c0 -204 146 -336 342 -336c61 0 123 13 178 36v234l-132 30v11h286v-11l-87 -38
v-192c23 14 44 30 63 47v-16zM516 -174c0 -69 -58 -139 -141 -139c-13 0 -26 2 -40 5l4 15c11 -3 24 -4 35 -4c72 0 122 63 122 122c0 66 -45 95 -76 100c12 -13 19 -29 19 -43c0 -26 -19 -49 -49 -49c-28 0 -49 21 -49 49c0 34 33 59 70 59c45 0 105 -34 105 -115z" />
    <glyph glyph-name="Gdotaccent" unicode="&#x120;" horiz-adv-x="842" 
d="M358 885c0 38 29 68 67 68s68 -30 68 -68s-30 -67 -68 -67s-67 29 -67 67zM779 119c-38 -44 -135 -137 -332 -137c-254 0 -397 166 -397 366c0 208 158 367 383 367c114 0 196 -40 247 -72l36 47h16v-203h-15c-76 134 -157 199 -286 199c-136 0 -302 -92 -302 -332
c0 -204 146 -336 342 -336c61 0 123 13 178 36v234l-132 30v11h286v-11l-87 -38v-192c23 14 44 30 63 47v-16z" />
    <glyph glyph-name="Hbar" unicode="&#x126;" horiz-adv-x="833" 
d="M290 10v-10h-247v10l89 29v481h-67v27h67v114l-89 29v10h247v-10l-89 -29v-114h431v114l-89 29v10h247v-10l-89 -29v-114h66v-27h-66v-481l89 -29v-10h-247v10l89 29v310h-431v-310zM201 376h431v144h-431v-144z" />
    <glyph glyph-name="Hcircumflex" unicode="&#x124;" horiz-adv-x="833" 
d="M437 952l102 -160h-16l-107 95l-106 -95h-16l102 160h41zM300 10v-10h-257v10l89 29v622l-89 29v10h257v-10l-99 -30v-284h431v284l-99 30v10h257v-10l-89 -29v-622l89 -29v-10h-257v10l99 30v309h-431v-309z" />
    <glyph glyph-name="Iacute" unicode="&#xcd;" horiz-adv-x="333" 
d="M167 792l82 160h104l-170 -160h-16zM290 10v-10h-247v10l89 29v622l-89 29v10h247v-10l-89 -29v-622z" />
    <glyph glyph-name="Icircumflex" unicode="&#xce;" horiz-adv-x="333" 
d="M188 952l102 -160h-16l-107 95l-106 -95h-16l102 160h41zM290 10v-10h-247v10l89 29v622l-89 29v10h247v-10l-89 -29v-622z" />
    <glyph glyph-name="Idieresis" unicode="&#xcf;" horiz-adv-x="333" 
d="M19 874c0 32 25 57 57 57s57 -25 57 -57s-25 -57 -57 -57s-57 25 -57 57zM201 874c0 32 25 57 57 57s57 -25 57 -57s-25 -57 -57 -57s-57 25 -57 57zM290 10v-10h-247v10l89 29v622l-89 29v10h247v-10l-89 -29v-622z" />
    <glyph glyph-name="Igrave" unicode="&#xcc;" horiz-adv-x="333" 
d="M85 952l82 -160h-16l-170 160h104zM290 10v-10h-247v10l89 29v622l-89 29v10h247v-10l-89 -29v-622z" />
    <glyph glyph-name="Ibreve" unicode="&#x12c;" horiz-adv-x="333" 
d="M167 792c-102 0 -133 66 -123 140h16c0 -44 30 -75 107 -75s107 31 107 75h16c10 -74 -21 -140 -123 -140zM290 10v-10h-247v10l89 29v622l-89 29v10h247v-10l-89 -29v-622z" />
    <glyph glyph-name="Idotaccent" unicode="&#x130;" horiz-adv-x="333" 
d="M100 885c0 38 29 68 67 68s68 -30 68 -68s-30 -67 -68 -67s-67 29 -67 67zM290 10v-10h-247v10l89 29v622l-89 29v10h247v-10l-89 -29v-622z" />
    <glyph glyph-name="Imacron" unicode="&#x12a;" horiz-adv-x="333" 
d="M31 843v43h272v-43h-272zM290 10v-10h-247v10l89 29v622l-89 29v10h247v-10l-89 -29v-622z" />
    <glyph glyph-name="Iogonek" unicode="&#x12e;" horiz-adv-x="333" 
d="M243 -202c-32 -13 -58 -19 -80 -19c-47 0 -72 27 -72 61c0 50 65 114 119 160h-167v10l89 29v622l-89 29v10h247v-10l-89 -29v-622l89 -29v-10h-63c-19 -20 -78 -87 -78 -146c0 -33 23 -49 56 -49c16 0 34 3 55 8z" />
    <glyph glyph-name="Itilde" unicode="&#x128;" horiz-adv-x="333" 
d="M256 875c22 0 39 19 39 50h18c0 -69 -36 -101 -81 -101s-118 48 -149 48c-22 0 -39 -19 -39 -50h-18c0 69 36 101 81 101c40 0 103 -48 149 -48zM290 10v-10h-247v10l89 29v622l-89 29v10h247v-10l-89 -29v-622z" />
    <glyph glyph-name="Jcircumflex" unicode="&#x134;" horiz-adv-x="451" 
d="M323 952l102 -160h-16l-107 95l-106 -95h-16l102 160h41zM337 63c0 -118 -85 -174 -177 -174c-108 0 -155 71 -155 122c0 43 30 67 58 67c24 0 45 -19 45 -48c0 -27 -20 -40 -44 -45c-10 -2 -13 -15 -4 -29c17 -26 50 -40 87 -40c65 0 121 42 121 142v603l-89 29v10h218
v-10l-60 -26v-601z" />
    <glyph glyph-name="IJ" unicode="&#x132;" horiz-adv-x="827" 
d="M290 10v-10h-247v10l89 29v622l-89 29v10h247v-10l-89 -29v-622zM713 63c0 -118 -85 -174 -177 -174c-108 0 -155 71 -155 122c0 43 30 67 58 67c24 0 45 -19 45 -48c0 -27 -20 -40 -44 -45c-10 -2 -13 -15 -4 -29c17 -26 50 -40 87 -40c65 0 121 42 121 142v603l-89 29
v10h218v-10l-60 -26v-601z" />
    <glyph glyph-name="Kcommaaccent" unicode="&#x136;" horiz-adv-x="728" 
d="M300 10v-10h-257v10l89 29v622l-89 29v10h257v-10l-99 -30v-277h23l322 275l-97 32v10h246v-10l-102 -37l-322 -256l382 -357l92 -30v-10h-276v10l93 27l-340 321h-21v-318zM462 -174c0 -69 -58 -139 -141 -139c-13 0 -26 2 -40 5l4 15c11 -3 24 -4 35 -4
c72 0 122 63 122 122c0 66 -45 95 -76 100c12 -13 19 -29 19 -43c0 -26 -19 -49 -49 -49c-28 0 -49 21 -49 49c0 34 33 59 70 59c45 0 105 -34 105 -115z" />
    <glyph glyph-name="Lacute" unicode="&#x139;" horiz-adv-x="637" 
d="M166 792l82 160h104l-170 -160h-16zM43 690v10h257v-10l-99 -30v-635h298l121 135l11 -6l-39 -154h-549v10l89 29v622z" />
    <glyph glyph-name="Lcaron" unicode="&#x13d;" horiz-adv-x="643" 
d="M558 600c0 -69 -58 -139 -141 -139c-13 0 -26 2 -40 5l4 15c11 -3 24 -4 35 -4c72 0 122 63 122 122c0 66 -45 95 -76 100c12 -13 19 -29 19 -43c0 -26 -19 -49 -49 -49c-28 0 -49 21 -49 49c0 34 33 59 70 59c45 0 105 -34 105 -115zM43 690v10h257v-10l-99 -30v-635
h298l121 135l11 -6l-39 -154h-549v10l89 29v622z" />
    <glyph glyph-name="Lcommaaccent" unicode="&#x13b;" horiz-adv-x="637" 
d="M43 690v10h257v-10l-99 -30v-635h298l121 135l11 -6l-39 -154h-549v10l89 29v622zM421 -174c0 -69 -58 -139 -141 -139c-13 0 -26 2 -40 5l4 15c11 -3 24 -4 35 -4c72 0 122 63 122 122c0 66 -45 95 -76 100c12 -13 19 -29 19 -43c0 -26 -19 -49 -49 -49
c-28 0 -49 21 -49 49c0 34 33 59 70 59c45 0 105 -34 105 -115z" />
    <glyph glyph-name="Ldot" unicode="&#x13f;" horiz-adv-x="638" 
d="M43 690v10h257v-10l-99 -30v-635h298l121 135l11 -6l-39 -154h-549v10l89 29v622zM472 309c-29 0 -52 22 -52 52c0 29 23 52 52 52s53 -23 53 -52c0 -30 -24 -52 -53 -52z" />
    <glyph glyph-name="Ntilde" unicode="&#xd1;" horiz-adv-x="830" 
d="M503 875c22 0 39 19 39 50h18c0 -69 -36 -101 -81 -101s-118 48 -149 48c-22 0 -39 -19 -39 -50h-18c0 69 36 101 81 101c40 0 103 -48 149 -48zM264 0h-220v10l87 28l4 615l-89 37v10h158l470 -592l-3 554l-97 28v10h210v-10l-78 -29l-3 -671h-22l-516 649l2 -600
l97 -29v-10z" />
    <glyph glyph-name="Nacute" unicode="&#x143;" horiz-adv-x="830" 
d="M414 792l82 160h104l-170 -160h-16zM264 0h-220v10l87 28l4 615l-89 37v10h158l470 -592l-3 554l-97 28v10h210v-10l-78 -29l-3 -671h-22l-516 649l2 -600l97 -29v-10z" />
    <glyph glyph-name="Ncaron" unicode="&#x147;" horiz-adv-x="830" 
d="M435 792h-41l-102 160h16l106 -95l107 95h16zM264 0h-220v10l87 28l4 615l-89 37v10h158l470 -592l-3 554l-97 28v10h210v-10l-78 -29l-3 -671h-22l-516 649l2 -600l97 -29v-10z" />
    <glyph glyph-name="Ncommaaccent" unicode="&#x145;" horiz-adv-x="830" 
d="M264 0h-220v10l87 28l4 615l-89 37v10h158l470 -592l-3 554l-97 28v10h210v-10l-78 -29l-3 -671h-22l-516 649l2 -600l97 -29v-10zM505 -174c0 -69 -58 -139 -141 -139c-13 0 -26 2 -40 5l4 15c11 -3 24 -4 35 -4c72 0 122 63 122 122c0 66 -45 95 -76 100
c12 -13 19 -29 19 -43c0 -26 -19 -49 -49 -49c-28 0 -49 21 -49 49c0 34 33 59 70 59c45 0 105 -34 105 -115z" />
    <glyph glyph-name="Eng" unicode="&#x14a;" horiz-adv-x="830" 
d="M703 -80c0 -96 -64 -145 -141 -145c-69 0 -124 44 -124 103c0 36 24 60 52 60c21 0 39 -15 39 -39c0 -22 -18 -34 -32 -38c-15 -4 -17 -7 -17 -12c0 -17 37 -46 82 -46c58 0 107 36 107 120v80l-504 636l2 -600l97 -29v-10h-220v10l87 28l4 615l-89 37v10h158l470 -592
l-3 554l-97 28v10h210v-10l-78 -29l-3 -661v-80z" />
    <glyph glyph-name="Oacute" unicode="&#xd3;" horiz-adv-x="818" 
d="M409 792l82 160h104l-170 -160h-16zM408 -15c-206 0 -358 165 -358 366s152 364 358 364c205 0 360 -163 360 -364s-155 -366 -360 -366zM408 15c155 0 280 132 280 336s-125 335 -280 335c-154 0 -278 -131 -278 -335s124 -336 278 -336z" />
    <glyph glyph-name="Ocircumflex" unicode="&#xd4;" horiz-adv-x="818" 
d="M429 952l102 -160h-16l-107 95l-106 -95h-16l102 160h41zM408 -15c-206 0 -358 165 -358 366s152 364 358 364c205 0 360 -163 360 -364s-155 -366 -360 -366zM408 15c155 0 280 132 280 336s-125 335 -280 335c-154 0 -278 -131 -278 -335s124 -336 278 -336z" />
    <glyph glyph-name="Odieresis" unicode="&#xd6;" horiz-adv-x="818" 
d="M261 874c0 32 25 57 57 57s57 -25 57 -57s-25 -57 -57 -57s-57 25 -57 57zM443 874c0 32 25 57 57 57s57 -25 57 -57s-25 -57 -57 -57s-57 25 -57 57zM408 -15c-206 0 -358 165 -358 366s152 364 358 364c205 0 360 -163 360 -364s-155 -366 -360 -366zM408 15
c155 0 280 132 280 336s-125 335 -280 335c-154 0 -278 -131 -278 -335s124 -336 278 -336z" />
    <glyph glyph-name="Ograve" unicode="&#xd2;" horiz-adv-x="818" 
d="M327 952l82 -160h-16l-170 160h104zM408 -15c-206 0 -358 165 -358 366s152 364 358 364c205 0 360 -163 360 -364s-155 -366 -360 -366zM408 15c155 0 280 132 280 336s-125 335 -280 335c-154 0 -278 -131 -278 -335s124 -336 278 -336z" />
    <glyph glyph-name="Otilde" unicode="&#xd5;" horiz-adv-x="818" 
d="M497 875c22 0 39 19 39 50h18c0 -69 -36 -101 -81 -101s-118 48 -149 48c-22 0 -39 -19 -39 -50h-18c0 69 36 101 81 101c40 0 103 -48 149 -48zM408 -15c-206 0 -358 165 -358 366s152 364 358 364c205 0 360 -163 360 -364s-155 -366 -360 -366zM408 15
c155 0 280 132 280 336s-125 335 -280 335c-154 0 -278 -131 -278 -335s124 -336 278 -336z" />
    <glyph glyph-name="Obreve" unicode="&#x14e;" horiz-adv-x="818" 
d="M409 792c-102 0 -133 66 -123 140h16c0 -44 30 -75 107 -75s107 31 107 75h16c10 -74 -21 -140 -123 -140zM408 -15c-206 0 -358 165 -358 366s152 364 358 364c205 0 360 -163 360 -364s-155 -366 -360 -366zM408 15c155 0 280 132 280 336s-125 335 -280 335
c-154 0 -278 -131 -278 -335s124 -336 278 -336z" />
    <glyph glyph-name="Ohungarumlaut" unicode="&#x150;" horiz-adv-x="818" 
d="M318 792l82 160h104l-170 -160h-16zM496 792l82 160h104l-170 -160h-16zM408 -15c-206 0 -358 165 -358 366s152 364 358 364c205 0 360 -163 360 -364s-155 -366 -360 -366zM408 15c155 0 280 132 280 336s-125 335 -280 335c-154 0 -278 -131 -278 -335
s124 -336 278 -336z" />
    <glyph glyph-name="Omacron" unicode="&#x14c;" horiz-adv-x="818" 
d="M273 843v43h272v-43h-272zM408 -15c-206 0 -358 165 -358 366s152 364 358 364c205 0 360 -163 360 -364s-155 -366 -360 -366zM408 15c155 0 280 132 280 336s-125 335 -280 335c-154 0 -278 -131 -278 -335s124 -336 278 -336z" />
    <glyph glyph-name="Racute" unicode="&#x154;" horiz-adv-x="692" 
d="M373 792l82 160h104l-170 -160h-16zM43 690v10h322c133 0 230 -73 230 -175c0 -123 -117 -186 -228 -190c29 -7 69 -34 110 -89l108 -144c20 -27 37 -46 57 -61s45 -25 82 -31v-10h-128c-14 -1 -26 10 -43 33l-162 216c-49 66 -78 77 -130 77h-60v-285l119 -31v-10h-277
v10l89 29v622zM344 675h-143v-324h115c132 0 207 55 207 168c0 91 -56 156 -179 156z" />
    <glyph glyph-name="Rcaron" unicode="&#x158;" horiz-adv-x="692" 
d="M394 792h-41l-102 160h16l106 -95l107 95h16zM43 690v10h322c133 0 230 -73 230 -175c0 -123 -117 -186 -228 -190c29 -7 69 -34 110 -89l108 -144c20 -27 37 -46 57 -61s45 -25 82 -31v-10h-128c-14 -1 -26 10 -43 33l-162 216c-49 66 -78 77 -130 77h-60v-285l119 -31
v-10h-277v10l89 29v622zM344 675h-143v-324h115c132 0 207 55 207 168c0 91 -56 156 -179 156z" />
    <glyph glyph-name="Rcommaaccent" unicode="&#x156;" horiz-adv-x="692" 
d="M43 690v10h322c133 0 230 -73 230 -175c0 -123 -117 -186 -228 -190c29 -7 69 -34 110 -89l108 -144c20 -27 37 -46 57 -61s45 -25 82 -31v-10h-128c-14 -1 -26 10 -43 33l-162 216c-49 66 -78 77 -130 77h-60v-285l119 -31v-10h-277v10l89 29v622zM344 675h-143v-324
h115c132 0 207 55 207 168c0 91 -56 156 -179 156zM464 -174c0 -69 -58 -139 -141 -139c-13 0 -26 2 -40 5l4 15c11 -3 24 -4 35 -4c72 0 122 63 122 122c0 66 -45 95 -76 100c12 -13 19 -29 19 -43c0 -26 -19 -49 -49 -49c-28 0 -49 21 -49 49c0 34 33 59 70 59
c45 0 105 -34 105 -115z" />
    <glyph glyph-name="Scaron" unicode="&#x160;" horiz-adv-x="602" 
d="M322 792h-41l-102 160h16l106 -95l107 95h16zM312 -15c-93 0 -173 39 -203 67l-30 -52h-16v218h22c29 -124 106 -209 229 -209c101 0 172 64 172 158c0 76 -50 118 -112 138l-147 47c-87 28 -152 81 -152 174c0 102 85 189 225 189c72 0 136 -28 172 -56l26 47h16v-188
h-22c-24 107 -87 174 -191 174c-105 0 -161 -68 -161 -140c0 -68 39 -112 113 -136l148 -48c77 -25 151 -75 151 -177c0 -110 -88 -206 -240 -206z" />
    <glyph glyph-name="Sacute" unicode="&#x15a;" horiz-adv-x="602" 
d="M301 792l82 160h104l-170 -160h-16zM312 -15c-93 0 -173 39 -203 67l-30 -52h-16v218h22c29 -124 106 -209 229 -209c101 0 172 64 172 158c0 76 -50 118 -112 138l-147 47c-87 28 -152 81 -152 174c0 102 85 189 225 189c72 0 136 -28 172 -56l26 47h16v-188h-22
c-24 107 -87 174 -191 174c-105 0 -161 -68 -161 -140c0 -68 39 -112 113 -136l148 -48c77 -25 151 -75 151 -177c0 -110 -88 -206 -240 -206z" />
    <glyph glyph-name="Scedilla" unicode="&#x15e;" horiz-adv-x="602" 
d="M381 -142c0 -54 -48 -89 -104 -89c-58 0 -93 25 -93 52c0 15 14 29 29 29c22 0 25 -11 34 -33c7 -18 19 -32 38 -32c23 0 44 18 44 45c0 60 -93 75 -114 77l69 79c-81 7 -148 41 -175 66l-30 -52h-16v218h22c29 -124 106 -209 229 -209c101 0 172 64 172 158
c0 76 -50 118 -112 138l-147 47c-87 28 -152 81 -152 174c0 102 85 189 225 189c72 0 136 -28 172 -56l26 47h16v-188h-22c-24 107 -87 174 -191 174c-105 0 -161 -68 -161 -140c0 -68 39 -112 113 -136l148 -48c77 -25 151 -75 151 -177c0 -110 -88 -206 -240 -206h-7
l-26 -40c69 -12 102 -51 102 -87z" />
    <glyph glyph-name="Scircumflex" unicode="&#x15c;" horiz-adv-x="602" 
d="M322 952l102 -160h-16l-107 95l-106 -95h-16l102 160h41zM312 -15c-93 0 -173 39 -203 67l-30 -52h-16v218h22c29 -124 106 -209 229 -209c101 0 172 64 172 158c0 76 -50 118 -112 138l-147 47c-87 28 -152 81 -152 174c0 102 85 189 225 189c72 0 136 -28 172 -56
l26 47h16v-188h-22c-24 107 -87 174 -191 174c-105 0 -161 -68 -161 -140c0 -68 39 -112 113 -136l148 -48c77 -25 151 -75 151 -177c0 -110 -88 -206 -240 -206z" />
    <glyph glyph-name="Scommaaccent" unicode="&#x218;" horiz-adv-x="602" 
d="M312 -15c-93 0 -173 39 -203 67l-30 -52h-16v218h22c29 -124 106 -209 229 -209c101 0 172 64 172 158c0 76 -50 118 -112 138l-147 47c-87 28 -152 81 -152 174c0 102 85 189 225 189c72 0 136 -28 172 -56l26 47h16v-188h-22c-24 107 -87 174 -191 174
c-105 0 -161 -68 -161 -140c0 -68 39 -112 113 -136l148 -48c77 -25 151 -75 151 -177c0 -110 -88 -206 -240 -206zM392 -174c0 -69 -58 -139 -141 -139c-13 0 -26 2 -40 5l4 15c11 -3 24 -4 35 -4c72 0 122 63 122 122c0 66 -45 95 -76 100c12 -13 19 -29 19 -43
c0 -26 -19 -49 -49 -49c-28 0 -49 21 -49 49c0 34 33 59 70 59c45 0 105 -34 105 -115z" />
    <glyph glyph-name="Tbar" unicode="&#x166;" horiz-adv-x="693" 
d="M500 10v-10h-297v10l109 30v306h-101v23h101v305h-186l-94 -157l-12 4l13 179h627l13 -179l-12 -4l-94 157h-186v-305h102v-23h-102v-305z" />
    <glyph glyph-name="Tcaron" unicode="&#x164;" horiz-adv-x="693" 
d="M367 792h-41l-102 160h16l106 -95l107 95h16zM500 10v-10h-297v10l109 30v634h-186l-94 -157l-12 4l13 179h627l13 -179l-12 -4l-94 157h-186v-633z" />
    <glyph glyph-name="Tcommaaccent" unicode="&#x162;" horiz-adv-x="693" 
d="M500 10v-10h-297v10l109 30v634h-186l-94 -157l-12 4l13 179h627l13 -179l-12 -4l-94 157h-186v-633zM437 -174c0 -69 -58 -139 -141 -139c-13 0 -26 2 -40 5l4 15c11 -3 24 -4 35 -4c72 0 122 63 122 122c0 66 -45 95 -76 100c12 -13 19 -29 19 -43
c0 -26 -19 -49 -49 -49c-28 0 -49 21 -49 49c0 34 33 59 70 59c45 0 105 -34 105 -115z" />
    <glyph glyph-name="uni021A" unicode="&#x21a;" horiz-adv-x="693" 
d="M500 10v-10h-297v10l109 30v634h-186l-94 -157l-12 4l13 179h627l13 -179l-12 -4l-94 157h-186v-633zM437 -174c0 -69 -58 -139 -141 -139c-13 0 -26 2 -40 5l4 15c11 -3 24 -4 35 -4c72 0 122 63 122 122c0 66 -45 95 -76 100c12 -13 19 -29 19 -43
c0 -26 -19 -49 -49 -49c-28 0 -49 21 -49 49c0 34 33 59 70 59c45 0 105 -34 105 -115z" />
    <glyph glyph-name="Uacute" unicode="&#xda;" horiz-adv-x="784" 
d="M391 792l82 160h104l-170 -160h-16zM665 230c0 -165 -128 -245 -274 -245c-157 0 -275 80 -275 234v442l-89 29v10h247v-10l-89 -29v-442c0 -130 98 -198 227 -198c117 0 220 66 220 216v418l-92 35v10h217v-10l-92 -35v-425z" />
    <glyph glyph-name="Ucircumflex" unicode="&#xdb;" horiz-adv-x="784" 
d="M411 952l102 -160h-16l-107 95l-106 -95h-16l102 160h41zM665 230c0 -165 -128 -245 -274 -245c-157 0 -275 80 -275 234v442l-89 29v10h247v-10l-89 -29v-442c0 -130 98 -198 227 -198c117 0 220 66 220 216v418l-92 35v10h217v-10l-92 -35v-425z" />
    <glyph glyph-name="Udieresis" unicode="&#xdc;" horiz-adv-x="784" 
d="M243 874c0 32 25 57 57 57s57 -25 57 -57s-25 -57 -57 -57s-57 25 -57 57zM425 874c0 32 25 57 57 57s57 -25 57 -57s-25 -57 -57 -57s-57 25 -57 57zM665 230c0 -165 -128 -245 -274 -245c-157 0 -275 80 -275 234v442l-89 29v10h247v-10l-89 -29v-442
c0 -130 98 -198 227 -198c117 0 220 66 220 216v418l-92 35v10h217v-10l-92 -35v-425z" />
    <glyph glyph-name="Ugrave" unicode="&#xd9;" horiz-adv-x="784" 
d="M309 952l82 -160h-16l-170 160h104zM665 230c0 -165 -128 -245 -274 -245c-157 0 -275 80 -275 234v442l-89 29v10h247v-10l-89 -29v-442c0 -130 98 -198 227 -198c117 0 220 66 220 216v418l-92 35v10h217v-10l-92 -35v-425z" />
    <glyph glyph-name="Ubreve" unicode="&#x16c;" horiz-adv-x="784" 
d="M391 792c-102 0 -133 66 -123 140h16c0 -44 30 -75 107 -75s107 31 107 75h16c10 -74 -21 -140 -123 -140zM665 230c0 -165 -128 -245 -274 -245c-157 0 -275 80 -275 234v442l-89 29v10h247v-10l-89 -29v-442c0 -130 98 -198 227 -198c117 0 220 66 220 216v418l-92 35
v10h217v-10l-92 -35v-425z" />
    <glyph glyph-name="Uhungarumlaut" unicode="&#x170;" horiz-adv-x="784" 
d="M274 792l82 160h104l-170 -160h-16zM452 792l82 160h104l-170 -160h-16zM665 230c0 -165 -128 -245 -274 -245c-157 0 -275 80 -275 234v442l-89 29v10h247v-10l-89 -29v-442c0 -130 98 -198 227 -198c117 0 220 66 220 216v418l-92 35v10h217v-10l-92 -35v-425z" />
    <glyph glyph-name="Umacron" unicode="&#x16a;" horiz-adv-x="784" 
d="M255 843v43h272v-43h-272zM665 230c0 -165 -128 -245 -274 -245c-157 0 -275 80 -275 234v442l-89 29v10h247v-10l-89 -29v-442c0 -130 98 -198 227 -198c117 0 220 66 220 216v418l-92 35v10h217v-10l-92 -35v-425z" />
    <glyph glyph-name="Uogonek" unicode="&#x172;" horiz-adv-x="784" 
d="M557 -182c-32 -13 -58 -19 -80 -19c-47 0 -72 27 -72 61c0 44 50 99 100 143c-35 -12 -74 -18 -114 -18c-157 0 -275 80 -275 234v442l-89 29v10h247v-10l-89 -29v-442c0 -130 98 -198 227 -198c117 0 220 66 220 216v418l-92 35v10h217v-10l-92 -35v-425
c0 -105 -51 -175 -126 -213c-22 -22 -76 -86 -76 -143c0 -33 23 -49 56 -49c16 0 34 3 55 8z" />
    <glyph glyph-name="Uring" unicode="&#x16e;" horiz-adv-x="784" 
d="M290 890c0 56 45 101 101 101s101 -45 101 -101s-45 -101 -101 -101s-101 45 -101 101zM316 890c0 -45 33 -78 75 -78c41 0 75 33 75 78c0 43 -34 78 -75 78c-42 0 -75 -35 -75 -78zM665 230c0 -165 -128 -245 -274 -245c-157 0 -275 80 -275 234v442l-89 29v10h247v-10
l-89 -29v-442c0 -130 98 -198 227 -198c117 0 220 66 220 216v418l-92 35v10h217v-10l-92 -35v-425z" />
    <glyph glyph-name="Utilde" unicode="&#x168;" horiz-adv-x="784" 
d="M479 875c22 0 39 19 39 50h18c0 -69 -36 -101 -81 -101s-118 48 -149 48c-22 0 -39 -19 -39 -50h-18c0 69 36 101 81 101c40 0 103 -48 149 -48zM665 230c0 -165 -128 -245 -274 -245c-157 0 -275 80 -275 234v442l-89 29v10h247v-10l-89 -29v-442
c0 -130 98 -198 227 -198c117 0 220 66 220 216v418l-92 35v10h217v-10l-92 -35v-425z" />
    <glyph glyph-name="Wacute" unicode="&#x1e82;" horiz-adv-x="1052" 
d="M526 792l82 160h104l-170 -160h-16zM726 -10l-199 531l-198 -531h-14l-251 670l-72 30v10h265v-10l-120 -27l207 -578l172 467l-41 108l-72 30v10h265v-10l-120 -27l207 -578l192 575l-119 30v10h235v-10l-72 -29l-251 -671h-14z" />
    <glyph glyph-name="Wcircumflex" unicode="&#x174;" horiz-adv-x="1052" 
d="M547 952l102 -160h-16l-107 95l-106 -95h-16l102 160h41zM726 -10l-199 531l-198 -531h-14l-251 670l-72 30v10h265v-10l-120 -27l207 -578l172 467l-41 108l-72 30v10h265v-10l-120 -27l207 -578l192 575l-119 30v10h235v-10l-72 -29l-251 -671h-14z" />
    <glyph glyph-name="Wdieresis" unicode="&#x1e84;" horiz-adv-x="1052" 
d="M378 874c0 32 25 57 57 57s57 -25 57 -57s-25 -57 -57 -57s-57 25 -57 57zM560 874c0 32 25 57 57 57s57 -25 57 -57s-25 -57 -57 -57s-57 25 -57 57zM726 -10l-199 531l-198 -531h-14l-251 670l-72 30v10h265v-10l-120 -27l207 -578l172 467l-41 108l-72 30v10h265v-10
l-120 -27l207 -578l192 575l-119 30v10h235v-10l-72 -29l-251 -671h-14z" />
    <glyph glyph-name="Wgrave" unicode="&#x1e80;" horiz-adv-x="1052" 
d="M444 952l82 -160h-16l-170 160h104zM726 -10l-199 531l-198 -531h-14l-251 670l-72 30v10h265v-10l-120 -27l207 -578l172 467l-41 108l-72 30v10h265v-10l-120 -27l207 -578l192 575l-119 30v10h235v-10l-72 -29l-251 -671h-14z" />
    <glyph glyph-name="Yacute" unicode="&#xdd;" horiz-adv-x="718" 
d="M358 792l82 160h104l-170 -160h-16zM512 10v-10h-297v10l109 30v291l-243 329l-72 30v10h255v-10l-100 -27l220 -299l208 296l-109 30v10h225v-10l-72 -29l-243 -327v-293z" />
    <glyph glyph-name="Ydieresis" unicode="&#x178;" horiz-adv-x="718" 
d="M210 874c0 32 25 57 57 57s57 -25 57 -57s-25 -57 -57 -57s-57 25 -57 57zM392 874c0 32 25 57 57 57s57 -25 57 -57s-25 -57 -57 -57s-57 25 -57 57zM512 10v-10h-297v10l109 30v291l-243 329l-72 30v10h255v-10l-100 -27l220 -299l208 296l-109 30v10h225v-10l-72 -29
l-243 -327v-293z" />
    <glyph glyph-name="Ycircumflex" unicode="&#x176;" horiz-adv-x="718" 
d="M379 952l102 -160h-16l-107 95l-106 -95h-16l102 160h41zM512 10v-10h-297v10l109 30v291l-243 329l-72 30v10h255v-10l-100 -27l220 -299l208 296l-109 30v10h225v-10l-72 -29l-243 -327v-293z" />
    <glyph glyph-name="Ygrave" unicode="&#x1ef2;" horiz-adv-x="718" 
d="M276 952l82 -160h-16l-170 160h104zM512 10v-10h-297v10l109 30v291l-243 329l-72 30v10h255v-10l-100 -27l220 -299l208 296l-109 30v10h225v-10l-72 -29l-243 -327v-293z" />
    <glyph glyph-name="Zcaron" unicode="&#x17d;" horiz-adv-x="682" 
d="M344 792h-41l-102 160h16l106 -95l107 95h16zM617 700v-5l-490 -670h395l126 168l10 -14l-45 -179h-586v5l494 670h-352l-100 -149l-12 3l16 171h544z" />
    <glyph glyph-name="Zacute" unicode="&#x179;" horiz-adv-x="682" 
d="M324 792l82 160h104l-170 -160h-16zM617 700v-5l-490 -670h395l126 168l10 -14l-45 -179h-586v5l494 670h-352l-100 -149l-12 3l16 171h544z" />
    <glyph glyph-name="Zdotaccent" unicode="&#x17b;" horiz-adv-x="682" 
d="M256 885c0 38 29 68 67 68s68 -30 68 -68s-30 -67 -68 -67s-67 29 -67 67zM617 700v-5l-490 -670h395l126 168l10 -14l-45 -179h-586v5l494 670h-352l-100 -149l-12 3l16 171h544z" />
    <glyph glyph-name="aacute" unicode="&#xe1;" horiz-adv-x="459" 
d="M171 540l82 160h104l-170 -160h-16zM300 72v2c-28 -55 -84 -89 -139 -89c-79 0 -113 57 -113 107c0 103 122 155 252 165v112c0 44 -43 64 -94 64c-34 0 -72 -10 -98 -24c7 -20 13 -37 13 -51c0 -32 -22 -45 -40 -45c-19 0 -37 15 -37 39c0 45 114 121 190 121
c103 0 126 -49 126 -97v-297c0 -22 10 -47 39 -47c13 0 31 8 40 22l11 -3c-9 -35 -39 -62 -75 -62c-46 0 -75 30 -75 83zM107 109c0 -44 26 -82 81 -82c43 0 90 25 112 71v145c-65 -8 -193 -37 -193 -134z" />
    <glyph glyph-name="acircumflex" unicode="&#xe2;" horiz-adv-x="459" 
d="M232 700l102 -160h-16l-107 95l-106 -95h-16l102 160h41zM300 72v2c-28 -55 -84 -89 -139 -89c-79 0 -113 57 -113 107c0 103 122 155 252 165v112c0 44 -43 64 -94 64c-34 0 -72 -10 -98 -24c7 -20 13 -37 13 -51c0 -32 -22 -45 -40 -45c-19 0 -37 15 -37 39
c0 45 114 121 190 121c103 0 126 -49 126 -97v-297c0 -22 10 -47 39 -47c13 0 31 8 40 22l11 -3c-9 -35 -39 -62 -75 -62c-46 0 -75 30 -75 83zM107 109c0 -44 26 -82 81 -82c43 0 90 25 112 71v145c-65 -8 -193 -37 -193 -134z" />
    <glyph glyph-name="adieresis" unicode="&#xe4;" horiz-adv-x="459" 
d="M63 622c0 32 25 57 57 57s57 -25 57 -57s-25 -57 -57 -57s-57 25 -57 57zM245 622c0 32 25 57 57 57s57 -25 57 -57s-25 -57 -57 -57s-57 25 -57 57zM300 72v2c-28 -55 -84 -89 -139 -89c-79 0 -113 57 -113 107c0 103 122 155 252 165v112c0 44 -43 64 -94 64
c-34 0 -72 -10 -98 -24c7 -20 13 -37 13 -51c0 -32 -22 -45 -40 -45c-19 0 -37 15 -37 39c0 45 114 121 190 121c103 0 126 -49 126 -97v-297c0 -22 10 -47 39 -47c13 0 31 8 40 22l11 -3c-9 -35 -39 -62 -75 -62c-46 0 -75 30 -75 83zM107 109c0 -44 26 -82 81 -82
c43 0 90 25 112 71v145c-65 -8 -193 -37 -193 -134z" />
    <glyph glyph-name="agrave" unicode="&#xe0;" horiz-adv-x="459" 
d="M169 700l82 -160h-16l-170 160h104zM300 72v2c-28 -55 -84 -89 -139 -89c-79 0 -113 57 -113 107c0 103 122 155 252 165v112c0 44 -43 64 -94 64c-34 0 -72 -10 -98 -24c7 -20 13 -37 13 -51c0 -32 -22 -45 -40 -45c-19 0 -37 15 -37 39c0 45 114 121 190 121
c103 0 126 -49 126 -97v-297c0 -22 10 -47 39 -47c13 0 31 8 40 22l11 -3c-9 -35 -39 -62 -75 -62c-46 0 -75 30 -75 83zM107 109c0 -44 26 -82 81 -82c43 0 90 25 112 71v145c-65 -8 -193 -37 -193 -134z" />
    <glyph glyph-name="aring" unicode="&#xe5;" horiz-adv-x="459" 
d="M110 638c0 56 45 101 101 101s101 -45 101 -101s-45 -101 -101 -101s-101 45 -101 101zM136 638c0 -45 33 -78 75 -78c41 0 75 33 75 78c0 43 -34 78 -75 78c-42 0 -75 -35 -75 -78zM300 72v2c-28 -55 -84 -89 -139 -89c-79 0 -113 57 -113 107c0 103 122 155 252 165
v112c0 44 -43 64 -94 64c-34 0 -72 -10 -98 -24c7 -20 13 -37 13 -51c0 -32 -22 -45 -40 -45c-19 0 -37 15 -37 39c0 45 114 121 190 121c103 0 126 -49 126 -97v-297c0 -22 10 -47 39 -47c13 0 31 8 40 22l11 -3c-9 -35 -39 -62 -75 -62c-46 0 -75 30 -75 83zM107 109
c0 -44 26 -82 81 -82c43 0 90 25 112 71v145c-65 -8 -193 -37 -193 -134z" />
    <glyph glyph-name="atilde" unicode="&#xe3;" horiz-adv-x="459" 
d="M300 623c22 0 39 19 39 50h18c0 -69 -36 -101 -81 -101s-118 48 -149 48c-22 0 -39 -19 -39 -50h-18c0 69 36 101 81 101c40 0 103 -48 149 -48zM300 72v2c-28 -55 -84 -89 -139 -89c-79 0 -113 57 -113 107c0 103 122 155 252 165v112c0 44 -43 64 -94 64
c-34 0 -72 -10 -98 -24c7 -20 13 -37 13 -51c0 -32 -22 -45 -40 -45c-19 0 -37 15 -37 39c0 45 114 121 190 121c103 0 126 -49 126 -97v-297c0 -22 10 -47 39 -47c13 0 31 8 40 22l11 -3c-9 -35 -39 -62 -75 -62c-46 0 -75 30 -75 83zM107 109c0 -44 26 -82 81 -82
c43 0 90 25 112 71v145c-65 -8 -193 -37 -193 -134z" />
    <glyph glyph-name="abreve" unicode="&#x103;" horiz-adv-x="459" 
d="M211 540c-102 0 -133 66 -123 140h16c0 -44 30 -75 107 -75s107 31 107 75h16c10 -74 -21 -140 -123 -140zM300 72v2c-28 -55 -84 -89 -139 -89c-79 0 -113 57 -113 107c0 103 122 155 252 165v112c0 44 -43 64 -94 64c-34 0 -72 -10 -98 -24c7 -20 13 -37 13 -51
c0 -32 -22 -45 -40 -45c-19 0 -37 15 -37 39c0 45 114 121 190 121c103 0 126 -49 126 -97v-297c0 -22 10 -47 39 -47c13 0 31 8 40 22l11 -3c-9 -35 -39 -62 -75 -62c-46 0 -75 30 -75 83zM107 109c0 -44 26 -82 81 -82c43 0 90 25 112 71v145c-65 -8 -193 -37 -193 -134z
" />
    <glyph glyph-name="amacron" unicode="&#x101;" horiz-adv-x="459" 
d="M75 591v43h272v-43h-272zM300 72v2c-28 -55 -84 -89 -139 -89c-79 0 -113 57 -113 107c0 103 122 155 252 165v112c0 44 -43 64 -94 64c-34 0 -72 -10 -98 -24c7 -20 13 -37 13 -51c0 -32 -22 -45 -40 -45c-19 0 -37 15 -37 39c0 45 114 121 190 121
c103 0 126 -49 126 -97v-297c0 -22 10 -47 39 -47c13 0 31 8 40 22l11 -3c-9 -35 -39 -62 -75 -62c-46 0 -75 30 -75 83zM107 109c0 -44 26 -82 81 -82c43 0 90 25 112 71v145c-65 -8 -193 -37 -193 -134z" />
    <glyph glyph-name="aogonek" unicode="&#x105;" horiz-adv-x="459" 
d="M417 -202c-32 -13 -58 -19 -80 -19c-47 0 -72 27 -72 61c0 47 55 104 107 149c-44 2 -72 31 -72 83v2c-28 -55 -84 -89 -139 -89c-79 0 -113 57 -113 107c0 103 122 155 252 165v112c0 44 -43 64 -94 64c-34 0 -72 -10 -98 -24c7 -20 13 -37 13 -51
c0 -32 -22 -45 -40 -45c-19 0 -37 15 -37 39c0 45 114 121 190 121c103 0 126 -49 126 -97v-297c0 -22 10 -47 39 -47c13 0 31 8 40 22l11 -3c-7 -29 -29 -52 -57 -60c-24 -26 -70 -84 -70 -137c0 -33 23 -49 56 -49c16 0 34 3 55 8zM107 109c0 -44 26 -82 81 -82
c43 0 90 25 112 71v145c-65 -8 -193 -37 -193 -134z" />
    <glyph glyph-name="ccedilla" unicode="&#xe7;" horiz-adv-x="488" 
d="M322 -142c0 -54 -48 -89 -104 -89c-58 0 -93 25 -93 52c0 15 14 29 29 29c22 0 25 -11 34 -33c7 -18 19 -32 38 -32c23 0 44 18 44 45c0 60 -93 75 -114 77l70 80c-115 17 -183 116 -183 228c0 156 106 258 237 258c109 0 160 -53 160 -76s-16 -36 -38 -36
c-42 0 -53 91 -141 91c-86 0 -163 -72 -163 -199c0 -147 92 -224 199 -224c78 0 135 47 156 84l9 -4c-31 -77 -118 -124 -202 -124h-14l-26 -40c69 -12 102 -51 102 -87z" />
    <glyph glyph-name="cacute" unicode="&#x107;" horiz-adv-x="488" 
d="M242 540l82 160h104l-170 -160h-16zM98 253c0 -147 92 -224 199 -224c78 0 135 47 156 84l9 -4c-31 -77 -118 -124 -202 -124c-135 0 -217 107 -217 230c0 156 106 258 237 258c109 0 160 -53 160 -76s-16 -36 -38 -36c-42 0 -53 91 -141 91c-86 0 -163 -72 -163 -199z
" />
    <glyph glyph-name="ccaron" unicode="&#x10d;" horiz-adv-x="488" 
d="M262 540h-41l-102 160h16l106 -95l107 95h16zM98 253c0 -147 92 -224 199 -224c78 0 135 47 156 84l9 -4c-31 -77 -118 -124 -202 -124c-135 0 -217 107 -217 230c0 156 106 258 237 258c109 0 160 -53 160 -76s-16 -36 -38 -36c-42 0 -53 91 -141 91
c-86 0 -163 -72 -163 -199z" />
    <glyph glyph-name="ccircumflex" unicode="&#x109;" horiz-adv-x="488" 
d="M262 700l102 -160h-16l-107 95l-106 -95h-16l102 160h41zM98 253c0 -147 92 -224 199 -224c78 0 135 47 156 84l9 -4c-31 -77 -118 -124 -202 -124c-135 0 -217 107 -217 230c0 156 106 258 237 258c109 0 160 -53 160 -76s-16 -36 -38 -36c-42 0 -53 91 -141 91
c-86 0 -163 -72 -163 -199z" />
    <glyph glyph-name="cdotaccent" unicode="&#x10b;" horiz-adv-x="488" 
d="M174 633c0 38 29 68 67 68s68 -30 68 -68s-30 -67 -68 -67s-67 29 -67 67zM98 253c0 -147 92 -224 199 -224c78 0 135 47 156 84l9 -4c-31 -77 -118 -124 -202 -124c-135 0 -217 107 -217 230c0 156 106 258 237 258c109 0 160 -53 160 -76s-16 -36 -38 -36
c-42 0 -53 91 -141 91c-86 0 -163 -72 -163 -199z" />
    <glyph glyph-name="dcaron" unicode="&#x10f;" horiz-adv-x="602" 
d="M419 59v2c-32 -34 -90 -76 -163 -76c-115 0 -213 90 -213 233c0 144 114 255 247 255c56 0 96 -13 127 -31v245l-82 13v10l131 42h11v-707l72 -9v-13c-43 -5 -88 -17 -124 -32h-7zM724 600c0 -69 -58 -139 -141 -139c-13 0 -26 2 -40 5l4 15c11 -3 24 -4 35 -4
c72 0 122 63 122 122c0 66 -45 95 -76 100c12 -13 19 -29 19 -43c0 -26 -19 -49 -49 -49c-28 0 -49 21 -49 49c0 34 33 59 70 59c45 0 105 -34 105 -115zM106 239c0 -152 96 -212 186 -212c50 0 100 21 125 51v295c-25 61 -76 83 -129 83c-112 0 -182 -85 -182 -217z" />
    <glyph glyph-name="dcroat" unicode="&#x111;" horiz-adv-x="572" 
d="M419 59v2c-32 -34 -90 -76 -163 -76c-115 0 -213 90 -213 233c0 144 114 255 247 255c56 0 96 -13 127 -31v129h-129v23h129v93l-82 13v10l131 42h11v-158h53v-23h-53v-526l72 -9v-13c-43 -5 -88 -17 -124 -32h-7zM106 239c0 -152 96 -212 186 -212c50 0 100 21 125 51
v295c-25 61 -76 83 -129 83c-112 0 -182 -85 -182 -217z" />
    <glyph glyph-name="eacute" unicode="&#xe9;" horiz-adv-x="502" 
d="M250 540l82 160h104l-170 -160h-16zM269 473c81 0 183 -45 183 -175h-350c-1 -11 -2 -22 -2 -34c0 -152 75 -234 196 -234c73 0 135 42 158 98l13 -4c-33 -100 -130 -139 -207 -139c-114 0 -216 87 -216 234c0 145 101 254 225 254zM267 451c-85 0 -144 -53 -162 -134
h260c13 0 17 8 17 23c-3 82 -63 111 -115 111z" />
    <glyph glyph-name="ecircumflex" unicode="&#xea;" horiz-adv-x="502" 
d="M270 700l102 -160h-16l-107 95l-106 -95h-16l102 160h41zM269 473c81 0 183 -45 183 -175h-350c-1 -11 -2 -22 -2 -34c0 -152 75 -234 196 -234c73 0 135 42 158 98l13 -4c-33 -100 -130 -139 -207 -139c-114 0 -216 87 -216 234c0 145 101 254 225 254zM267 451
c-85 0 -144 -53 -162 -134h260c13 0 17 8 17 23c-3 82 -63 111 -115 111z" />
    <glyph glyph-name="edieresis" unicode="&#xeb;" horiz-adv-x="502" 
d="M102 622c0 32 25 57 57 57s57 -25 57 -57s-25 -57 -57 -57s-57 25 -57 57zM284 622c0 32 25 57 57 57s57 -25 57 -57s-25 -57 -57 -57s-57 25 -57 57zM269 473c81 0 183 -45 183 -175h-350c-1 -11 -2 -22 -2 -34c0 -152 75 -234 196 -234c73 0 135 42 158 98l13 -4
c-33 -100 -130 -139 -207 -139c-114 0 -216 87 -216 234c0 145 101 254 225 254zM267 451c-85 0 -144 -53 -162 -134h260c13 0 17 8 17 23c-3 82 -63 111 -115 111z" />
    <glyph glyph-name="egrave" unicode="&#xe8;" horiz-adv-x="502" 
d="M168 700l82 -160h-16l-170 160h104zM269 473c81 0 183 -45 183 -175h-350c-1 -11 -2 -22 -2 -34c0 -152 75 -234 196 -234c73 0 135 42 158 98l13 -4c-33 -100 -130 -139 -207 -139c-114 0 -216 87 -216 234c0 145 101 254 225 254zM267 451c-85 0 -144 -53 -162 -134
h260c13 0 17 8 17 23c-3 82 -63 111 -115 111z" />
    <glyph glyph-name="ebreve" unicode="&#x115;" horiz-adv-x="502" 
d="M250 540c-102 0 -133 66 -123 140h16c0 -44 30 -75 107 -75s107 31 107 75h16c10 -74 -21 -140 -123 -140zM269 473c81 0 183 -45 183 -175h-350c-1 -11 -2 -22 -2 -34c0 -152 75 -234 196 -234c73 0 135 42 158 98l13 -4c-33 -100 -130 -139 -207 -139
c-114 0 -216 87 -216 234c0 145 101 254 225 254zM267 451c-85 0 -144 -53 -162 -134h260c13 0 17 8 17 23c-3 82 -63 111 -115 111z" />
    <glyph glyph-name="ecaron" unicode="&#x11b;" horiz-adv-x="502" 
d="M270 540h-41l-102 160h16l106 -95l107 95h16zM269 473c81 0 183 -45 183 -175h-350c-1 -11 -2 -22 -2 -34c0 -152 75 -234 196 -234c73 0 135 42 158 98l13 -4c-33 -100 -130 -139 -207 -139c-114 0 -216 87 -216 234c0 145 101 254 225 254zM267 451
c-85 0 -144 -53 -162 -134h260c13 0 17 8 17 23c-3 82 -63 111 -115 111z" />
    <glyph glyph-name="edotaccent" unicode="&#x117;" horiz-adv-x="502" 
d="M182 633c0 38 29 68 67 68s68 -30 68 -68s-30 -67 -68 -67s-67 29 -67 67zM269 473c81 0 183 -45 183 -175h-350c-1 -11 -2 -22 -2 -34c0 -152 75 -234 196 -234c73 0 135 42 158 98l13 -4c-33 -100 -130 -139 -207 -139c-114 0 -216 87 -216 234c0 145 101 254 225 254z
M267 451c-85 0 -144 -53 -162 -134h260c13 0 17 8 17 23c-3 82 -63 111 -115 111z" />
    <glyph glyph-name="emacron" unicode="&#x113;" horiz-adv-x="502" 
d="M114 591v43h272v-43h-272zM269 473c81 0 183 -45 183 -175h-350c-1 -11 -2 -22 -2 -34c0 -152 75 -234 196 -234c73 0 135 42 158 98l13 -4c-33 -100 -130 -139 -207 -139c-114 0 -216 87 -216 234c0 145 101 254 225 254zM267 451c-85 0 -144 -53 -162 -134h260
c13 0 17 8 17 23c-3 82 -63 111 -115 111z" />
    <glyph glyph-name="eogonek" unicode="&#x119;" horiz-adv-x="502" 
d="M269 473c81 0 183 -45 183 -175h-350c-1 -11 -2 -22 -2 -34c0 -152 75 -234 196 -234c73 0 135 42 158 98l13 -4c-20 -61 -64 -99 -112 -120c-23 -25 -73 -85 -73 -140c0 -33 23 -49 56 -49c16 0 34 3 55 8l-17 -15c-32 -13 -58 -19 -80 -19c-47 0 -72 27 -72 61
c0 45 51 100 101 144c-22 -6 -44 -9 -65 -9c-114 0 -216 87 -216 234c0 145 101 254 225 254zM267 451c-85 0 -144 -53 -162 -134h260c13 0 17 8 17 23c-3 82 -63 111 -115 111z" />
    <glyph glyph-name="gbreve" unicode="&#x11f;" horiz-adv-x="527" 
d="M243 540c-102 0 -133 66 -123 140h16c0 -44 30 -75 107 -75s107 31 107 75h16c10 -74 -21 -140 -123 -140zM495 -86c0 -96 -102 -177 -264 -179c-159 0 -220 65 -220 133c0 66 69 111 143 121c-69 5 -99 51 -99 91c0 36 25 80 76 97c-41 31 -66 77 -66 129
c0 92 80 167 184 167c62 0 115 -26 148 -67c32 10 42 19 57 34c12 13 24 23 40 23c14 0 33 -10 33 -33c0 -14 -11 -34 -35 -34c-22 0 -41 12 -86 -2c17 -26 27 -56 27 -88c0 -92 -80 -167 -184 -167c-40 0 -77 11 -106 30c-30 -13 -46 -41 -46 -65c0 -36 29 -63 81 -63h153
c98 0 163 -47 164 -127zM249 454c-60 0 -116 -40 -116 -148s56 -148 116 -148s116 40 116 148s-56 148 -116 148zM66 -127c0 -57 53 -116 170 -116c126 0 200 57 200 133c0 58 -45 95 -131 95h-97c-88 -4 -142 -50 -142 -112z" />
    <glyph glyph-name="gcircumflex" unicode="&#x11d;" horiz-adv-x="527" 
d="M263 700l102 -160h-16l-107 95l-106 -95h-16l102 160h41zM495 -86c0 -96 -102 -177 -264 -179c-159 0 -220 65 -220 133c0 66 69 111 143 121c-69 5 -99 51 -99 91c0 36 25 80 76 97c-41 31 -66 77 -66 129c0 92 80 167 184 167c62 0 115 -26 148 -67c32 10 42 19 57 34
c12 13 24 23 40 23c14 0 33 -10 33 -33c0 -14 -11 -34 -35 -34c-22 0 -41 12 -86 -2c17 -26 27 -56 27 -88c0 -92 -80 -167 -184 -167c-40 0 -77 11 -106 30c-30 -13 -46 -41 -46 -65c0 -36 29 -63 81 -63h153c98 0 163 -47 164 -127zM249 454c-60 0 -116 -40 -116 -148
s56 -148 116 -148s116 40 116 148s-56 148 -116 148zM66 -127c0 -57 53 -116 170 -116c126 0 200 57 200 133c0 58 -45 95 -131 95h-97c-88 -4 -142 -50 -142 -112z" />
    <glyph glyph-name="gcommaaccent" unicode="&#x123;" horiz-adv-x="527" 
d="M140 621c0 69 58 139 141 139c13 0 26 -2 40 -5l-4 -15c-11 3 -24 4 -35 4c-72 0 -122 -63 -122 -122c0 -66 45 -95 76 -100c-12 13 -19 29 -19 43c0 26 19 49 49 49c28 0 49 -21 49 -49c0 -34 -33 -59 -70 -59c-45 0 -105 34 -105 115zM495 -86
c0 -96 -102 -177 -264 -179c-159 0 -220 65 -220 133c0 66 69 111 143 121c-69 5 -99 51 -99 91c0 36 25 80 76 97c-41 31 -66 77 -66 129c0 92 80 167 184 167c62 0 115 -26 148 -67c32 10 42 19 57 34c12 13 24 23 40 23c14 0 33 -10 33 -33c0 -14 -11 -34 -35 -34
c-22 0 -41 12 -86 -2c17 -26 27 -56 27 -88c0 -92 -80 -167 -184 -167c-40 0 -77 11 -106 30c-30 -13 -46 -41 -46 -65c0 -36 29 -63 81 -63h153c98 0 163 -47 164 -127zM249 454c-60 0 -116 -40 -116 -148s56 -148 116 -148s116 40 116 148s-56 148 -116 148zM66 -127
c0 -57 53 -116 170 -116c126 0 200 57 200 133c0 58 -45 95 -131 95h-97c-88 -4 -142 -50 -142 -112z" />
    <glyph glyph-name="gdotaccent" unicode="&#x121;" horiz-adv-x="527" 
d="M175 633c0 38 29 68 67 68s68 -30 68 -68s-30 -67 -68 -67s-67 29 -67 67zM495 -86c0 -96 -102 -177 -264 -179c-159 0 -220 65 -220 133c0 66 69 111 143 121c-69 5 -99 51 -99 91c0 36 25 80 76 97c-41 31 -66 77 -66 129c0 92 80 167 184 167c62 0 115 -26 148 -67
c32 10 42 19 57 34c12 13 24 23 40 23c14 0 33 -10 33 -33c0 -14 -11 -34 -35 -34c-22 0 -41 12 -86 -2c17 -26 27 -56 27 -88c0 -92 -80 -167 -184 -167c-40 0 -77 11 -106 30c-30 -13 -46 -41 -46 -65c0 -36 29 -63 81 -63h153c98 0 163 -47 164 -127zM249 454
c-60 0 -116 -40 -116 -148s56 -148 116 -148s116 40 116 148s-56 148 -116 148zM66 -127c0 -57 53 -116 170 -116c126 0 200 57 200 133c0 58 -45 95 -131 95h-97c-88 -4 -142 -50 -142 -112z" />
    <glyph glyph-name="hbar" unicode="&#x127;" horiz-adv-x="548" 
d="M224 10v-10h-196v10l63 22v539h-57v23h57v93l-82 13v10l131 42h11v-158h155v-23h-155v-169c44 33 127 71 184 71c82 0 119 -43 119 -112v-328l73 -23v-10h-196v10l63 22v329c0 51 -85 112 -243 32v-360z" />
    <glyph glyph-name="hcircumflex" unicode="&#x125;" horiz-adv-x="548" 
d="M294 952l102 -160h-16l-107 95l-106 -95h-16l102 160h41zM224 10v-10h-196v10l63 22v655l-82 13v10l131 42h11v-350c44 33 127 71 184 71c82 0 119 -43 119 -112v-328l73 -23v-10h-196v10l63 22v329c0 51 -85 112 -243 32v-360z" />
    <glyph glyph-name="iacute" unicode="&#xed;" horiz-adv-x="252" 
d="M123 540l82 160h104l-170 -160h-16zM222 10v-10h-186v10l63 22v374l-65 18v13c48 1 93 14 115 30h11l-1 -65v-370z" />
    <glyph glyph-name="icircumflex" unicode="&#xee;" horiz-adv-x="252" 
d="M144 700l102 -160h-16l-107 95l-106 -95h-16l102 160h41zM222 10v-10h-186v10l63 22v374l-65 18v13c48 1 93 14 115 30h11l-1 -65v-370z" />
    <glyph glyph-name="idieresis" unicode="&#xef;" horiz-adv-x="252" 
d="M-24 622c0 32 25 57 57 57s57 -25 57 -57s-25 -57 -57 -57s-57 25 -57 57zM158 622c0 32 25 57 57 57s57 -25 57 -57s-25 -57 -57 -57s-57 25 -57 57zM222 10v-10h-186v10l63 22v374l-65 18v13c48 1 93 14 115 30h11l-1 -65v-370z" />
    <glyph glyph-name="igrave" unicode="&#xec;" horiz-adv-x="252" 
d="M42 700l82 -160h-16l-170 160h104zM222 10v-10h-186v10l63 22v374l-65 18v13c48 1 93 14 115 30h11l-1 -65v-370z" />
    <glyph glyph-name="ibreve" unicode="&#x12d;" horiz-adv-x="252" 
d="M124 540c-102 0 -133 66 -123 140h16c0 -44 30 -75 107 -75s107 31 107 75h16c10 -74 -21 -140 -123 -140zM222 10v-10h-186v10l63 22v374l-65 18v13c48 1 93 14 115 30h11l-1 -65v-370z" />
    <glyph glyph-name="imacron" unicode="&#x12b;" horiz-adv-x="252" 
d="M-12 591v43h272v-43h-272zM222 10v-10h-186v10l63 22v374l-65 18v13c48 1 93 14 115 30h11l-1 -65v-370z" />
    <glyph glyph-name="iogonek" unicode="&#x12f;" horiz-adv-x="252" 
d="M177 652c0 -27 -21 -48 -48 -48c-26 0 -47 21 -47 48s21 48 47 48c27 0 48 -21 48 -48zM190 -202c-32 -13 -58 -19 -80 -19c-47 0 -72 27 -72 61c0 50 65 114 119 160h-121v10l63 22v374l-65 18v13c48 1 93 14 115 30h11l-1 -65v-370l63 -22v-10h-48
c-19 -20 -78 -87 -78 -146c0 -33 23 -49 56 -49c16 0 34 3 55 8z" />
    <glyph glyph-name="itilde" unicode="&#x129;" horiz-adv-x="252" 
d="M212 623c22 0 39 19 39 50h18c0 -69 -36 -101 -81 -101s-118 48 -149 48c-22 0 -39 -19 -39 -50h-18c0 69 36 101 81 101c40 0 103 -48 149 -48zM222 10v-10h-186v10l63 22v374l-65 18v13c48 1 93 14 115 30h11l-1 -65v-370z" />
    <glyph glyph-name="jcircumflex" unicode="&#x135;" horiz-adv-x="231" 
d="M141 700l102 -160h-16l-107 95l-106 -95h-16l102 160h41zM151 467l-1 -65v-379c0 -68 -17 -161 -76 -220c-37 -36 -97 -79 -176 -60c-54 12 25 80 46 59c58 -63 146 -7 146 174v430l-65 18v13c48 1 93 14 115 30h11z" />
    <glyph glyph-name="ij" unicode="&#x133;" horiz-adv-x="470" 
d="M177 652c0 -27 -21 -48 -48 -48c-26 0 -47 21 -47 48s21 48 47 48c27 0 48 -21 48 -48zM407 652c0 -27 -21 -48 -48 -48c-26 0 -47 21 -47 48s21 48 47 48c27 0 48 -21 48 -48zM222 10v-10h-186v10l63 22v374l-65 18v13c48 1 93 14 115 30h11l-1 -65v-370zM390 467
l-1 -65v-379c0 -68 -17 -161 -76 -220c-37 -36 -97 -79 -176 -60c-54 12 25 80 46 59c58 -63 146 -7 146 174v430l-65 18v13c48 1 93 14 115 30h11z" />
    <glyph glyph-name="kcommaaccent" unicode="&#x137;" horiz-adv-x="496" 
d="M224 10v-10h-196v10l63 22v655l-82 13v10l131 42h11v-490h30l158 163l-77 23v10h199v-10l-66 -22l-168 -154l215 -241l71 -20v-11h-203v11l62 14l-188 215h-33v-207zM351 -174c0 -69 -58 -139 -141 -139c-13 0 -26 2 -40 5l4 15c11 -3 24 -4 35 -4c72 0 122 63 122 122
c0 66 -45 95 -76 100c12 -13 19 -29 19 -43c0 -26 -19 -49 -49 -49c-28 0 -49 21 -49 49c0 34 33 59 70 59c45 0 105 -34 105 -115z" />
    <glyph glyph-name="kgreenlandic" unicode="&#x138;" horiz-adv-x="512" 
d="M230 10v-10h-196v10l63 22v394l-63 22v10h196v-10l-73 -23v-180h53l169 180l-81 23v10h197v-10l-64 -22l-180 -176l208 -219l63 -20v-11h-203v11l65 14l-183 198h-44v-190z" />
    <glyph glyph-name="lacute" unicode="&#x13a;" horiz-adv-x="246" 
d="M123 792l82 160h104l-170 -160h-16zM216 10v-10h-186v10l63 22v655l-82 13v10l131 42h11v-720z" />
    <glyph glyph-name="lcaron" unicode="&#x13e;" horiz-adv-x="274" 
d="M216 10v-10h-186v10l63 22v655l-82 13v10l131 42h11v-720zM389 600c0 -69 -58 -139 -141 -139c-13 0 -26 2 -40 5l4 15c11 -3 24 -4 35 -4c72 0 122 63 122 122c0 66 -45 95 -76 100c12 -13 19 -29 19 -43c0 -26 -19 -49 -49 -49c-28 0 -49 21 -49 49c0 34 33 59 70 59
c45 0 105 -34 105 -115z" />
    <glyph glyph-name="lcommaaccent" unicode="&#x13c;" horiz-adv-x="246" 
d="M216 10v-10h-186v10l63 22v655l-82 13v10l131 42h11v-720zM214 -174c0 -69 -58 -139 -141 -139c-13 0 -26 2 -40 5l4 15c11 -3 24 -4 35 -4c72 0 122 63 122 122c0 66 -45 95 -76 100c12 -13 19 -29 19 -43c0 -26 -19 -49 -49 -49c-28 0 -49 21 -49 49c0 34 33 59 70 59
c45 0 105 -34 105 -115z" />
    <glyph glyph-name="ldot" unicode="&#x140;" horiz-adv-x="290" 
d="M216 10v-10h-186v10l63 22v655l-82 13v10l131 42h11v-720zM268 197c-29 0 -52 22 -52 52c0 29 23 52 52 52s53 -23 53 -52c0 -30 -24 -52 -53 -52z" />
    <glyph glyph-name="ntilde" unicode="&#xf1;" horiz-adv-x="552" 
d="M361 623c22 0 39 19 39 50h18c0 -69 -36 -101 -81 -101s-118 48 -149 48c-22 0 -39 -19 -39 -50h-18c0 69 36 101 81 101c40 0 103 -48 149 -48zM230 10v-10h-196v10l63 22v374l-65 18v13c48 1 93 14 115 30h11l-1 -65c53 38 122 71 179 71c82 0 122 -43 122 -112v-328
l73 -23v-10h-196v10l63 22v329c0 51 -83 109 -241 29v-357z" />
    <glyph glyph-name="nacute" unicode="&#x144;" horiz-adv-x="552" 
d="M273 540l82 160h104l-170 -160h-16zM230 10v-10h-196v10l63 22v374l-65 18v13c48 1 93 14 115 30h11l-1 -65c53 38 122 71 179 71c82 0 122 -43 122 -112v-328l73 -23v-10h-196v10l63 22v329c0 51 -83 109 -241 29v-357z" />
    <glyph glyph-name="ncaron" unicode="&#x148;" horiz-adv-x="552" 
d="M293 540h-41l-102 160h16l106 -95l107 95h16zM230 10v-10h-196v10l63 22v374l-65 18v13c48 1 93 14 115 30h11l-1 -65c53 38 122 71 179 71c82 0 122 -43 122 -112v-328l73 -23v-10h-196v10l63 22v329c0 51 -83 109 -241 29v-357z" />
    <glyph glyph-name="ncommaaccent" unicode="&#x146;" horiz-adv-x="552" 
d="M230 10v-10h-196v10l63 22v374l-65 18v13c48 1 93 14 115 30h11l-1 -65c53 38 122 71 179 71c82 0 122 -43 122 -112v-328l73 -23v-10h-196v10l63 22v329c0 51 -83 109 -241 29v-357zM363 -174c0 -69 -58 -139 -141 -139c-13 0 -26 2 -40 5l4 15c11 -3 24 -4 35 -4
c72 0 122 63 122 122c0 66 -45 95 -76 100c12 -13 19 -29 19 -43c0 -26 -19 -49 -49 -49c-28 0 -49 21 -49 49c0 34 33 59 70 59c45 0 105 -34 105 -115z" />
    <glyph glyph-name="eng" unicode="&#x14b;" horiz-adv-x="552" 
d="M336 473c82 0 122 -43 122 -112v-328l73 -23v-10h-74c-3 -65 -22 -144 -75 -197c-37 -36 -97 -79 -176 -60c-54 12 25 80 46 59c58 -63 146 -7 146 174v24h-63v10l63 22v329c0 51 -83 109 -241 29v-357l73 -23v-10h-196v10l63 22v374l-65 18v13c48 1 93 14 115 30h11
l-1 -65c53 38 122 71 179 71z" />
    <glyph glyph-name="napostrophe" unicode="&#x149;" horiz-adv-x="552" 
d="M210 660c0 -69 -58 -139 -141 -139c-13 0 -26 2 -40 5l4 15c11 -3 24 -4 35 -4c72 0 122 63 122 122c0 66 -45 95 -76 100c12 -13 19 -29 19 -43c0 -26 -19 -49 -49 -49c-28 0 -49 21 -49 49c0 34 33 59 70 59c45 0 105 -34 105 -115zM230 10v-10h-196v10l63 22v374
l-65 18v13c48 1 93 14 115 30h11l-1 -65c53 38 122 71 179 71c82 0 122 -43 122 -112v-328l73 -23v-10h-196v10l63 22v329c0 51 -83 109 -241 29v-357z" />
    <glyph glyph-name="oacute" unicode="&#xf3;" horiz-adv-x="553" 
d="M277 540l82 160h104l-170 -160h-16zM276 -15c-142 0 -233 117 -233 244s91 244 233 244c143 0 234 -117 234 -244s-91 -244 -234 -244zM276 7c102 0 166 95 166 222s-64 222 -166 222c-101 0 -165 -95 -165 -222s64 -222 165 -222z" />
    <glyph glyph-name="ocircumflex" unicode="&#xf4;" horiz-adv-x="553" 
d="M297 700l102 -160h-16l-107 95l-106 -95h-16l102 160h41zM276 -15c-142 0 -233 117 -233 244s91 244 233 244c143 0 234 -117 234 -244s-91 -244 -234 -244zM276 7c102 0 166 95 166 222s-64 222 -166 222c-101 0 -165 -95 -165 -222s64 -222 165 -222z" />
    <glyph glyph-name="odieresis" unicode="&#xf6;" horiz-adv-x="553" 
d="M129 622c0 32 25 57 57 57s57 -25 57 -57s-25 -57 -57 -57s-57 25 -57 57zM311 622c0 32 25 57 57 57s57 -25 57 -57s-25 -57 -57 -57s-57 25 -57 57zM276 -15c-142 0 -233 117 -233 244s91 244 233 244c143 0 234 -117 234 -244s-91 -244 -234 -244zM276 7
c102 0 166 95 166 222s-64 222 -166 222c-101 0 -165 -95 -165 -222s64 -222 165 -222z" />
    <glyph glyph-name="ograve" unicode="&#xf2;" horiz-adv-x="553" 
d="M195 700l82 -160h-16l-170 160h104zM276 -15c-142 0 -233 117 -233 244s91 244 233 244c143 0 234 -117 234 -244s-91 -244 -234 -244zM276 7c102 0 166 95 166 222s-64 222 -166 222c-101 0 -165 -95 -165 -222s64 -222 165 -222z" />
    <glyph glyph-name="otilde" unicode="&#xf5;" horiz-adv-x="553" 
d="M365 623c22 0 39 19 39 50h18c0 -69 -36 -101 -81 -101s-118 48 -149 48c-22 0 -39 -19 -39 -50h-18c0 69 36 101 81 101c40 0 103 -48 149 -48zM276 -15c-142 0 -233 117 -233 244s91 244 233 244c143 0 234 -117 234 -244s-91 -244 -234 -244zM276 7
c102 0 166 95 166 222s-64 222 -166 222c-101 0 -165 -95 -165 -222s64 -222 165 -222z" />
    <glyph glyph-name="obreve" unicode="&#x14f;" horiz-adv-x="553" 
d="M277 540c-102 0 -133 66 -123 140h16c0 -44 30 -75 107 -75s107 31 107 75h16c10 -74 -21 -140 -123 -140zM276 -15c-142 0 -233 117 -233 244s91 244 233 244c143 0 234 -117 234 -244s-91 -244 -234 -244zM276 7c102 0 166 95 166 222s-64 222 -166 222
c-101 0 -165 -95 -165 -222s64 -222 165 -222z" />
    <glyph glyph-name="ohungarumlaut" unicode="&#x151;" horiz-adv-x="553" 
d="M177 540l82 160h104l-170 -160h-16zM355 540l82 160h104l-170 -160h-16zM276 -15c-142 0 -233 117 -233 244s91 244 233 244c143 0 234 -117 234 -244s-91 -244 -234 -244zM276 7c102 0 166 95 166 222s-64 222 -166 222c-101 0 -165 -95 -165 -222s64 -222 165 -222z
" />
    <glyph glyph-name="omacron" unicode="&#x14d;" horiz-adv-x="553" 
d="M141 591v43h272v-43h-272zM276 -15c-142 0 -233 117 -233 244s91 244 233 244c143 0 234 -117 234 -244s-91 -244 -234 -244zM276 7c102 0 166 95 166 222s-64 222 -166 222c-101 0 -165 -95 -165 -222s64 -222 165 -222z" />
    <glyph glyph-name="racute" unicode="&#x155;" horiz-adv-x="360" 
d="M181 540l82 160h104l-170 -160h-16zM244 10v-10h-211v10l65 22v374l-65 18v13c48 1 93 14 115 30h11l-2 -96c40 51 91 95 137 95c36 0 55 -19 55 -38c0 -20 -15 -39 -32 -39c-20 0 -34 31 -60 31c-28 0 -62 -28 -99 -66v-321z" />
    <glyph glyph-name="rcaron" unicode="&#x159;" horiz-adv-x="360" 
d="M202 540h-41l-102 160h16l106 -95l107 95h16zM244 10v-10h-211v10l65 22v374l-65 18v13c48 1 93 14 115 30h11l-2 -96c40 51 91 95 137 95c36 0 55 -19 55 -38c0 -20 -15 -39 -32 -39c-20 0 -34 31 -60 31c-28 0 -62 -28 -99 -66v-321z" />
    <glyph glyph-name="rcommaaccent" unicode="&#x157;" horiz-adv-x="360" 
d="M244 10v-10h-211v10l65 22v374l-65 18v13c48 1 93 14 115 30h11l-2 -96c40 51 91 95 137 95c36 0 55 -19 55 -38c0 -20 -15 -39 -32 -39c-20 0 -34 31 -60 31c-28 0 -62 -28 -99 -66v-321zM222 -174c0 -69 -58 -139 -141 -139c-13 0 -26 2 -40 5l4 15c11 -3 24 -4 35 -4
c72 0 122 63 122 122c0 66 -45 95 -76 100c12 -13 19 -29 19 -43c0 -26 -19 -49 -49 -49c-28 0 -49 21 -49 49c0 34 33 59 70 59c45 0 105 -34 105 -115z" />
    <glyph glyph-name="scaron" unicode="&#x161;" horiz-adv-x="408" 
d="M216 540h-41l-102 160h16l106 -95l107 95h16zM49 15l-7 120l14 2c26 -87 78 -131 144 -131c65 0 113 39 113 101c0 44 -29 70 -76 89l-78 32c-62 25 -99 59 -99 118c0 69 60 127 151 127c63 0 88 -20 132 -16v-104l-13 -2c-30 66 -61 102 -121 102c-52 0 -95 -35 -95 -86
c0 -39 22 -65 73 -86l76 -31c53 -22 105 -54 105 -123c0 -75 -69 -142 -170 -142c-71 0 -126 29 -149 30z" />
    <glyph glyph-name="sacute" unicode="&#x15b;" horiz-adv-x="408" 
d="M195 540l82 160h104l-170 -160h-16zM49 15l-7 120l14 2c26 -87 78 -131 144 -131c65 0 113 39 113 101c0 44 -29 70 -76 89l-78 32c-62 25 -99 59 -99 118c0 69 60 127 151 127c63 0 88 -20 132 -16v-104l-13 -2c-30 66 -61 102 -121 102c-52 0 -95 -35 -95 -86
c0 -39 22 -65 73 -86l76 -31c53 -22 105 -54 105 -123c0 -75 -69 -142 -170 -142c-71 0 -126 29 -149 30z" />
    <glyph glyph-name="scedilla" unicode="&#x15f;" horiz-adv-x="408" 
d="M285 -142c0 -54 -48 -89 -104 -89c-58 0 -93 25 -93 52c0 15 14 29 29 29c22 0 25 -11 34 -33c7 -18 19 -32 38 -32c23 0 44 18 44 45c0 60 -93 75 -114 77l68 78c-66 3 -116 29 -138 30l-7 120l14 2c26 -87 78 -131 144 -131c65 0 113 39 113 101c0 44 -29 70 -76 89
l-78 32c-62 25 -99 59 -99 118c0 69 60 127 151 127c63 0 88 -20 132 -16v-104l-13 -2c-30 66 -61 102 -121 102c-52 0 -95 -35 -95 -86c0 -39 22 -65 73 -86l76 -31c53 -22 105 -54 105 -123c0 -72 -64 -137 -159 -142l-26 -40c69 -12 102 -51 102 -87z" />
    <glyph glyph-name="scircumflex" unicode="&#x15d;" horiz-adv-x="408" 
d="M216 700l102 -160h-16l-107 95l-106 -95h-16l102 160h41zM49 15l-7 120l14 2c26 -87 78 -131 144 -131c65 0 113 39 113 101c0 44 -29 70 -76 89l-78 32c-62 25 -99 59 -99 118c0 69 60 127 151 127c63 0 88 -20 132 -16v-104l-13 -2c-30 66 -61 102 -121 102
c-52 0 -95 -35 -95 -86c0 -39 22 -65 73 -86l76 -31c53 -22 105 -54 105 -123c0 -75 -69 -142 -170 -142c-71 0 -126 29 -149 30z" />
    <glyph glyph-name="scommaaccent" unicode="&#x219;" horiz-adv-x="408" 
d="M49 15l-7 120l14 2c26 -87 78 -131 144 -131c65 0 113 39 113 101c0 44 -29 70 -76 89l-78 32c-62 25 -99 59 -99 118c0 69 60 127 151 127c63 0 88 -20 132 -16v-104l-13 -2c-30 66 -61 102 -121 102c-52 0 -95 -35 -95 -86c0 -39 22 -65 73 -86l76 -31
c53 -22 105 -54 105 -123c0 -75 -69 -142 -170 -142c-71 0 -126 29 -149 30zM295 -174c0 -69 -58 -139 -141 -139c-13 0 -26 2 -40 5l4 15c11 -3 24 -4 35 -4c72 0 122 63 122 122c0 66 -45 95 -76 100c12 -13 19 -29 19 -43c0 -26 -19 -49 -49 -49c-28 0 -49 21 -49 49
c0 34 33 59 70 59c45 0 105 -34 105 -115z" />
    <glyph glyph-name="tbar" unicode="&#x167;" horiz-adv-x="329" 
d="M320 74c-10 -36 -50 -85 -123 -85c-76 0 -104 46 -104 76v185h-50v23h50v149h-50v2l102 144h8v-110h154l-21 -36h-133v-149h122v-23h-122v-152c0 -35 15 -67 78 -67c35 0 68 19 79 45z" />
    <glyph glyph-name="tcaron" unicode="&#x165;" horiz-adv-x="327" 
d="M382 645c0 -69 -58 -139 -141 -139c-13 0 -26 2 -40 5l4 15c11 -3 24 -4 35 -4c72 0 122 63 122 122c0 66 -45 95 -76 100c12 -13 19 -29 19 -43c0 -26 -19 -49 -49 -49c-28 0 -49 21 -49 49c0 34 33 59 70 59c45 0 105 -34 105 -115zM309 76l10 -2
c-10 -36 -50 -85 -123 -85c-76 0 -104 46 -104 76v357h-50v2l102 144h8v-110h154l-21 -36h-133v-324c0 -35 15 -67 78 -67c35 0 68 19 79 45z" />
    <glyph glyph-name="tcommaaccent" unicode="&#x163;" horiz-adv-x="327" 
d="M309 76l10 -2c-10 -36 -50 -85 -123 -85c-76 0 -104 46 -104 76v357h-50v2l102 144h8v-110h154l-21 -36h-133v-324c0 -35 15 -67 78 -67c35 0 68 19 79 45zM287 -174c0 -69 -58 -139 -141 -139c-13 0 -26 2 -40 5l4 15c11 -3 24 -4 35 -4c72 0 122 63 122 122
c0 66 -45 95 -76 100c12 -13 19 -29 19 -43c0 -26 -19 -49 -49 -49c-28 0 -49 21 -49 49c0 34 33 59 70 59c45 0 105 -34 105 -115z" />
    <glyph glyph-name="uni021B" unicode="&#x21b;" horiz-adv-x="327" 
d="M309 76l10 -2c-10 -36 -50 -85 -123 -85c-76 0 -104 46 -104 76v357h-50v2l102 144h8v-110h154l-21 -36h-133v-324c0 -35 15 -67 78 -67c35 0 68 19 79 45zM287 -174c0 -69 -58 -139 -141 -139c-13 0 -26 2 -40 5l4 15c11 -3 24 -4 35 -4c72 0 122 63 122 122
c0 66 -45 95 -76 100c12 -13 19 -29 19 -43c0 -26 -19 -49 -49 -49c-28 0 -49 21 -49 49c0 34 33 59 70 59c45 0 105 -34 105 -115z" />
    <glyph glyph-name="uacute" unicode="&#xfa;" horiz-adv-x="538" 
d="M262 540l82 160h104l-170 -160h-16zM383 406l-66 18v13c48 1 95 14 117 30h11c-3 -73 -2 -137 -2 -195v-227l72 -9v-13c-43 -5 -88 -17 -124 -32h-7v99c-47 -77 -114 -105 -165 -105c-81 0 -130 49 -130 128v293l-65 18v13c48 1 93 14 115 30h10v-347
c0 -57 41 -93 96 -93c47 0 88 20 138 71v308z" />
    <glyph glyph-name="ucircumflex" unicode="&#xfb;" horiz-adv-x="538" 
d="M283 700l102 -160h-16l-107 95l-106 -95h-16l102 160h41zM383 406l-66 18v13c48 1 95 14 117 30h11c-3 -73 -2 -137 -2 -195v-227l72 -9v-13c-43 -5 -88 -17 -124 -32h-7v99c-47 -77 -114 -105 -165 -105c-81 0 -130 49 -130 128v293l-65 18v13c48 1 93 14 115 30h10
v-347c0 -57 41 -93 96 -93c47 0 88 20 138 71v308z" />
    <glyph glyph-name="udieresis" unicode="&#xfc;" horiz-adv-x="538" 
d="M114 622c0 32 25 57 57 57s57 -25 57 -57s-25 -57 -57 -57s-57 25 -57 57zM296 622c0 32 25 57 57 57s57 -25 57 -57s-25 -57 -57 -57s-57 25 -57 57zM383 406l-66 18v13c48 1 95 14 117 30h11c-3 -73 -2 -137 -2 -195v-227l72 -9v-13c-43 -5 -88 -17 -124 -32h-7v99
c-47 -77 -114 -105 -165 -105c-81 0 -130 49 -130 128v293l-65 18v13c48 1 93 14 115 30h10v-347c0 -57 41 -93 96 -93c47 0 88 20 138 71v308z" />
    <glyph glyph-name="ugrave" unicode="&#xf9;" horiz-adv-x="538" 
d="M180 700l82 -160h-16l-170 160h104zM383 406l-66 18v13c48 1 95 14 117 30h11c-3 -73 -2 -137 -2 -195v-227l72 -9v-13c-43 -5 -88 -17 -124 -32h-7v99c-47 -77 -114 -105 -165 -105c-81 0 -130 49 -130 128v293l-65 18v13c48 1 93 14 115 30h10v-347
c0 -57 41 -93 96 -93c47 0 88 20 138 71v308z" />
    <glyph glyph-name="ubreve" unicode="&#x16d;" horiz-adv-x="538" 
d="M262 540c-102 0 -133 66 -123 140h16c0 -44 30 -75 107 -75s107 31 107 75h16c10 -74 -21 -140 -123 -140zM383 406l-66 18v13c48 1 95 14 117 30h11c-3 -73 -2 -137 -2 -195v-227l72 -9v-13c-43 -5 -88 -17 -124 -32h-7v99c-47 -77 -114 -105 -165 -105
c-81 0 -130 49 -130 128v293l-65 18v13c48 1 93 14 115 30h10v-347c0 -57 41 -93 96 -93c47 0 88 20 138 71v308z" />
    <glyph glyph-name="uhungarumlaut" unicode="&#x171;" horiz-adv-x="538" 
d="M171 540l82 160h104l-170 -160h-16zM349 540l82 160h104l-170 -160h-16zM383 406l-66 18v13c48 1 95 14 117 30h11c-3 -73 -2 -137 -2 -195v-227l72 -9v-13c-43 -5 -88 -17 -124 -32h-7v99c-47 -77 -114 -105 -165 -105c-81 0 -130 49 -130 128v293l-65 18v13
c48 1 93 14 115 30h10v-347c0 -57 41 -93 96 -93c47 0 88 20 138 71v308z" />
    <glyph glyph-name="umacron" unicode="&#x16b;" horiz-adv-x="538" 
d="M126 591v43h272v-43h-272zM383 406l-66 18v13c48 1 95 14 117 30h11c-3 -73 -2 -137 -2 -195v-227l72 -9v-13c-43 -5 -88 -17 -124 -32h-7v99c-47 -77 -114 -105 -165 -105c-81 0 -130 49 -130 128v293l-65 18v13c48 1 93 14 115 30h10v-347c0 -57 41 -93 96 -93
c47 0 88 20 138 71v308z" />
    <glyph glyph-name="uogonek" unicode="&#x173;" horiz-adv-x="538" 
d="M418 -202c-32 -13 -58 -19 -80 -19c-47 0 -72 27 -72 61c0 50 64 113 118 159v91c-47 -77 -114 -105 -165 -105c-81 0 -130 49 -130 128v293l-65 18v13c48 1 93 14 115 30h10v-347c0 -57 41 -93 96 -93c47 0 88 20 138 71v308l-66 18v13c48 1 95 14 117 30h11
c-3 -73 -2 -137 -2 -195v-227l72 -9v-13c-43 -5 -88 -17 -120 -30c-23 -26 -71 -85 -71 -139c0 -33 23 -49 56 -49c16 0 34 3 55 8z" />
    <glyph glyph-name="uring" unicode="&#x16f;" horiz-adv-x="538" 
d="M161 638c0 56 45 101 101 101s101 -45 101 -101s-45 -101 -101 -101s-101 45 -101 101zM187 638c0 -45 33 -78 75 -78c41 0 75 33 75 78c0 43 -34 78 -75 78c-42 0 -75 -35 -75 -78zM383 406l-66 18v13c48 1 95 14 117 30h11c-3 -73 -2 -137 -2 -195v-227l72 -9v-13
c-43 -5 -88 -17 -124 -32h-7v99c-47 -77 -114 -105 -165 -105c-81 0 -130 49 -130 128v293l-65 18v13c48 1 93 14 115 30h10v-347c0 -57 41 -93 96 -93c47 0 88 20 138 71v308z" />
    <glyph glyph-name="utilde" unicode="&#x169;" horiz-adv-x="538" 
d="M351 623c22 0 39 19 39 50h18c0 -69 -36 -101 -81 -101s-118 48 -149 48c-22 0 -39 -19 -39 -50h-18c0 69 36 101 81 101c40 0 103 -48 149 -48zM383 406l-66 18v13c48 1 95 14 117 30h11c-3 -73 -2 -137 -2 -195v-227l72 -9v-13c-43 -5 -88 -17 -124 -32h-7v99
c-47 -77 -114 -105 -165 -105c-81 0 -130 49 -130 128v293l-65 18v13c48 1 93 14 115 30h10v-347c0 -57 41 -93 96 -93c47 0 88 20 138 71v308z" />
    <glyph glyph-name="wacute" unicode="&#x1e83;" horiz-adv-x="770" 
d="M385 540l82 160h104l-170 -160h-16zM519 -5l-137 346l-130 -346h-23l-171 431l-54 22v10h209v-10l-92 -21l139 -357l111 299l-23 57l-54 22v10h209v-10l-92 -21l139 -357l130 359l-79 19v10h165v-10l-53 -22l-171 -431h-23z" />
    <glyph glyph-name="wcircumflex" unicode="&#x175;" horiz-adv-x="770" 
d="M405 700l102 -160h-16l-107 95l-106 -95h-16l102 160h41zM519 -5l-137 346l-130 -346h-23l-171 431l-54 22v10h209v-10l-92 -21l139 -357l111 299l-23 57l-54 22v10h209v-10l-92 -21l139 -357l130 359l-79 19v10h165v-10l-53 -22l-171 -431h-23z" />
    <glyph glyph-name="wdieresis" unicode="&#x1e85;" horiz-adv-x="770" 
d="M237 622c0 32 25 57 57 57s57 -25 57 -57s-25 -57 -57 -57s-57 25 -57 57zM419 622c0 32 25 57 57 57s57 -25 57 -57s-25 -57 -57 -57s-57 25 -57 57zM519 -5l-137 346l-130 -346h-23l-171 431l-54 22v10h209v-10l-92 -21l139 -357l111 299l-23 57l-54 22v10h209v-10
l-92 -21l139 -357l130 359l-79 19v10h165v-10l-53 -22l-171 -431h-23z" />
    <glyph glyph-name="wgrave" unicode="&#x1e81;" horiz-adv-x="770" 
d="M303 700l82 -160h-16l-170 160h104zM519 -5l-137 346l-130 -346h-23l-171 431l-54 22v10h209v-10l-92 -21l139 -357l111 299l-23 57l-54 22v10h209v-10l-92 -21l139 -357l130 359l-79 19v10h165v-10l-53 -22l-171 -431h-23z" />
    <glyph glyph-name="yacute" unicode="&#xfd;" horiz-adv-x="504" 
d="M264 540l82 160h104l-170 -160h-16zM7 448v10h212v-10l-84 -23l142 -326l134 328l-65 21v10h154v-10l-53 -20l-221 -502c-70 -159 -110 -191 -153 -191c-27 0 -51 17 -51 43c0 21 13 41 36 41c12 0 31 -20 47 -20c27 0 53 34 116 174l25 55l-176 397z" />
    <glyph glyph-name="ydieresis" unicode="&#xff;" horiz-adv-x="504" 
d="M116 622c0 32 25 57 57 57s57 -25 57 -57s-25 -57 -57 -57s-57 25 -57 57zM298 622c0 32 25 57 57 57s57 -25 57 -57s-25 -57 -57 -57s-57 25 -57 57zM7 448v10h212v-10l-84 -23l142 -326l134 328l-65 21v10h154v-10l-53 -20l-221 -502c-70 -159 -110 -191 -153 -191
c-27 0 -51 17 -51 43c0 21 13 41 36 41c12 0 31 -20 47 -20c27 0 53 34 116 174l25 55l-176 397z" />
    <glyph glyph-name="ycircumflex" unicode="&#x177;" horiz-adv-x="504" 
d="M284 700l102 -160h-16l-107 95l-106 -95h-16l102 160h41zM7 448v10h212v-10l-84 -23l142 -326l134 328l-65 21v10h154v-10l-53 -20l-221 -502c-70 -159 -110 -191 -153 -191c-27 0 -51 17 -51 43c0 21 13 41 36 41c12 0 31 -20 47 -20c27 0 53 34 116 174l25 55l-176 397
z" />
    <glyph glyph-name="ygrave" unicode="&#x1ef3;" horiz-adv-x="504" 
d="M182 700l82 -160h-16l-170 160h104zM7 448v10h212v-10l-84 -23l142 -326l134 328l-65 21v10h154v-10l-53 -20l-221 -502c-70 -159 -110 -191 -153 -191c-27 0 -51 17 -51 43c0 21 13 41 36 41c12 0 31 -20 47 -20c27 0 53 34 116 174l25 55l-176 397z" />
    <glyph glyph-name="zcaron" unicode="&#x17e;" horiz-adv-x="457" 
d="M238 540h-41l-102 160h16l106 -95l107 95h16zM441 114l-44 -114h-366v5l296 430h-213l-52 -98l-13 2l7 119h350v-5l-296 -430h227l93 100z" />
    <glyph glyph-name="zacute" unicode="&#x17a;" horiz-adv-x="457" 
d="M218 540l82 160h104l-170 -160h-16zM441 114l-44 -114h-366v5l296 430h-213l-52 -98l-13 2l7 119h350v-5l-296 -430h227l93 100z" />
    <glyph glyph-name="zdotaccent" unicode="&#x17c;" horiz-adv-x="457" 
d="M150 633c0 38 29 68 67 68s68 -30 68 -68s-30 -67 -68 -67s-67 29 -67 67zM441 114l-44 -114h-366v5l296 430h-213l-52 -98l-13 2l7 119h350v-5l-296 -430h227l93 100z" />
    <glyph glyph-name="acute" unicode="&#xb4;" horiz-adv-x="332" 
d="M94 540l82 160h104l-170 -160h-16z" />
    <glyph glyph-name="grave" unicode="`" horiz-adv-x="332" 
d="M156 700l82 -160h-16l-170 160h104z" />
    <glyph glyph-name="circumflex" unicode="&#x2c6;" horiz-adv-x="417" 
d="M229 700l102 -160h-16l-107 95l-106 -95h-16l102 160h41z" />
    <glyph glyph-name="caron" unicode="&#x2c7;" horiz-adv-x="407" 
d="M224 540h-41l-102 160h16l106 -95l107 95h16z" />
    <glyph glyph-name="tilde" unicode="&#x2dc;" horiz-adv-x="513" 
d="M345 623c22 0 39 19 39 50h18c0 -69 -36 -101 -81 -101s-118 48 -149 48c-22 0 -39 -19 -39 -50h-18c0 69 36 101 81 101c40 0 103 -48 149 -48z" />
    <glyph glyph-name="dieresis" unicode="&#xa8;" horiz-adv-x="514" 
d="M109 622c0 32 25 57 57 57s57 -25 57 -57s-25 -57 -57 -57s-57 25 -57 57zM291 622c0 32 25 57 57 57s57 -25 57 -57s-25 -57 -57 -57s-57 25 -57 57z" />
    <glyph glyph-name="ring" unicode="&#x2da;" horiz-adv-x="422" 
d="M110 638c0 56 45 101 101 101s101 -45 101 -101s-45 -101 -101 -101s-101 45 -101 101zM136 638c0 -45 33 -78 75 -78c41 0 75 33 75 78c0 43 -34 78 -75 78c-42 0 -75 -35 -75 -78z" />
    <glyph glyph-name="cedilla" unicode="&#xb8;" horiz-adv-x="350" 
d="M255 -142c0 -54 -48 -89 -104 -89c-58 0 -93 25 -93 52c0 15 14 29 29 29c22 0 25 -11 34 -33c7 -18 19 -32 38 -32c23 0 44 18 44 45c0 60 -93 75 -114 77l84 97l17 -2l-37 -57c69 -12 102 -51 102 -87z" />
    <glyph glyph-name="hungarumlaut" unicode="&#x2dd;" horiz-adv-x="530" 
d="M94 540l82 160h104l-170 -160h-16zM272 540l82 160h104l-170 -160h-16z" />
    <glyph glyph-name="breve" unicode="&#x2d8;" horiz-adv-x="476" 
d="M238 540c-102 0 -133 66 -123 140h16c0 -44 30 -75 107 -75s107 31 107 75h16c10 -74 -21 -140 -123 -140z" />
    <glyph glyph-name="macron" unicode="&#xaf;" horiz-adv-x="532" 
d="M130 591v43h272v-43h-272z" />
    <glyph glyph-name="dotaccent" unicode="&#x2d9;" horiz-adv-x="369" 
d="M117 633c0 38 29 68 67 68s68 -30 68 -68s-30 -67 -68 -67s-67 29 -67 67z" />
    <glyph glyph-name="periodcentered" unicode="&#xb7;" horiz-adv-x="241" 
d="M120 309c-29 0 -52 22 -52 52c0 29 23 52 52 52s53 -23 53 -52c0 -30 -24 -52 -53 -52z" />
    <glyph glyph-name="ogonek" unicode="&#x2db;" horiz-adv-x="339" 
d="M238 12h9l-1 -6s-84 -81 -84 -152c0 -33 23 -49 56 -49c16 0 34 3 55 8l-17 -15c-32 -13 -58 -19 -80 -19c-47 0 -72 27 -72 61c0 55 77 126 134 172z" />
    <glyph glyph-name="commaaccent" unicode="&#xf6c3;" horiz-adv-x="331" 
d="M256 -174c0 -69 -58 -139 -141 -139c-13 0 -26 2 -40 5l4 15c11 -3 24 -4 35 -4c72 0 122 63 122 122c0 66 -45 95 -76 100c12 -13 19 -29 19 -43c0 -26 -19 -49 -49 -49c-28 0 -49 21 -49 49c0 34 33 59 70 59c45 0 105 -34 105 -115z" />
    <glyph glyph-name="caron.alt" horiz-adv-x="331" 
d="M256 600c0 -69 -58 -139 -141 -139c-13 0 -26 2 -40 5l4 15c11 -3 24 -4 35 -4c72 0 122 63 122 122c0 66 -45 95 -76 100c12 -13 19 -29 19 -43c0 -26 -19 -49 -49 -49c-28 0 -49 21 -49 49c0 34 33 59 70 59c45 0 105 -34 105 -115z" />
    <glyph glyph-name="revcommaaccent" horiz-adv-x="331" 
d="M75 576c0 69 58 139 141 139c13 0 26 -2 40 -5l-4 -15c-11 3 -24 4 -35 4c-72 0 -122 -63 -122 -122c0 -66 45 -95 76 -100c-12 13 -19 29 -19 43c0 26 19 49 49 49c28 0 49 -21 49 -49c0 -34 -33 -59 -70 -59c-45 0 -105 34 -105 115z" />
    <glyph glyph-name="apostrophemod" unicode="&#x2bc;" horiz-adv-x="331" 
d="M256 600c0 -69 -58 -139 -141 -139c-13 0 -26 2 -40 5l4 15c11 -3 24 -4 35 -4c72 0 122 63 122 122c0 66 -45 95 -76 100c12 -13 19 -29 19 -43c0 -26 -19 -49 -49 -49c-28 0 -49 21 -49 49c0 34 33 59 70 59c45 0 105 -34 105 -115z" />
    <glyph glyph-name="period" unicode="." horiz-adv-x="238" 
d="M119 -15c-31 0 -57 26 -57 57s26 57 57 57s57 -26 57 -57s-26 -57 -57 -57z" />
    <glyph glyph-name="comma" unicode="," horiz-adv-x="302" 
d="M253 -24c0 -77 -65 -154 -157 -154c-14 0 -29 2 -44 5l4 17c13 -3 27 -4 39 -4c80 0 136 69 136 135c0 73 -50 106 -85 111c14 -14 21 -32 21 -48c0 -29 -21 -54 -54 -54c-31 0 -54 23 -54 54c0 38 36 66 77 66c50 0 117 -38 117 -128z" />
    <glyph glyph-name="colon" unicode=":" horiz-adv-x="248" 
d="M124 355c-31 0 -57 26 -57 57s26 57 57 57s57 -26 57 -57s-26 -57 -57 -57zM124 -15c-31 0 -57 26 -57 57s26 57 57 57s57 -26 57 -57s-26 -57 -57 -57z" />
    <glyph glyph-name="semicolon" unicode=";" horiz-adv-x="312" 
d="M129 355c-31 0 -57 26 -57 57s26 57 57 57s57 -26 57 -57s-26 -57 -57 -57zM270 -24c0 -77 -65 -154 -157 -154c-14 0 -29 2 -44 5l4 17c13 -3 27 -4 39 -4c80 0 136 69 136 135c0 73 -50 106 -85 111c14 -14 21 -32 21 -48c0 -29 -21 -54 -54 -54c-31 0 -54 23 -54 54
c0 38 36 66 77 66c50 0 117 -38 117 -128z" />
    <glyph glyph-name="ellipsis" unicode="&#x2026;" horiz-adv-x="718" 
d="M119 -15c-31 0 -57 26 -57 57s26 57 57 57s57 -26 57 -57s-26 -57 -57 -57zM359 -15c-31 0 -57 26 -57 57s26 57 57 57s57 -26 57 -57s-26 -57 -57 -57zM599 -15c-31 0 -57 26 -57 57s26 57 57 57s57 -26 57 -57s-26 -57 -57 -57z" />
    <glyph glyph-name="question" unicode="?" horiz-adv-x="414" 
d="M177 224h-18l-15 176c120 11 169 90 169 160c0 66 -48 126 -122 126c-72 0 -119 -45 -119 -74c0 -17 48 -17 48 -49c0 -18 -16 -37 -40 -37c-29 0 -48 26 -48 54c0 74 77 135 168 135c120 0 181 -89 181 -169c0 -113 -94 -193 -195 -205zM168 -15c-31 0 -57 26 -57 57
s26 57 57 57s57 -26 57 -57s-26 -57 -57 -57z" />
    <glyph glyph-name="exclam" unicode="!" horiz-adv-x="274" 
d="M146 224h-18c-8 239 -36 394 -36 436c0 29 17 50 45 50s45 -21 45 -50c0 -42 -28 -197 -36 -436zM137 -15c-31 0 -57 26 -57 57s26 57 57 57s57 -26 57 -57s-26 -57 -57 -57z" />
    <glyph glyph-name="questiondown" unicode="&#xbf;" horiz-adv-x="406" 
d="M242 495c31 0 57 -26 57 -57s-26 -57 -57 -57s-57 26 -57 57s26 57 57 57zM233 256h18l15 -176c-120 -11 -169 -90 -169 -160c0 -66 48 -126 122 -126c72 0 119 45 119 74c0 17 -48 17 -48 49c0 18 16 37 40 37c29 0 48 -26 48 -54c0 -74 -77 -135 -168 -135
c-120 0 -181 89 -181 169c0 113 94 193 195 205z" />
    <glyph glyph-name="exclamdown" unicode="&#xa1;" horiz-adv-x="248" 
d="M67 433c0 31 26 57 57 57s57 -26 57 -57s-26 -57 -57 -57s-57 26 -57 57zM115 251h18c8 -239 36 -394 36 -436c0 -29 -17 -50 -45 -50s-45 21 -45 50c0 42 28 197 36 436z" />
    <glyph glyph-name="parenleft" unicode="(" horiz-adv-x="285" 
d="M44 336c0 261 197 450 205 460l2 -27s-140 -175 -140 -433s140 -433 140 -433l-2 -27c-8 9 -205 198 -205 460z" />
    <glyph glyph-name="parenright" unicode=")" horiz-adv-x="285" 
d="M241 336c0 -262 -197 -451 -205 -460l-2 27s140 175 140 433s-140 433 -140 433l2 27c8 -10 205 -199 205 -460z" />
    <glyph glyph-name="braceleft" unicode="{" horiz-adv-x="340" 
d="M75 311c72 -8 118 -53 118 -113c0 -43 -4 -181 -4 -226c0 -88 42 -98 89 -98h49v-24h-77c-70 0 -128 24 -128 106c0 45 8 212 8 266c0 68 -53 78 -83 78h-28v21h28c30 0 83 11 83 79c0 54 -8 220 -8 265c0 82 58 106 128 106h77v-24h-49c-47 0 -89 -10 -89 -98
c0 -45 4 -182 4 -225c0 -61 -46 -105 -118 -113z" />
    <glyph glyph-name="braceright" unicode="}" horiz-adv-x="340" 
d="M265 311c-72 8 -118 52 -118 113c0 43 4 180 4 225c0 88 -42 98 -89 98h-49v24h77c70 0 128 -24 128 -106c0 -45 -8 -211 -8 -265c0 -68 53 -79 83 -79h28v-21h-28c-30 0 -83 -10 -83 -78c0 -54 8 -221 8 -266c0 -82 -58 -106 -128 -106h-77v24h49c47 0 89 10 89 98
c0 45 -4 183 -4 226c0 60 46 105 118 113z" />
    <glyph glyph-name="bracketleft" unicode="[" horiz-adv-x="341" 
d="M334 769v-18l-166 -34v-816l166 -33v-18h-235v919h235z" />
    <glyph glyph-name="bracketright" unicode="]" horiz-adv-x="341" 
d="M7 769h235v-919h-235v18l166 33v816l-166 34v18z" />
    <glyph glyph-name="slash" unicode="/" horiz-adv-x="480" 
d="M19 -162l410 942h30l-410 -942h-30z" />
    <glyph glyph-name="backslash" unicode="\" horiz-adv-x="480" 
d="M461 -162h-30l-410 942h30z" />
    <glyph glyph-name="underscore" unicode="_" horiz-adv-x="431" 
d="M0 -146v50h431v-50h-431z" />
    <glyph glyph-name="hyphen" unicode="-" horiz-adv-x="375" 
d="M67 214v60h241v-60h-241z" />
    <glyph glyph-name="endash" unicode="&#x2013;" horiz-adv-x="573" 
d="M71 224v50h431v-50h-431z" />
    <glyph glyph-name="emdash" unicode="&#x2014;" horiz-adv-x="933" 
d="M71 224v50h791v-50h-791z" />
    <glyph glyph-name="brokenbar" unicode="&#xa6;" horiz-adv-x="238" 
d="M137 461h-36v462h36v-462zM101 351h36v-484h-36v484z" />
    <glyph glyph-name="bar" unicode="|" horiz-adv-x="236" 
d="M100 -133v1056h36v-1056h-36z" />
    <glyph glyph-name="apostrophe" horiz-adv-x="339" 
d="M266 587c0 -77 -65 -154 -157 -154c-14 0 -29 2 -44 5l4 17c13 -3 27 -4 39 -4c80 0 136 69 136 135c0 73 -50 106 -85 111c14 -14 21 -32 21 -48c0 -29 -21 -54 -54 -54c-31 0 -54 23 -54 54c0 38 36 66 77 66c50 0 117 -38 117 -128z" />
    <glyph glyph-name="guillemotleft" unicode="&#xab;" horiz-adv-x="511" 
d="M124 307l123 -222l-12 -2l-184 220v9l184 218l12 -2zM324 307l123 -222l-12 -2l-184 220v9l184 218l12 -2z" />
    <glyph glyph-name="guillemotright" unicode="&#xbb;" horiz-adv-x="511" 
d="M387 307l-123 221l12 2l184 -218v-9l-184 -220l-12 2zM187 307l-123 221l12 2l184 -218v-9l-184 -220l-12 2z" />
    <glyph glyph-name="guilsinglleft" unicode="&#x2039;" horiz-adv-x="311" 
d="M124 307l123 -222l-12 -2l-184 220v9l184 218l12 -2z" />
    <glyph glyph-name="guilsinglright" unicode="&#x203a;" horiz-adv-x="311" 
d="M187 307l-123 221l12 2l184 -218v-9l-184 -220l-12 2z" />
    <glyph glyph-name="quotesinglbase" unicode="&#x201a;" horiz-adv-x="302" 
d="M253 -24c0 -77 -65 -154 -157 -154c-14 0 -29 2 -44 5l4 17c13 -3 27 -4 39 -4c80 0 136 69 136 135c0 73 -50 106 -85 111c14 -14 21 -32 21 -48c0 -29 -21 -54 -54 -54c-31 0 -54 23 -54 54c0 38 36 66 77 66c50 0 117 -38 117 -128z" />
    <glyph glyph-name="quotedblbase" unicode="&#x201e;" horiz-adv-x="532" 
d="M253 -24c0 -77 -65 -154 -157 -154c-14 0 -29 2 -44 5l4 17c13 -3 27 -4 39 -4c80 0 136 69 136 135c0 73 -50 106 -85 111c14 -14 21 -32 21 -48c0 -29 -21 -54 -54 -54c-31 0 -54 23 -54 54c0 38 36 66 77 66c50 0 117 -38 117 -128zM483 -24c0 -77 -65 -154 -157 -154
c-14 0 -29 2 -44 5l4 17c13 -3 27 -4 39 -4c80 0 136 69 136 135c0 73 -50 106 -85 111c14 -14 21 -32 21 -48c0 -29 -21 -54 -54 -54c-31 0 -54 23 -54 54c0 38 36 66 77 66c50 0 117 -38 117 -128z" />
    <glyph glyph-name="quoteleft" unicode="&#x2018;" horiz-adv-x="301" 
d="M49 561c0 77 65 154 157 154c14 0 29 -2 44 -5l-4 -17c-13 3 -27 4 -39 4c-80 0 -136 -69 -136 -135c0 -73 50 -106 85 -111c-14 14 -21 32 -21 48c0 29 21 54 54 54c31 0 54 -23 54 -54c0 -38 -36 -66 -77 -66c-50 0 -117 38 -117 128z" />
    <glyph glyph-name="quotedblleft" unicode="&#x201c;" horiz-adv-x="531" 
d="M279 561c0 77 65 154 157 154c14 0 29 -2 44 -5l-4 -17c-13 3 -27 4 -39 4c-80 0 -136 -69 -136 -135c0 -73 50 -106 85 -111c-14 14 -21 32 -21 48c0 29 21 54 54 54c31 0 54 -23 54 -54c0 -38 -36 -66 -77 -66c-50 0 -117 38 -117 128zM49 561c0 77 65 154 157 154
c14 0 29 -2 44 -5l-4 -17c-13 3 -27 4 -39 4c-80 0 -136 -69 -136 -135c0 -73 50 -106 85 -111c-14 14 -21 32 -21 48c0 29 21 54 54 54c31 0 54 -23 54 -54c0 -38 -36 -66 -77 -66c-50 0 -117 38 -117 128z" />
    <glyph glyph-name="quoteright" unicode="&#x2019;" horiz-adv-x="314" 
d="M267 587c0 -77 -65 -154 -157 -154c-14 0 -29 2 -44 5l4 17c13 -3 27 -4 39 -4c80 0 136 69 136 135c0 73 -50 106 -85 111c14 -14 21 -32 21 -48c0 -29 -21 -54 -54 -54c-31 0 -54 23 -54 54c0 38 36 66 77 66c50 0 117 -38 117 -128z" />
    <glyph glyph-name="quotedblright" unicode="&#x201d;" horiz-adv-x="544" 
d="M267 587c0 -77 -65 -154 -157 -154c-14 0 -29 2 -44 5l4 17c13 -3 27 -4 39 -4c80 0 136 69 136 135c0 73 -50 106 -85 111c14 -14 21 -32 21 -48c0 -29 -21 -54 -54 -54c-31 0 -54 23 -54 54c0 38 36 66 77 66c50 0 117 -38 117 -128zM497 587c0 -77 -65 -154 -157 -154
c-14 0 -29 2 -44 5l4 17c13 -3 27 -4 39 -4c80 0 136 69 136 135c0 73 -50 106 -85 111c14 -14 21 -32 21 -48c0 -29 -21 -54 -54 -54c-31 0 -54 23 -54 54c0 38 36 66 77 66c50 0 117 -38 117 -128z" />
    <glyph glyph-name="quotesingle" unicode="'" horiz-adv-x="314" 
d="M267 587c0 -77 -65 -154 -157 -154c-14 0 -29 2 -44 5l4 17c13 -3 27 -4 39 -4c80 0 136 69 136 135c0 73 -50 106 -85 111c14 -14 21 -32 21 -48c0 -29 -21 -54 -54 -54c-31 0 -54 23 -54 54c0 38 36 66 77 66c50 0 117 -38 117 -128z" />
    <glyph glyph-name="quotedbl" unicode="&#x22;" horiz-adv-x="544" 
d="M267 587c0 -77 -65 -154 -157 -154c-14 0 -29 2 -44 5l4 17c13 -3 27 -4 39 -4c80 0 136 69 136 135c0 73 -50 106 -85 111c14 -14 21 -32 21 -48c0 -29 -21 -54 -54 -54c-31 0 -54 23 -54 54c0 38 36 66 77 66c50 0 117 -38 117 -128zM497 587c0 -77 -65 -154 -157 -154
c-14 0 -29 2 -44 5l4 17c13 -3 27 -4 39 -4c80 0 136 69 136 135c0 73 -50 106 -85 111c14 -14 21 -32 21 -48c0 -29 -21 -54 -54 -54c-31 0 -54 23 -54 54c0 38 36 66 77 66c50 0 117 -38 117 -128z" />
    <glyph glyph-name="bullet" unicode="&#x2022;" horiz-adv-x="368" 
d="M74 359c0 60 50 110 110 110c61 0 111 -50 111 -110c0 -61 -50 -110 -111 -110c-60 0 -110 49 -110 110z" />
    <glyph glyph-name="ampersand" unicode="&#x26;" horiz-adv-x="758" 
d="M507 73l-38 41c-72 -87 -142 -129 -227 -129c-106 0 -191 63 -191 173c0 94 74 162 173 221c-56 65 -71 111 -71 164c0 71 57 172 191 172c92 0 150 -68 150 -135c0 -74 -50 -117 -99 -117c-31 0 -56 21 -56 51c0 23 20 44 44 44c52 0 41 -53 53 -53c16 0 35 35 35 72
c0 53 -38 111 -122 111c-80 0 -130 -63 -130 -130c0 -45 14 -84 64 -140l211 -232c38 56 95 153 106 176l-107 27v10h229v-10l-77 -29c-23 -29 -87 -130 -135 -192l41 -45c69 -76 101 -86 129 -86s48 15 63 34l11 -5c-8 -13 -49 -80 -119 -80c-34 0 -67 21 -128 87zM117 178
c0 -99 79 -145 150 -145c62 0 124 30 186 98l-214 231l-3 3c-60 -45 -119 -97 -119 -187z" />
    <glyph glyph-name="paragraph" unicode="&#xb6;" horiz-adv-x="777" 
d="M435 0c-258 0 -387 142 -387 344c0 223 156 356 387 356h308v-10l-89 -29v-622l89 -29v-10h-308zM423 675v-649h162v649h-162z" />
    <glyph glyph-name="dagger" unicode="&#x2020;" horiz-adv-x="466" 
d="M274 714c0 -17 -27 -141 -33 -174c40 7 139 26 151 26c18 0 33 -14 33 -32s-15 -32 -33 -32c-12 0 -111 20 -152 27c5 -43 34 -259 34 -278c0 -23 -18 -41 -41 -41c-24 0 -41 18 -41 41c0 19 30 234 33 278c-39 -7 -140 -27 -150 -27c-19 0 -34 14 -34 32s15 32 34 32
c10 0 111 -19 150 -26c-6 35 -33 157 -33 174c0 23 17 42 41 42c23 0 41 -19 41 -42z" />
    <glyph glyph-name="daggerdbl" unicode="&#x2021;" horiz-adv-x="466" 
d="M264 381h-62l23 148c-39 -7 -128 -29 -148 -29c-21 0 -36 16 -36 34s15 34 36 34c20 0 109 -21 148 -28c-6 35 -33 157 -33 174c0 23 17 42 41 42s41 -19 41 -42c0 -17 -27 -139 -33 -174c39 7 128 28 148 28c21 0 36 -16 36 -34s-15 -34 -36 -34c-20 0 -109 22 -148 29z
M264 326l-23 -148c39 7 128 29 148 29c21 0 36 -16 36 -34s-15 -34 -36 -34c-20 0 -109 21 -148 28c6 -35 33 -157 33 -174c0 -23 -17 -42 -41 -42s-41 19 -41 42c0 17 27 139 33 174c-39 -7 -128 -28 -148 -28c-21 0 -36 16 -36 34s15 34 36 34c20 0 109 -22 148 -29
l-23 148h62z" />
    <glyph glyph-name="section" unicode="&#xa7;" horiz-adv-x="608" 
d="M453 2c0 -85 -74 -177 -197 -177c-106 0 -162 58 -162 105c0 25 21 50 46 50s45 -19 45 -44c0 -20 -15 -44 -42 -50c22 -19 56 -35 112 -35c77 0 138 55 138 134c0 66 -49 105 -111 150l-111 81c-86 62 -141 108 -141 192c0 88 69 150 129 167c-2 12 -4 24 -4 38
c0 85 74 177 197 177c106 0 162 -58 162 -105c0 -25 -21 -50 -46 -50s-45 19 -45 44c0 20 15 44 42 50c-22 19 -56 35 -112 35c-77 0 -138 -55 -138 -134c0 -66 49 -105 111 -150l111 -81c86 -62 141 -108 141 -192c0 -88 -69 -150 -129 -167c2 -12 4 -24 4 -38zM311 196
c55 -40 109 -79 131 -135c36 18 79 60 79 127c0 54 -40 95 -117 152l-107 79c-55 40 -109 79 -131 135c-36 -18 -79 -60 -79 -127c0 -54 40 -95 117 -152z" />
    <glyph glyph-name="asterisk" unicode="*" horiz-adv-x="452" 
d="M194 693c0 17 13 32 32 32c18 0 32 -15 32 -32s-24 -136 -27 -147c11 9 101 87 115 95c16 9 36 6 45 -11s2 -35 -13 -44c-13 -9 -129 -47 -140 -51c13 -5 127 -43 140 -50c15 -9 22 -28 13 -45c-9 -16 -29 -20 -45 -11c-14 6 -105 87 -114 94c3 -13 26 -130 26 -145
c0 -18 -14 -33 -32 -33c-19 0 -32 15 -32 33c0 16 23 136 25 145c-10 -8 -100 -88 -113 -94c-16 -9 -36 -5 -45 11c-9 17 -2 36 12 45c14 7 129 46 139 50c-13 6 -126 42 -139 51c-14 9 -21 27 -12 44s29 20 45 11c14 -8 104 -88 113 -95c-3 13 -25 130 -25 147z" />
    <glyph glyph-name="trademark" unicode="&#x2122;" horiz-adv-x="927" 
d="M537 375v-15h-122v15l46 12v286l-37 12v15h108l112 -261l111 261h107v-15l-42 -16v-279l47 -15v-15h-145v15l46 15v285l-137 -315h-8l-138 317l2 -289zM124 360v15l61 18v284h-92l-43 -66l-16 2l15 87h324l15 -87l-16 -2l-43 66h-92v-287l56 -15v-15h-169z" />
    <glyph glyph-name="registered" unicode="&#xae;" horiz-adv-x="836" 
d="M417 -22c-204 0 -372 167 -372 372s168 373 372 373c205 0 373 -168 373 -373s-168 -372 -373 -372zM417 2c191 0 346 156 346 348c0 193 -155 349 -346 349c-189 0 -345 -156 -345 -349c0 -192 156 -348 345 -348zM211 584v8h213c87 0 151 -50 151 -120
c0 -82 -77 -126 -150 -127c19 -5 35 -19 65 -54l85 -104c15 -17 25 -31 38 -40c13 -11 30 -18 55 -23v-6h-93c-9 -1 -16 7 -27 21l-127 160c-21 26 -47 39 -77 39h-21v-195l65 -19v-6h-177v6l59 20v421zM394 574h-71v-219h68c87 0 129 37 129 114c0 61 -39 105 -126 105z
" />
    <glyph glyph-name="copyright" unicode="&#xa9;" horiz-adv-x="836" 
d="M790 350c0 -205 -168 -372 -373 -372c-204 0 -372 167 -372 372s168 373 372 373c205 0 373 -168 373 -373zM72 350c0 -192 156 -348 345 -348c191 0 346 156 346 348c0 193 -155 349 -346 349c-189 0 -345 -156 -345 -349zM250 377c0 -152 94 -226 201 -226
c78 0 134 49 155 86l9 -4c-31 -77 -118 -124 -202 -124c-135 0 -218 107 -218 230c0 156 114 258 243 258c82 0 133 -34 146 -52c26 -36 -1 -66 -32 -66c-36 6 -51 97 -139 97c-86 0 -163 -72 -163 -199z" />
    <glyph glyph-name="product" unicode="&#x220f;" horiz-adv-x="836" 
d="M417 -22c-204 0 -372 167 -372 372s168 373 372 373c205 0 373 -168 373 -373s-168 -372 -373 -372zM417 2c191 0 346 156 346 348c0 193 -155 349 -346 349c-189 0 -345 -156 -345 -349c0 -192 156 -348 345 -348zM251 584v8h192c107 0 172 -60 172 -140
c0 -83 -65 -143 -172 -143h-80v-166l65 -19v-6h-177v6l59 20v421zM434 574h-71v-247h71c87 0 126 54 126 124c0 69 -39 123 -126 123z" />
    <glyph glyph-name="at" unicode="@" horiz-adv-x="833" 
d="M366 -175c-230 0 -321 147 -321 306c0 226 190 471 445 471c178 0 292 -113 292 -265c0 -171 -116 -316 -259 -324c-49 0 -66 34 -52 77l16 50l-6 2c-66 -96 -125 -132 -175 -132c-51 0 -68 43 -68 78c0 108 138 343 289 343c35 0 65 -13 77 -20l10 17c4 7 14 9 25 9
c13 0 18 -3 16 -8l-122 -332c-14 -38 -9 -53 20 -53c76 0 207 115 207 295c0 141 -107 236 -264 236c-223 0 -386 -240 -386 -444c0 -143 82 -276 276 -276c110 0 210 47 276 98c6 0 11 -4 11 -9c0 -2 0 -4 -3 -6c-71 -56 -186 -113 -304 -113zM529 251l35 85
c24 55 0 81 -27 81c-118 0 -233 -253 -233 -324c0 -24 15 -38 39 -38c54 0 143 92 186 196z" />
    <glyph glyph-name="ordfeminine" unicode="&#xaa;" horiz-adv-x="497" 
d="M314 312v2c-28 -55 -84 -89 -139 -89c-79 0 -113 57 -113 107c0 103 122 155 252 165v112c0 44 -43 64 -94 64c-34 0 -72 -10 -98 -24c7 -20 13 -37 13 -51c0 -32 -22 -45 -40 -45c-19 0 -37 15 -37 39c0 45 114 121 190 121c103 0 126 -49 126 -97v-297
c0 -22 10 -47 39 -47c13 0 31 8 40 22l11 -3c-9 -35 -39 -62 -75 -62c-46 0 -75 30 -75 83zM121 349c0 -44 26 -82 81 -82c43 0 90 25 112 71v145c-65 -8 -193 -37 -193 -134z" />
    <glyph glyph-name="ordmasculine" unicode="&#xba;" horiz-adv-x="575" 
d="M287 225c-142 0 -233 117 -233 244s91 244 233 244c143 0 234 -117 234 -244s-91 -244 -234 -244zM287 247c102 0 166 95 166 222s-64 222 -166 222c-101 0 -165 -95 -165 -222s64 -222 165 -222z" />
    <glyph glyph-name="numbersign" unicode="#" horiz-adv-x="616" 
d="M340 0l40 225h-187l-40 -225h-26l40 225h-136l3 21h136l37 207h-136l4 21h135l40 226h26l-40 -226h187l40 226h26l-40 -226h136l-4 -21h-135l-37 -207h135l-3 -21h-135l-40 -225h-26zM196 246h187l37 207h-187z" />
    <glyph glyph-name="Euro" unicode="&#x20ac;" horiz-adv-x="702" 
d="M621 0l-23 58c-36 -31 -94 -73 -190 -73c-126 0 -254 89 -289 268h-86v23h82c-3 23 -5 48 -5 74s1 50 5 73h-82v23h85c34 180 164 269 290 269c96 0 154 -42 190 -73l23 58h13v-213h-16c-43 154 -131 199 -204 199c-100 0 -192 -81 -218 -240h286v-23h-289
c-3 -23 -4 -47 -4 -73s1 -51 4 -74h289v-23h-285c26 -159 117 -239 217 -239c73 0 161 45 204 199h16v-213h-13z" />
    <glyph glyph-name="dollar" unicode="$" horiz-adv-x="578" 
d="M543 191c0 -106 -84 -202 -230 -206v-118h-26v118c-84 5 -159 41 -187 67l-30 -52h-16v218h22c28 -118 98 -200 211 -208v319l-75 23c-88 27 -152 81 -152 174c0 102 85 189 225 189h2v65h26v-67c58 -6 113 -30 144 -54l26 47h16v-188h-22c-22 97 -76 162 -164 172v-298
l79 -24c78 -24 151 -75 151 -177zM237 416l50 -15v291h-1c-105 0 -161 -70 -161 -140c0 -68 37 -113 112 -136zM368 304l-55 17v-312c97 3 166 67 166 158c0 76 -49 118 -111 137z" />
    <glyph glyph-name="yen" unicode="&#xa5;" horiz-adv-x="746" 
d="M527 10v-10h-297v10l109 30v143h-190v23h190v117h-190v23h179l-232 314l-72 30v10h255v-10l-100 -27l220 -299l208 296l-109 30v10h225v-10l-72 -29l-234 -315h181v-23h-190v-117h190v-23h-190v-142z" />
    <glyph glyph-name="sterling" unicode="&#xa3;" horiz-adv-x="700" 
d="M646 150c-15 -91 -82 -170 -187 -170c-67 0 -156 44 -232 81c-27 -45 -65 -74 -119 -74c-50 0 -80 37 -80 73c0 45 37 81 91 81c26 0 61 -9 101 -21c14 56 18 114 20 169h-130v23h131c1 35 1 68 2 98c3 59 8 113 26 157c36 89 107 144 210 144c97 0 160 -64 160 -140
c0 -71 -56 -133 -133 -133c-67 0 -98 41 -98 77c0 28 20 53 52 53c27 0 45 -20 45 -45s-24 -50 -44 -53c81 -31 149 29 149 98c0 71 -57 108 -113 108c-54 0 -107 -31 -136 -95c-34 -74 -48 -172 -64 -269h172v-23h-175c-11 -63 -24 -125 -44 -179c84 -26 180 -61 248 -61
c76 0 121 58 133 112zM113 7c44 0 72 27 90 68c-41 20 -77 34 -100 34c-26 0 -50 -17 -50 -47c0 -29 22 -55 60 -55z" />
    <glyph glyph-name="cent" unicode="&#xa2;" horiz-adv-x="500" 
d="M259 -15c-20 0 -39 2 -56 7l-39 -130h-26l41 137c-87 33 -137 120 -137 216c0 156 114 258 243 258c12 0 24 -1 34 -2l33 109h26l-34 -113c48 -11 77 -33 87 -46c26 -36 -1 -66 -32 -66c-23 4 -37 42 -67 69l-114 -380c25 -10 51 -15 79 -15c78 0 134 47 155 84l9 -4
c-31 -77 -118 -124 -202 -124zM97 253c0 -100 40 -165 98 -198l115 385c-13 7 -30 12 -50 12c-86 0 -163 -72 -163 -199z" />
    <glyph glyph-name="florin" unicode="&#x192;" horiz-adv-x="697" 
d="M241 2c-57 -198 -131 -262 -225 -262c-36 0 -71 19 -72 41c0 24 16 42 45 42c11 0 34 -51 68 -51c39 0 69 19 112 172l95 333h-130v26h137l68 238c21 74 53 141 113 183c46 31 96 44 139 44c52 0 103 -16 103 -39c1 -21 -28 -45 -51 -45c-6 0 -11 2 -13 5
c-23 33 -55 49 -85 49c-45 0 -103 -42 -135 -152l-82 -283h138v-26h-145z" />
    <glyph glyph-name="currency" unicode="&#xa4;" horiz-adv-x="630" 
d="M93 364c0 56 18 108 52 148l-87 88l24 24l86 -88c38 32 88 52 146 52c59 0 108 -20 147 -53l89 89l23 -24l-89 -89c32 -40 52 -91 52 -147c0 -57 -18 -108 -51 -147l88 -88l-23 -24l-88 89c-39 -33 -89 -53 -148 -53c-58 0 -108 18 -147 51l-85 -87l-24 24l87 87
c-34 40 -52 91 -52 148zM129 364c0 -105 72 -191 185 -191c114 0 186 86 186 191c0 106 -72 191 -186 191c-113 0 -185 -85 -185 -191z" />
    <glyph glyph-name="zero" unicode="0" horiz-adv-x="608" 
d="M72 350c0 213 108 365 232 365s232 -152 232 -365s-108 -365 -232 -365s-232 152 -232 365zM461 350c0 199 -51 341 -157 341s-157 -142 -157 -341c0 -198 51 -341 157 -341s157 143 157 341z" />
    <glyph glyph-name="one" unicode="1" horiz-adv-x="392" 
d="M64 10l118 26v607c-34 -25 -94 -32 -135 -30v21c53 -1 117 3 188 81h18s-6 -135 -6 -292v-387l111 -26v-10h-294v10z" />
    <glyph glyph-name="two" unicode="2" horiz-adv-x="562" 
d="M394 518c0 101 -72 146 -146 146c-99 0 -154 -71 -172 -123l-18 4c10 61 81 170 212 170c120 0 194 -79 194 -179c0 -109 -83 -196 -207 -334l-131 -145h305l64 90h16l-41 -147h-320c-47 0 -90 -6 -90 -6l-9 14c84 86 161 179 225 260c65 82 118 165 118 250z" />
    <glyph glyph-name="three" unicode="3" horiz-adv-x="534" 
d="M466 195c0 -112 -96 -210 -240 -210c-110 0 -191 44 -191 92c0 19 16 35 36 35c30 0 47 -106 157 -106c96 0 171 72 171 167c0 119 -116 177 -229 180l8 16c111 34 191 115 191 186c0 64 -44 110 -118 110c-68 0 -133 -42 -164 -88l-18 11c37 69 118 127 210 127
c81 0 156 -49 156 -138c0 -83 -78 -145 -165 -184c74 -9 196 -65 196 -198z" />
    <glyph glyph-name="four" unicode="4" horiz-adv-x="568" 
d="M505 213h-104v-177l99 -26v-10h-264v10l100 26v177h-299v52l297 435h67v-438h125zM336 262v392h-2l-264 -392h266z" />
    <glyph glyph-name="five" unicode="5" horiz-adv-x="555" 
d="M256 6c106 0 179 97 179 191c0 118 -91 184 -192 184c-42 0 -86 -13 -126 -39l-16 1l10 357h304l21 39h15v-66c0 -20 -2 -38 -26 -38h-291l-8 -226c40 25 88 37 135 37c128 0 236 -82 236 -225c0 -114 -96 -236 -258 -236c-102 0 -180 44 -180 92c0 19 16 35 36 35
c30 0 50 -106 161 -106z" />
    <glyph glyph-name="six" unicode="6" horiz-adv-x="587" 
d="M145 338c40 47 123 80 185 80c114 0 204 -80 204 -203c0 -125 -94 -230 -232 -230c-129 0 -237 87 -237 262c0 186 131 403 401 479l10 -10c-203 -100 -302 -258 -331 -378zM142 314c-3 -24 -5 -47 -5 -79c0 -122 58 -226 172 -226c86 0 162 71 162 183s-80 185 -176 185
c-57 0 -115 -24 -153 -63z" />
    <glyph glyph-name="seven" unicode="7" horiz-adv-x="503" 
d="M202 24c-19 -45 -104 -46 -85 -10l330 621h-367l-41 -86h-15l27 170h21v-19h414v-17z" />
    <glyph glyph-name="eight" unicode="8" horiz-adv-x="589" 
d="M497 563c0 -90 -90 -146 -151 -180c96 -55 174 -109 174 -202c0 -119 -110 -196 -227 -196c-134 0 -225 74 -225 175c0 97 94 157 171 205c-84 46 -142 100 -142 181c0 95 89 169 206 169c119 0 194 -72 194 -152zM330 392c66 40 115 104 115 166c0 88 -67 133 -142 133
c-71 0 -141 -44 -141 -124c0 -56 29 -91 115 -143zM310 323l-56 33c-55 -46 -126 -103 -126 -202c0 -83 73 -145 164 -145c106 0 163 70 163 142c0 81 -61 122 -145 172z" />
    <glyph glyph-name="nine" unicode="9" horiz-adv-x="587" 
d="M442 362c-40 -47 -123 -80 -185 -80c-114 0 -204 80 -204 203c0 125 94 230 232 230c129 0 237 -87 237 -262c0 -186 -131 -403 -401 -479l-10 10c203 100 302 258 331 378zM445 386c3 24 5 47 5 79c0 122 -58 226 -172 226c-86 0 -162 -71 -162 -183s80 -185 176 -185
c57 0 115 24 153 63z" />
    <glyph glyph-name="zero.tnum" horiz-adv-x="560" 
d="M48 350c0 213 108 365 232 365s232 -152 232 -365s-108 -365 -232 -365s-232 152 -232 365zM437 350c0 199 -51 341 -157 341s-157 -142 -157 -341c0 -198 51 -341 157 -341s157 143 157 341z" />
    <glyph glyph-name="one.tnum" horiz-adv-x="560" 
d="M139 10l135 26v607c-35 -24 -133 -33 -156 -30v21c55 1 139 3 210 81h18s-6 -135 -6 -292v-387l129 -26v-10h-330v10z" />
    <glyph glyph-name="two.tnum" horiz-adv-x="560" 
d="M393 518c0 101 -72 146 -146 146c-99 0 -154 -71 -172 -123l-18 4c10 61 81 170 212 170c120 0 194 -79 194 -179c0 -109 -83 -196 -207 -334l-131 -145h305l64 90h16l-41 -147h-320c-47 0 -90 -6 -90 -6l-9 14c84 86 161 179 225 260c65 82 118 165 118 250z" />
    <glyph glyph-name="three.tnum" horiz-adv-x="560" 
d="M486 195c0 -112 -96 -210 -240 -210c-110 0 -191 44 -191 92c0 19 16 35 36 35c30 0 47 -106 157 -106c96 0 171 72 171 167c0 119 -116 177 -229 180l8 16c111 34 191 115 191 186c0 64 -44 110 -118 110c-68 0 -133 -42 -164 -88l-18 11c37 69 118 127 210 127
c81 0 156 -49 156 -138c0 -83 -78 -145 -165 -184c74 -9 196 -65 196 -198z" />
    <glyph glyph-name="four.tnum" horiz-adv-x="560" 
d="M501 213h-104v-177l99 -26v-10h-264v10l100 26v177h-299v52l297 435h67v-438h125zM332 262v392h-2l-264 -392h266z" />
    <glyph glyph-name="five.tnum" horiz-adv-x="560" 
d="M258 6c106 0 179 97 179 191c0 118 -91 184 -192 184c-42 0 -86 -13 -126 -39l-16 1l10 357h304l21 39h15v-66c0 -20 -2 -38 -26 -38h-291l-8 -226c40 25 88 37 135 37c128 0 236 -82 236 -225c0 -114 -96 -236 -258 -236c-102 0 -180 44 -180 92c0 19 16 35 36 35
c30 0 50 -106 161 -106z" />
    <glyph glyph-name="six.tnum" horiz-adv-x="560" 
d="M132 338c40 47 123 80 185 80c114 0 204 -80 204 -203c0 -125 -94 -230 -232 -230c-129 0 -237 87 -237 262c0 186 131 403 401 479l10 -10c-203 -100 -302 -258 -331 -378zM129 314c-3 -24 -5 -47 -5 -79c0 -122 58 -226 172 -226c86 0 162 71 162 183s-80 185 -176 185
c-57 0 -115 -24 -153 -63z" />
    <glyph glyph-name="seven.tnum" horiz-adv-x="560" 
d="M235 24c-19 -45 -104 -46 -85 -10l330 621h-367l-41 -86h-15l27 170h21v-19h414v-17z" />
    <glyph glyph-name="eight.tnum" horiz-adv-x="560" 
d="M482 563c0 -90 -90 -146 -151 -180c96 -55 174 -109 174 -202c0 -119 -110 -196 -227 -196c-134 0 -225 74 -225 175c0 97 94 157 171 205c-84 46 -142 100 -142 181c0 95 89 169 206 169c119 0 194 -72 194 -152zM315 392c66 40 115 104 115 166c0 88 -67 133 -142 133
c-71 0 -141 -44 -141 -124c0 -56 29 -91 115 -143zM295 323l-56 33c-55 -46 -126 -103 -126 -202c0 -83 73 -145 164 -145c106 0 163 70 163 142c0 81 -61 122 -145 172z" />
    <glyph glyph-name="nine.tnum" horiz-adv-x="560" 
d="M428 362c-40 -47 -123 -80 -185 -80c-114 0 -204 80 -204 203c0 125 94 230 232 230c129 0 237 -87 237 -262c0 -186 -131 -403 -401 -479l-10 10c203 100 302 258 331 378zM431 386c3 24 5 47 5 79c0 122 -58 226 -172 226c-86 0 -162 -71 -162 -183s80 -185 176 -185
c57 0 115 24 153 63z" />
    <glyph glyph-name="zero.posf" horiz-adv-x="609" 
d="M305 506c133 0 240 -104 240 -260c0 -157 -107 -261 -240 -261c-134 0 -241 104 -241 261c0 156 107 260 241 260zM305 466c-103 0 -193 -83 -193 -220s90 -220 193 -220s193 83 193 220s-90 220 -193 220z" />
    <glyph glyph-name="one.posf" horiz-adv-x="318" 
d="M269 0h-220v9l80 22v429l-80 22v9h220v-9l-79 -22v-429l79 -22v-9z" />
    <glyph glyph-name="two.posf" horiz-adv-x="502" 
d="M52 15c184 140 283 244 283 334c0 68 -48 114 -114 114c-81 0 -129 -65 -143 -110l-16 3c11 61 66 151 181 151c99 0 154 -72 154 -139c0 -81 -58 -143 -209 -266l-62 -50h254l57 98h16l-36 -150h-281c-41 0 -78 -5 -78 -5z" />
    <glyph glyph-name="three.posf" horiz-adv-x="487" 
d="M426 3c0 -103 -85 -196 -221 -196c-100 0 -174 43 -174 89c0 19 14 34 32 34c27 0 43 -104 144 -104c90 0 159 66 159 158c0 105 -113 178 -223 181l6 16c99 29 196 99 196 173c0 62 -46 106 -116 106c-63 0 -122 -41 -150 -85l-17 11c34 66 108 121 193 121
c74 0 148 -45 148 -132c0 -78 -84 -139 -166 -173c68 -11 189 -70 189 -199z" />
    <glyph glyph-name="four.posf" horiz-adv-x="538" 
d="M376 -160l-61 -24v224h-271v49l268 408h64v-411h126l-21 -46h-105v-200zM315 86v369h-2l-239 -369h241z" />
    <glyph glyph-name="five.posf" horiz-adv-x="521" 
d="M240 -174c99 0 168 94 168 184c0 114 -85 177 -181 177c-39 0 -80 -12 -118 -37l-14 1l9 340h284l19 38h14v-62c0 -19 -2 -36 -23 -36h-273l-8 -219c38 24 84 36 126 36c120 0 221 -80 221 -218c0 -110 -90 -223 -242 -223c-94 0 -167 41 -167 87c0 18 15 33 34 33
c26 0 47 -101 151 -101z" />
    <glyph glyph-name="six.posf" horiz-adv-x="548" 
d="M137 323c37 45 114 77 171 77c106 0 189 -73 189 -195c0 -119 -87 -220 -215 -220c-119 0 -221 85 -221 253c0 178 123 384 373 457l9 -10c-187 -96 -279 -247 -306 -362zM134 300c-2 -23 -4 -45 -4 -76c0 -116 53 -216 159 -216c79 0 150 68 150 175
c0 108 -74 177 -163 177c-53 0 -106 -22 -142 -60z" />
    <glyph glyph-name="seven.posf" horiz-adv-x="483" 
d="M185 -150c-18 -42 -96 -42 -78 -9l316 590h-338l-37 -81h-14l25 159h19v-18h379v-15z" />
    <glyph glyph-name="eight.posf" horiz-adv-x="554" 
d="M467 542c0 -88 -86 -141 -143 -175c92 -53 164 -106 164 -195c0 -114 -105 -187 -213 -187c-126 0 -211 71 -211 168c0 93 75 144 162 197c-81 46 -136 98 -136 175c0 91 85 161 194 161c111 0 183 -67 183 -144zM309 375c60 43 110 99 110 159c0 85 -64 129 -135 129
c-67 0 -131 -42 -131 -119c0 -55 24 -89 108 -140zM292 310l-53 31c-56 -49 -119 -95 -119 -194c0 -79 69 -139 154 -139c101 0 153 67 153 136c0 80 -53 118 -135 166z" />
    <glyph glyph-name="nine.posf" horiz-adv-x="539" 
d="M406 169c-37 -45 -112 -77 -169 -77c-106 0 -191 73 -191 195c0 119 87 220 215 220c119 0 221 -86 221 -254c0 -178 -123 -383 -373 -456l-9 10c187 96 279 247 306 362zM409 192c2 23 4 45 4 76c0 116 -53 216 -159 216c-79 0 -150 -68 -150 -175
c0 -108 74 -177 163 -177c53 0 106 22 142 60z" />
    <glyph glyph-name="degree" unicode="&#xb0;" horiz-adv-x="436" 
d="M46 539c0 96 77 172 172 172c96 0 172 -76 172 -172c0 -95 -76 -172 -172 -172c-95 0 -172 77 -172 172zM81 539c0 -83 58 -144 137 -144c76 0 138 61 138 144c0 81 -62 145 -138 145c-79 0 -137 -64 -137 -145z" />
    <glyph glyph-name="percent" unicode="%" horiz-adv-x="809" 
d="M84 10l629 707l25 -19l-629 -707zM33 539c0 96 77 172 172 172c96 0 172 -76 172 -172c0 -95 -76 -172 -172 -172c-95 0 -172 77 -172 172zM68 539c0 -83 58 -144 137 -144c76 0 138 61 138 144c0 81 -62 145 -138 145c-79 0 -137 -64 -137 -145zM431 161
c0 96 77 172 172 172c96 0 172 -76 172 -172c0 -95 -76 -172 -172 -172c-95 0 -172 77 -172 172zM466 161c0 -83 58 -144 137 -144c76 0 138 61 138 144c0 81 -62 145 -138 145c-79 0 -137 -64 -137 -145z" />
    <glyph glyph-name="perthousand" unicode="&#x2030;" horiz-adv-x="1216" 
d="M109 -9l-25 19l629 707l25 -19zM33 539c0 96 77 172 172 172c96 0 172 -76 172 -172c0 -95 -76 -172 -172 -172c-95 0 -172 77 -172 172zM68 539c0 -83 58 -144 137 -144c76 0 138 61 138 144c0 81 -62 145 -138 145c-79 0 -137 -64 -137 -145zM431 161
c0 96 77 172 172 172c96 0 172 -76 172 -172c0 -95 -76 -172 -172 -172c-95 0 -172 77 -172 172zM842 161c0 96 77 172 172 172c96 0 172 -76 172 -172c0 -95 -76 -172 -172 -172c-95 0 -172 77 -172 172zM466 161c0 -83 58 -144 137 -144c76 0 138 61 138 144
c0 81 -62 145 -138 145c-79 0 -137 -64 -137 -145zM877 161c0 -83 58 -144 137 -144c76 0 138 61 138 144c0 81 -62 145 -138 145c-79 0 -137 -64 -137 -145z" />
    <glyph glyph-name="fraction" unicode="&#x2044;" horiz-adv-x="200" 
d="M-228 8l634 718l21 -16l-632 -720z" />
    <glyph glyph-name="onehalf" unicode="&#xbd;" horiz-adv-x="867" 
d="M88 8l634 718l21 -16l-632 -720zM50 275l70 19v358c-21 -13 -57 -16 -80 -15v18c39 -1 80 7 123 52h21c0 -6 -2 -87 -2 -179v-234l65 -19v-9h-197v9zM736 309c0 58 -42 87 -88 87c-56 0 -87 -40 -99 -72l-14 4c7 44 50 115 135 115c76 0 125 -51 125 -113
c0 -64 -46 -118 -127 -200l-74 -78h181l47 64h13l-33 -116h-213c-30 0 -56 -4 -56 -4l-8 11c55 53 102 105 140 154s71 98 71 148z" />
    <glyph glyph-name="onequarter" unicode="&#xbc;" horiz-adv-x="826" 
d="M88 8l634 718l21 -16l-632 -720zM50 275l70 19v358c-21 -13 -57 -16 -80 -15v18c39 -1 80 7 123 52h21c0 -6 -2 -87 -2 -179v-234l65 -19v-9h-197v9zM786 120h-74v-92l58 -19v-9h-175v9l58 19v92h-181v41l185 273h55v-276h84zM653 158v233h-2l-155 -233h157z" />
    <glyph glyph-name="threequarters" unicode="&#xbe;" horiz-adv-x="845" 
d="M107 8l634 718l21 -16l-632 -720zM322 392c0 -70 -63 -134 -159 -134c-73 0 -125 30 -125 61c0 15 11 26 27 26c28 0 29 -71 98 -71c56 0 98 44 98 97c0 74 -76 109 -137 111l2 12c70 26 113 68 113 111c0 37 -27 65 -72 65c-38 0 -76 -22 -97 -51l-13 9
c25 43 76 83 140 83c54 0 102 -32 102 -87c0 -50 -43 -87 -95 -110c55 -9 118 -48 118 -122zM805 120h-74v-92l58 -19v-9h-175v9l58 19v92h-181v41l185 273h55v-276h84zM672 158v233h-2l-155 -233h157z" />
    <glyph glyph-name="onethird" unicode="&#x2153;" horiz-adv-x="833" 
d="M84 8l634 718l21 -16l-632 -720zM46 275l70 19v358c-21 -13 -57 -16 -80 -15v18c39 -1 80 7 123 52h21c0 -6 -2 -87 -2 -179v-234l65 -19v-9h-197v9zM794 126c0 -70 -63 -134 -159 -134c-73 0 -125 30 -125 61c0 15 11 26 27 26c28 0 29 -71 98 -71c56 0 98 44 98 97
c0 74 -76 109 -137 111l2 12c70 26 113 68 113 111c0 37 -27 65 -72 65c-38 0 -76 -22 -97 -51l-13 9c25 43 76 83 140 83c54 0 102 -32 102 -87c0 -50 -43 -87 -95 -110c55 -9 118 -48 118 -122z" />
    <glyph glyph-name="twothirds" unicode="&#x2154;" horiz-adv-x="893" 
d="M144 8l634 718l21 -16l-632 -720zM244 575c0 58 -42 87 -88 87c-56 0 -87 -40 -99 -72l-14 4c7 44 50 115 135 115c76 0 125 -51 125 -113c0 -64 -46 -118 -127 -200l-74 -78h181l47 64h13l-33 -116h-213c-30 0 -56 -4 -56 -4l-8 11c55 53 102 105 140 154s71 98 71 148z
M854 126c0 -70 -63 -134 -159 -134c-73 0 -125 30 -125 61c0 15 11 26 27 26c28 0 29 -71 98 -71c56 0 98 44 98 97c0 74 -76 109 -137 111l2 12c70 26 113 68 113 111c0 37 -27 65 -72 65c-38 0 -76 -22 -97 -51l-13 9c25 43 76 83 140 83c54 0 102 -32 102 -87
c0 -50 -43 -87 -95 -110c55 -9 118 -48 118 -122z" />
    <glyph glyph-name="oneeighth" unicode="&#x215b;" horiz-adv-x="847" 
d="M84 8l634 718l21 -16l-632 -720zM46 275l70 19v358c-21 -13 -57 -16 -80 -15v18c39 -1 80 7 123 52h21c0 -6 -2 -87 -2 -179v-234l65 -19v-9h-197v9zM794 350c0 -52 -52 -87 -92 -106c63 -35 108 -68 108 -126c0 -71 -64 -127 -153 -127c-82 0 -143 48 -143 109
c0 56 42 97 98 125c-49 28 -82 60 -82 109c0 62 59 110 139 110c74 0 125 -42 125 -94zM690 251c36 25 65 61 65 96c0 49 -38 79 -83 79c-42 0 -82 -27 -82 -72c0 -32 19 -53 69 -84zM665 192l-41 25c-34 -28 -65 -65 -65 -120c0 -48 42 -87 98 -87c60 0 95 41 95 83
c0 47 -36 69 -87 99z" />
    <glyph glyph-name="threeeighths" unicode="&#x215c;" horiz-adv-x="866" 
d="M103 8l634 718l21 -16l-632 -720zM318 392c0 -70 -63 -134 -159 -134c-73 0 -125 30 -125 61c0 15 11 26 27 26c28 0 29 -71 98 -71c56 0 98 44 98 97c0 74 -76 109 -137 111l2 12c70 26 113 68 113 111c0 37 -27 65 -72 65c-38 0 -76 -22 -97 -51l-13 9
c25 43 76 83 140 83c54 0 102 -32 102 -87c0 -50 -43 -87 -95 -110c55 -9 118 -48 118 -122zM813 350c0 -52 -52 -87 -92 -106c63 -35 108 -68 108 -126c0 -71 -64 -127 -153 -127c-82 0 -143 48 -143 109c0 56 42 97 98 125c-49 28 -82 60 -82 109c0 62 59 110 139 110
c74 0 125 -42 125 -94zM709 251c36 25 65 61 65 96c0 49 -38 79 -83 79c-42 0 -82 -27 -82 -72c0 -32 19 -53 69 -84zM684 192l-41 25c-34 -28 -65 -65 -65 -120c0 -48 42 -87 98 -87c60 0 95 41 95 83c0 47 -36 69 -87 99z" />
    <glyph glyph-name="fiveeighths" unicode="&#x215d;" horiz-adv-x="869" 
d="M106 8l634 718l21 -16l-632 -720zM164 273c61 0 103 54 103 108c0 72 -53 107 -113 107c-27 0 -59 -7 -82 -22l-9 1l5 233h201l12 24h14v-58c0 -12 -5 -21 -24 -21h-187l-3 -125c25 15 58 23 92 23c81 0 151 -47 151 -136c0 -76 -66 -150 -167 -150
c-68 0 -119 29 -119 61c0 14 11 25 27 25c27 0 30 -70 99 -70zM816 350c0 -52 -52 -87 -92 -106c63 -35 108 -68 108 -126c0 -71 -64 -127 -153 -127c-82 0 -143 48 -143 109c0 56 42 97 98 125c-49 28 -82 60 -82 109c0 62 59 110 139 110c74 0 125 -42 125 -94zM712 251
c36 25 65 61 65 96c0 49 -38 79 -83 79c-42 0 -82 -27 -82 -72c0 -32 19 -53 69 -84zM687 192l-41 25c-34 -28 -65 -65 -65 -120c0 -48 42 -87 98 -87c60 0 95 41 95 83c0 47 -36 69 -87 99z" />
    <glyph glyph-name="seveneighths" unicode="&#x215e;" horiz-adv-x="831" 
d="M68 8l634 718l21 -16l-632 -720zM147 286c-14 -33 -80 -32 -66 -7l205 366h-213l-27 -55h-12l16 122h16v-12h254v-13zM778 350c0 -52 -52 -87 -92 -106c63 -35 108 -68 108 -126c0 -71 -64 -127 -153 -127c-82 0 -143 48 -143 109c0 56 42 97 98 125
c-49 28 -82 60 -82 109c0 62 59 110 139 110c74 0 125 -42 125 -94zM674 251c36 25 65 61 65 96c0 49 -38 79 -83 79c-42 0 -82 -27 -82 -72c0 -32 19 -53 69 -84zM649 192l-41 25c-34 -28 -65 -65 -65 -120c0 -48 42 -87 98 -87c60 0 95 41 95 83c0 47 -36 69 -87 99z" />
    <glyph glyph-name="onefifth" unicode="&#x2155;" horiz-adv-x="842" 
d="M84 8l634 718l21 -16l-632 -720zM46 275l70 19v358c-21 -13 -57 -16 -80 -15v18c39 -1 80 7 123 52h21c0 -6 -2 -87 -2 -179v-234l65 -19v-9h-197v9zM643 7c61 0 103 54 103 108c0 72 -53 107 -113 107c-27 0 -59 -7 -82 -22l-9 1l5 233h201l12 24h14v-58
c0 -12 -5 -21 -24 -21h-187l-3 -125c25 15 58 23 92 23c81 0 151 -47 151 -136c0 -76 -66 -150 -167 -150c-68 0 -119 29 -119 61c0 14 11 25 27 25c27 0 30 -70 99 -70z" />
    <glyph glyph-name="twofifths" unicode="&#x2156;" horiz-adv-x="902" 
d="M144 8l634 718l21 -16l-632 -720zM244 575c0 58 -42 87 -88 87c-56 0 -87 -40 -99 -72l-14 4c7 44 50 115 135 115c76 0 125 -51 125 -113c0 -64 -46 -118 -127 -200l-74 -78h181l47 64h13l-33 -116h-213c-30 0 -56 -4 -56 -4l-8 11c55 53 102 105 140 154s71 98 71 148z
M703 7c61 0 103 54 103 108c0 72 -53 107 -113 107c-27 0 -59 -7 -82 -22l-9 1l5 233h201l12 24h14v-58c0 -12 -5 -21 -24 -21h-187l-3 -125c25 15 58 23 92 23c81 0 151 -47 151 -136c0 -76 -66 -150 -167 -150c-68 0 -119 29 -119 61c0 14 11 25 27 25c27 0 30 -70 99 -70
z" />
    <glyph glyph-name="threefifths" unicode="&#x2157;" horiz-adv-x="861" 
d="M103 8l634 718l21 -16l-632 -720zM318 392c0 -70 -63 -134 -159 -134c-73 0 -125 30 -125 61c0 15 11 26 27 26c28 0 29 -71 98 -71c56 0 98 44 98 97c0 74 -76 109 -137 111l2 12c70 26 113 68 113 111c0 37 -27 65 -72 65c-38 0 -76 -22 -97 -51l-13 9
c25 43 76 83 140 83c54 0 102 -32 102 -87c0 -50 -43 -87 -95 -110c55 -9 118 -48 118 -122zM662 7c61 0 103 54 103 108c0 72 -53 107 -113 107c-27 0 -59 -7 -82 -22l-9 1l5 233h201l12 24h14v-58c0 -12 -5 -21 -24 -21h-187l-3 -125c25 15 58 23 92 23
c81 0 151 -47 151 -136c0 -76 -66 -150 -167 -150c-68 0 -119 29 -119 61c0 14 11 25 27 25c27 0 30 -70 99 -70z" />
    <glyph glyph-name="fourfifths" unicode="&#x2158;" horiz-adv-x="919" 
d="M154 8l634 718l21 -16l-632 -720zM343 386h-74v-92l58 -19v-9h-175v9l58 19v92h-181v41l185 273h55v-276h84zM210 424v233h-2l-155 -233h157zM713 7c61 0 103 54 103 108c0 72 -53 107 -113 107c-27 0 -59 -7 -82 -22l-9 1l5 233h201l12 24h14v-58c0 -12 -5 -21 -24 -21
h-187l-3 -125c25 15 58 23 92 23c81 0 151 -47 151 -136c0 -76 -66 -150 -167 -150c-68 0 -119 29 -119 61c0 14 11 25 27 25c27 0 30 -70 99 -70z" />
    <glyph glyph-name="onesixth" unicode="&#x2159;" horiz-adv-x="826" 
d="M84 8l634 718l21 -16l-632 -720zM46 275l70 19v358c-21 -13 -57 -16 -80 -15v18c39 -1 80 7 123 52h21c0 -6 -2 -87 -2 -179v-234l65 -19v-9h-197v9zM554 220c24 34 71 51 108 51c72 0 127 -50 127 -127c0 -80 -61 -146 -151 -146s-154 66 -154 170c0 117 82 252 263 288
l9 -7c-125 -47 -185 -145 -202 -229zM552 205c-2 -17 -4 -35 -4 -51c0 -82 40 -137 97 -137c46 0 86 38 86 107c0 80 -51 115 -101 115c-28 0 -59 -12 -78 -34z" />
    <glyph glyph-name="fivesixths" unicode="&#x215a;" horiz-adv-x="848" 
d="M106 8l634 718l21 -16l-632 -720zM164 273c61 0 103 54 103 108c0 72 -53 107 -113 107c-27 0 -59 -7 -82 -22l-9 1l5 233h201l12 24h14v-58c0 -12 -5 -21 -24 -21h-187l-3 -125c25 15 58 23 92 23c81 0 151 -47 151 -136c0 -76 -66 -150 -167 -150
c-68 0 -119 29 -119 61c0 14 11 25 27 25c27 0 30 -70 99 -70zM576 220c24 34 71 51 108 51c72 0 127 -50 127 -127c0 -80 -61 -146 -151 -146s-154 66 -154 170c0 117 82 252 263 288l9 -7c-125 -47 -185 -145 -202 -229zM574 205c-2 -17 -4 -35 -4 -51
c0 -82 40 -137 97 -137c46 0 86 38 86 107c0 80 -51 115 -101 115c-28 0 -59 -12 -78 -34z" />
    <glyph glyph-name="oneseventh" unicode="&#x2150;" horiz-adv-x="866" 
d="M91 8l634 718l21 -16l-632 -720zM53 275l70 19v358c-21 -13 -57 -16 -80 -15v18c39 -1 80 7 123 52h21c0 -6 -2 -87 -2 -179v-234l65 -19v-9h-197v9zM663 20c-14 -33 -80 -32 -66 -7l205 366h-213l-27 -55h-12l16 122h16v-12h254v-13z" />
    <glyph glyph-name="twosevenths" horiz-adv-x="926" 
d="M151 8l634 718l21 -16l-632 -720zM251 575c0 58 -42 87 -88 87c-56 0 -87 -40 -99 -72l-14 4c7 44 50 115 135 115c76 0 125 -51 125 -113c0 -64 -46 -118 -127 -200l-74 -78h181l47 64h13l-33 -116h-213c-30 0 -56 -4 -56 -4l-8 11c55 53 102 105 140 154s71 98 71 148z
M723 20c-14 -33 -80 -32 -66 -7l205 366h-213l-27 -55h-12l16 122h16v-12h254v-13z" />
    <glyph glyph-name="threesevenths" horiz-adv-x="885" 
d="M110 8l634 718l21 -16l-632 -720zM325 392c0 -70 -63 -134 -159 -134c-73 0 -125 30 -125 61c0 15 11 26 27 26c28 0 29 -71 98 -71c56 0 98 44 98 97c0 74 -76 109 -137 111l2 12c70 26 113 68 113 111c0 37 -27 65 -72 65c-38 0 -76 -22 -97 -51l-13 9
c25 43 76 83 140 83c54 0 102 -32 102 -87c0 -50 -43 -87 -95 -110c55 -9 118 -48 118 -122zM682 20c-14 -33 -80 -32 -66 -7l205 366h-213l-27 -55h-12l16 122h16v-12h254v-13z" />
    <glyph glyph-name="foursevenths" horiz-adv-x="930" 
d="M155 8l634 718l21 -16l-632 -720zM344 386h-74v-92l58 -19v-9h-175v9l58 19v92h-181v41l185 273h55v-276h84zM211 424v233h-2l-155 -233h157zM727 20c-14 -33 -80 -32 -66 -7l205 366h-213l-27 -55h-12l16 122h16v-12h254v-13z" />
    <glyph glyph-name="fivesevenths" horiz-adv-x="889" 
d="M114 8l634 718l21 -16l-632 -720zM172 273c61 0 103 54 103 108c0 72 -53 107 -113 107c-27 0 -59 -7 -82 -22l-9 1l5 233h201l12 24h14v-58c0 -12 -5 -21 -24 -21h-187l-3 -125c25 15 58 23 92 23c81 0 151 -47 151 -136c0 -76 -66 -150 -167 -150
c-68 0 -119 29 -119 61c0 14 11 25 27 25c27 0 30 -70 99 -70zM686 20c-14 -33 -80 -32 -66 -7l205 366h-213l-27 -55h-12l16 122h16v-12h254v-13z" />
    <glyph glyph-name="sixsevenths" horiz-adv-x="902" 
d="M127 8l634 718l21 -16l-632 -720zM109 486c24 34 71 51 108 51c72 0 127 -50 127 -127c0 -80 -61 -146 -151 -146s-154 66 -154 170c0 117 82 252 263 288l9 -7c-125 -47 -185 -145 -202 -229zM107 471c-2 -17 -4 -35 -4 -51c0 -82 40 -137 97 -137c46 0 86 38 86 107
c0 80 -51 115 -101 115c-28 0 -59 -12 -78 -34zM699 20c-14 -33 -80 -32 -66 -7l205 366h-213l-27 -55h-12l16 122h16v-12h254v-13z" />
    <glyph glyph-name="oneninth" unicode="&#x2151;" horiz-adv-x="859" 
d="M86 8l634 718l21 -16l-632 -720zM48 275l70 19v358c-21 -13 -57 -16 -80 -15v18c39 -1 80 7 123 52h21c0 -6 -2 -87 -2 -179v-234l65 -19v-9h-197v9zM756 223c-24 -33 -71 -51 -108 -51c-71 0 -126 50 -126 127c0 80 61 146 150 146c90 0 154 -66 154 -170
c0 -117 -82 -252 -263 -288l-8 7c125 47 184 146 201 229zM758 238c3 17 5 35 5 51c0 82 -40 138 -97 138c-47 0 -86 -39 -86 -108c0 -80 50 -115 101 -115c27 0 58 12 77 34z" />
    <glyph glyph-name="twoninths" horiz-adv-x="918" 
d="M145 8l634 718l21 -16l-632 -720zM245 575c0 58 -42 87 -88 87c-56 0 -87 -40 -99 -72l-14 4c7 44 50 115 135 115c76 0 125 -51 125 -113c0 -64 -46 -118 -127 -200l-74 -78h181l47 64h13l-33 -116h-213c-30 0 -56 -4 -56 -4l-8 11c55 53 102 105 140 154s71 98 71 148z
M815 223c-24 -33 -71 -51 -108 -51c-71 0 -126 50 -126 127c0 80 61 146 150 146c90 0 154 -66 154 -170c0 -117 -82 -252 -263 -288l-8 7c125 47 184 146 201 229zM817 238c3 17 5 35 5 51c0 82 -40 138 -97 138c-47 0 -86 -39 -86 -108c0 -80 50 -115 101 -115
c27 0 58 12 77 34z" />
    <glyph glyph-name="fourninths" horiz-adv-x="932" 
d="M154 8l634 718l21 -16l-632 -720zM343 386h-74v-92l58 -19v-9h-175v9l58 19v92h-181v41l185 273h55v-276h84zM210 424v233h-2l-155 -233h157zM824 223c-24 -33 -71 -51 -108 -51c-71 0 -126 50 -126 127c0 80 61 146 150 146c90 0 154 -66 154 -170
c0 -117 -82 -252 -263 -288l-8 7c125 47 184 146 201 229zM826 238c3 17 5 35 5 51c0 82 -40 138 -97 138c-47 0 -86 -39 -86 -108c0 -80 50 -115 101 -115c27 0 58 12 77 34z" />
    <glyph glyph-name="fiveninths" horiz-adv-x="881" 
d="M108 8l634 718l21 -16l-632 -720zM166 273c61 0 103 54 103 108c0 72 -53 107 -113 107c-27 0 -59 -7 -82 -22l-9 1l5 233h201l12 24h14v-58c0 -12 -5 -21 -24 -21h-187l-3 -125c25 15 58 23 92 23c81 0 151 -47 151 -136c0 -76 -66 -150 -167 -150
c-68 0 -119 29 -119 61c0 14 11 25 27 25c27 0 30 -70 99 -70zM778 223c-24 -33 -71 -51 -108 -51c-71 0 -126 50 -126 127c0 80 61 146 150 146c90 0 154 -66 154 -170c0 -117 -82 -252 -263 -288l-8 7c125 47 184 146 201 229zM780 238c3 17 5 35 5 51
c0 82 -40 138 -97 138c-47 0 -86 -39 -86 -108c0 -80 50 -115 101 -115c27 0 58 12 77 34z" />
    <glyph glyph-name="sevenninths" horiz-adv-x="821" 
d="M48 8l634 718l21 -16l-632 -720zM155 286c-14 -33 -80 -32 -66 -7l205 366h-213l-27 -55h-12l16 122h16v-12h254v-13zM718 223c-24 -33 -71 -51 -108 -51c-71 0 -126 50 -126 127c0 80 61 146 150 146c90 0 154 -66 154 -170c0 -117 -82 -252 -263 -288l-8 7
c125 47 184 146 201 229zM720 238c3 17 5 35 5 51c0 82 -40 138 -97 138c-47 0 -86 -39 -86 -108c0 -80 50 -115 101 -115c27 0 58 12 77 34z" />
    <glyph glyph-name="eightninths" horiz-adv-x="891" 
d="M118 8l634 718l21 -16l-632 -720zM319 616c0 -52 -52 -87 -92 -106c63 -35 108 -68 108 -126c0 -71 -64 -127 -153 -127c-82 0 -143 48 -143 109c0 56 42 97 98 125c-49 28 -82 60 -82 109c0 62 59 110 139 110c74 0 125 -42 125 -94zM215 517c36 25 65 61 65 96
c0 49 -38 79 -83 79c-42 0 -82 -27 -82 -72c0 -32 19 -53 69 -84zM190 458l-41 25c-34 -28 -65 -65 -65 -120c0 -48 42 -87 98 -87c60 0 95 41 95 83c0 47 -36 69 -87 99zM788 223c-24 -33 -71 -51 -108 -51c-71 0 -126 50 -126 127c0 80 61 146 150 146
c90 0 154 -66 154 -170c0 -117 -82 -252 -263 -288l-8 7c125 47 184 146 201 229zM790 238c3 17 5 35 5 51c0 82 -40 138 -97 138c-47 0 -86 -39 -86 -108c0 -80 50 -115 101 -115c27 0 58 12 77 34z" />
    <glyph glyph-name="zerosuperior" unicode="&#x2070;" horiz-adv-x="384" 
d="M39 620c0 133 74 226 153 226s153 -93 153 -226s-74 -227 -153 -227s-153 94 -153 227zM276 620c0 132 -26 208 -84 208s-84 -76 -84 -208c0 -133 26 -208 84 -208s84 75 84 208z" />
    <glyph glyph-name="onesuperior" unicode="&#xb9;" horiz-adv-x="251" 
d="M38 410l70 19v358c-21 -13 -57 -16 -80 -15v18c39 -1 80 7 123 52h21c0 -6 -2 -87 -2 -179v-234l65 -19v-9h-197v9z" />
    <glyph glyph-name="twosuperior" unicode="&#xb2;" horiz-adv-x="360" 
d="M237 710c0 58 -42 87 -88 87c-56 0 -87 -40 -99 -72l-14 4c7 44 50 115 135 115c76 0 125 -51 125 -113c0 -64 -46 -118 -127 -200l-74 -78h181l47 64h13l-33 -116h-213c-30 0 -56 -4 -56 -4l-8 11c55 53 102 105 140 154s71 98 71 148z" />
    <glyph glyph-name="threesuperior" unicode="&#xb3;" horiz-adv-x="350" 
d="M313 527c0 -70 -63 -134 -159 -134c-73 0 -125 30 -125 61c0 15 11 26 27 26c28 0 29 -71 98 -71c56 0 98 44 98 97c0 74 -76 109 -137 111l2 12c70 26 113 68 113 111c0 37 -27 65 -72 65c-38 0 -76 -22 -97 -51l-13 9c25 43 76 83 140 83c54 0 102 -32 102 -87
c0 -50 -43 -87 -95 -110c55 -9 118 -48 118 -122z" />
    <glyph glyph-name="foursuperior" unicode="&#x2074;" horiz-adv-x="368" 
d="M337 521h-74v-92l58 -19v-9h-175v9l58 19v92h-181v41l185 273h55v-276h84zM204 559v233h-2l-155 -233h157z" />
    <glyph glyph-name="fivesuperior" unicode="&#x2075;" horiz-adv-x="350" 
d="M159 408c61 0 103 54 103 108c0 72 -53 107 -113 107c-27 0 -59 -7 -82 -22l-9 1l5 233h201l12 24h14v-58c0 -12 -5 -21 -24 -21h-187l-3 -125c25 15 58 23 92 23c81 0 151 -47 151 -136c0 -76 -66 -150 -167 -150c-68 0 -119 29 -119 61c0 14 11 25 27 25
c27 0 30 -70 99 -70z" />
    <glyph glyph-name="sixsuperior" unicode="&#x2076;" horiz-adv-x="371" 
d="M107 621c24 34 71 51 108 51c72 0 127 -50 127 -127c0 -80 -61 -146 -151 -146s-154 66 -154 170c0 117 82 252 263 288l9 -7c-125 -47 -185 -145 -202 -229zM105 606c-2 -17 -4 -35 -4 -51c0 -82 40 -137 97 -137c46 0 86 38 86 107c0 80 -51 115 -101 115
c-28 0 -59 -12 -78 -34z" />
    <glyph glyph-name="sevensuperior" unicode="&#x2077;" horiz-adv-x="326" 
d="M138 421c-14 -33 -80 -32 -66 -7l205 366h-213l-27 -55h-12l16 122h16v-12h254v-13z" />
    <glyph glyph-name="eightsuperior" unicode="&#x2078;" horiz-adv-x="370" 
d="M317 751c0 -52 -52 -87 -92 -106c63 -35 108 -68 108 -126c0 -71 -64 -127 -153 -127c-82 0 -143 48 -143 109c0 56 42 97 98 125c-49 28 -82 60 -82 109c0 62 59 110 139 110c74 0 125 -42 125 -94zM213 652c36 25 65 61 65 96c0 49 -38 79 -83 79
c-42 0 -82 -27 -82 -72c0 -32 19 -53 69 -84zM188 593l-41 25c-34 -28 -65 -65 -65 -120c0 -48 42 -87 98 -87c60 0 95 41 95 83c0 47 -36 69 -87 99z" />
    <glyph glyph-name="ninesuperior" unicode="&#x2079;" horiz-adv-x="370" 
d="M263 624c-24 -33 -71 -51 -108 -51c-71 0 -126 50 -126 127c0 80 61 146 150 146c90 0 154 -66 154 -170c0 -117 -82 -252 -263 -288l-8 7c125 47 184 146 201 229zM265 639c3 17 5 35 5 51c0 82 -40 138 -97 138c-47 0 -86 -39 -86 -108c0 -80 50 -115 101 -115
c27 0 58 12 77 34z" />
    <glyph glyph-name="zeroinferior" unicode="&#x2080;" horiz-adv-x="384" 
d="M39 84c0 133 74 226 153 226s153 -93 153 -226s-74 -227 -153 -227s-153 94 -153 227zM276 84c0 132 -26 208 -84 208s-84 -76 -84 -208c0 -133 26 -208 84 -208s84 75 84 208z" />
    <glyph glyph-name="oneinferior" unicode="&#x2081;" horiz-adv-x="251" 
d="M38 -126l70 19v358c-21 -13 -57 -16 -80 -15v18c39 -1 80 7 123 52h21c0 -6 -2 -87 -2 -179v-234l65 -19v-9h-197v9z" />
    <glyph glyph-name="twoinferior" unicode="&#x2082;" horiz-adv-x="360" 
d="M237 174c0 58 -42 87 -88 87c-56 0 -87 -40 -99 -72l-14 4c7 44 50 115 135 115c76 0 125 -51 125 -113c0 -64 -46 -118 -127 -200l-74 -78h181l47 64h13l-33 -116h-213c-30 0 -56 -4 -56 -4l-8 11c55 53 102 105 140 154s71 98 71 148z" />
    <glyph glyph-name="threeinferior" unicode="&#x2083;" horiz-adv-x="350" 
d="M313 -9c0 -70 -63 -134 -159 -134c-73 0 -125 30 -125 61c0 15 11 26 27 26c28 0 29 -71 98 -71c56 0 98 44 98 97c0 74 -76 109 -137 111l2 12c70 26 113 68 113 111c0 37 -27 65 -72 65c-38 0 -76 -22 -97 -51l-13 9c25 43 76 83 140 83c54 0 102 -32 102 -87
c0 -50 -43 -87 -95 -110c55 -9 118 -48 118 -122z" />
    <glyph glyph-name="fourinferior" unicode="&#x2084;" horiz-adv-x="368" 
d="M337 -15h-74v-92l58 -19v-9h-175v9l58 19v92h-181v41l185 273h55v-276h84zM204 23v233h-2l-155 -233h157z" />
    <glyph glyph-name="fiveinferior" unicode="&#x2085;" horiz-adv-x="350" 
d="M159 -128c61 0 103 54 103 108c0 72 -53 107 -113 107c-27 0 -59 -7 -82 -22l-9 1l5 233h201l12 24h14v-58c0 -12 -5 -21 -24 -21h-187l-3 -125c25 15 58 23 92 23c81 0 151 -47 151 -136c0 -76 -66 -150 -167 -150c-68 0 -119 29 -119 61c0 14 11 25 27 25
c27 0 30 -70 99 -70z" />
    <glyph glyph-name="sixinferior" unicode="&#x2086;" horiz-adv-x="371" 
d="M107 85c24 34 71 51 108 51c72 0 127 -50 127 -127c0 -80 -61 -146 -151 -146s-154 66 -154 170c0 117 82 252 263 288l9 -7c-125 -47 -185 -145 -202 -229zM105 70c-2 -17 -4 -35 -4 -51c0 -82 40 -137 97 -137c46 0 86 38 86 107c0 80 -51 115 -101 115
c-28 0 -59 -12 -78 -34z" />
    <glyph glyph-name="seveninferior" unicode="&#x2087;" horiz-adv-x="326" 
d="M138 -115c-14 -33 -80 -32 -66 -7l205 366h-213l-27 -55h-12l16 122h16v-12h254v-13z" />
    <glyph glyph-name="eightinferior" unicode="&#x2088;" horiz-adv-x="370" 
d="M317 215c0 -52 -52 -87 -92 -106c63 -35 108 -68 108 -126c0 -71 -64 -127 -153 -127c-82 0 -143 48 -143 109c0 56 42 97 98 125c-49 28 -82 60 -82 109c0 62 59 110 139 110c74 0 125 -42 125 -94zM213 116c36 25 65 61 65 96c0 49 -38 79 -83 79
c-42 0 -82 -27 -82 -72c0 -32 19 -53 69 -84zM188 57l-41 25c-34 -28 -65 -65 -65 -120c0 -48 42 -87 98 -87c60 0 95 41 95 83c0 47 -36 69 -87 99z" />
    <glyph glyph-name="nineinferior" unicode="&#x2089;" horiz-adv-x="370" 
d="M263 88c-24 -33 -71 -51 -108 -51c-71 0 -126 50 -126 127c0 80 61 146 150 146c90 0 154 -66 154 -170c0 -117 -82 -252 -263 -288l-8 7c125 47 184 146 201 229zM265 103c3 17 5 35 5 51c0 82 -40 138 -97 138c-47 0 -86 -39 -86 -108c0 -80 50 -115 101 -115
c27 0 58 12 77 34z" />
    <glyph glyph-name="zero.numerator" horiz-adv-x="384" 
d="M39 485c0 133 74 226 153 226s153 -93 153 -226s-74 -227 -153 -227s-153 94 -153 227zM276 485c0 132 -26 208 -84 208s-84 -76 -84 -208c0 -133 26 -208 84 -208s84 75 84 208z" />
    <glyph glyph-name="one.numerator" horiz-adv-x="251" 
d="M38 275l70 19v358c-21 -13 -57 -16 -80 -15v18c39 -1 80 7 123 52h21c0 -6 -2 -87 -2 -179v-234l65 -19v-9h-197v9z" />
    <glyph glyph-name="two.numerator" horiz-adv-x="360" 
d="M237 575c0 58 -42 87 -88 87c-56 0 -87 -40 -99 -72l-14 4c7 44 50 115 135 115c76 0 125 -51 125 -113c0 -64 -46 -118 -127 -200l-74 -78h181l47 64h13l-33 -116h-213c-30 0 -56 -4 -56 -4l-8 11c55 53 102 105 140 154s71 98 71 148z" />
    <glyph glyph-name="three.numerator" horiz-adv-x="350" 
d="M313 392c0 -70 -63 -134 -159 -134c-73 0 -125 30 -125 61c0 15 11 26 27 26c28 0 29 -71 98 -71c56 0 98 44 98 97c0 74 -76 109 -137 111l2 12c70 26 113 68 113 111c0 37 -27 65 -72 65c-38 0 -76 -22 -97 -51l-13 9c25 43 76 83 140 83c54 0 102 -32 102 -87
c0 -50 -43 -87 -95 -110c55 -9 118 -48 118 -122z" />
    <glyph glyph-name="four.numerator" horiz-adv-x="368" 
d="M336 386h-74v-92l58 -19v-9h-175v9l58 19v92h-181v41l185 273h55v-276h84zM203 424v233h-2l-155 -233h157z" />
    <glyph glyph-name="five.numerator" horiz-adv-x="350" 
d="M159 273c61 0 103 54 103 108c0 72 -53 107 -113 107c-27 0 -59 -7 -82 -22l-9 1l5 233h201l12 24h14v-58c0 -12 -5 -21 -24 -21h-187l-3 -125c25 15 58 23 92 23c81 0 151 -47 151 -136c0 -76 -66 -150 -167 -150c-68 0 -119 29 -119 61c0 14 11 25 27 25
c27 0 30 -70 99 -70z" />
    <glyph glyph-name="six.numerator" horiz-adv-x="371" 
d="M107 486c24 34 71 51 108 51c72 0 127 -50 127 -127c0 -80 -61 -146 -151 -146s-154 66 -154 170c0 117 82 252 263 288l9 -7c-125 -47 -185 -145 -202 -229zM105 471c-2 -17 -4 -35 -4 -51c0 -82 40 -137 97 -137c46 0 86 38 86 107c0 80 -51 115 -101 115
c-28 0 -59 -12 -78 -34z" />
    <glyph glyph-name="seven.numerator" horiz-adv-x="326" 
d="M138 286c-14 -33 -80 -32 -66 -7l205 366h-213l-27 -55h-12l16 122h16v-12h254v-13z" />
    <glyph glyph-name="eight.numerator" horiz-adv-x="370" 
d="M317 616c0 -52 -52 -87 -92 -106c63 -35 108 -68 108 -126c0 -71 -64 -127 -153 -127c-82 0 -143 48 -143 109c0 56 42 97 98 125c-49 28 -82 60 -82 109c0 62 59 110 139 110c74 0 125 -42 125 -94zM213 517c36 25 65 61 65 96c0 49 -38 79 -83 79
c-42 0 -82 -27 -82 -72c0 -32 19 -53 69 -84zM188 458l-41 25c-34 -28 -65 -65 -65 -120c0 -48 42 -87 98 -87c60 0 95 41 95 83c0 47 -36 69 -87 99z" />
    <glyph glyph-name="nine.numerator" horiz-adv-x="370" 
d="M263 489c-24 -33 -71 -51 -108 -51c-71 0 -126 50 -126 127c0 80 61 146 150 146c90 0 154 -66 154 -170c0 -117 -82 -252 -263 -288l-8 7c125 47 184 146 201 229zM265 504c3 17 5 35 5 51c0 82 -40 138 -97 138c-47 0 -86 -39 -86 -108c0 -80 50 -115 101 -115
c27 0 58 12 77 34z" />
    <glyph glyph-name="zero.denominator" horiz-adv-x="384" 
d="M39 219c0 133 74 226 153 226s153 -93 153 -226s-74 -227 -153 -227s-153 94 -153 227zM276 219c0 132 -26 208 -84 208s-84 -76 -84 -208c0 -133 26 -208 84 -208s84 75 84 208z" />
    <glyph glyph-name="one.denominator" horiz-adv-x="251" 
d="M38 9l70 19v358c-21 -13 -57 -16 -80 -15v18c39 -1 80 7 123 52h21c0 -6 -2 -87 -2 -179v-234l65 -19v-9h-197v9z" />
    <glyph glyph-name="two.denominator" horiz-adv-x="360" 
d="M237 309c0 58 -42 87 -88 87c-56 0 -87 -40 -99 -72l-14 4c7 44 50 115 135 115c76 0 125 -51 125 -113c0 -64 -46 -118 -127 -200l-74 -78h181l47 64h13l-33 -116h-213c-30 0 -56 -4 -56 -4l-8 11c55 53 102 105 140 154s71 98 71 148z" />
    <glyph glyph-name="three.denominator" horiz-adv-x="350" 
d="M313 126c0 -70 -63 -134 -159 -134c-73 0 -125 30 -125 61c0 15 11 26 27 26c28 0 29 -71 98 -71c56 0 98 44 98 97c0 74 -76 109 -137 111l2 12c70 26 113 68 113 111c0 37 -27 65 -72 65c-38 0 -76 -22 -97 -51l-13 9c25 43 76 83 140 83c54 0 102 -32 102 -87
c0 -50 -43 -87 -95 -110c55 -9 118 -48 118 -122z" />
    <glyph glyph-name="four.denominator" horiz-adv-x="368" 
d="M337 120h-74v-92l58 -19v-9h-175v9l58 19v92h-181v41l185 273h55v-276h84zM204 158v233h-2l-155 -233h157z" />
    <glyph glyph-name="five.denominator" horiz-adv-x="350" 
d="M159 7c61 0 103 54 103 108c0 72 -53 107 -113 107c-27 0 -59 -7 -82 -22l-9 1l5 233h201l12 24h14v-58c0 -12 -5 -21 -24 -21h-187l-3 -125c25 15 58 23 92 23c81 0 151 -47 151 -136c0 -76 -66 -150 -167 -150c-68 0 -119 29 -119 61c0 14 11 25 27 25
c27 0 30 -70 99 -70z" />
    <glyph glyph-name="six.denominator" horiz-adv-x="371" 
d="M107 220c24 34 71 51 108 51c72 0 127 -50 127 -127c0 -80 -61 -146 -151 -146s-154 66 -154 170c0 117 82 252 263 288l9 -7c-125 -47 -185 -145 -202 -229zM105 205c-2 -17 -4 -35 -4 -51c0 -82 40 -137 97 -137c46 0 86 38 86 107c0 80 -51 115 -101 115
c-28 0 -59 -12 -78 -34z" />
    <glyph glyph-name="seven.denominator" horiz-adv-x="326" 
d="M138 20c-14 -33 -80 -32 -66 -7l205 366h-213l-27 -55h-12l16 122h16v-12h254v-13z" />
    <glyph glyph-name="eight.denominator" horiz-adv-x="370" 
d="M317 350c0 -52 -52 -87 -92 -106c63 -35 108 -68 108 -126c0 -71 -64 -127 -153 -127c-82 0 -143 48 -143 109c0 56 42 97 98 125c-49 28 -82 60 -82 109c0 62 59 110 139 110c74 0 125 -42 125 -94zM213 251c36 25 65 61 65 96c0 49 -38 79 -83 79
c-42 0 -82 -27 -82 -72c0 -32 19 -53 69 -84zM188 192l-41 25c-34 -28 -65 -65 -65 -120c0 -48 42 -87 98 -87c60 0 95 41 95 83c0 47 -36 69 -87 99z" />
    <glyph glyph-name="nine.denominator" horiz-adv-x="370" 
d="M263 223c-24 -33 -71 -51 -108 -51c-71 0 -126 50 -126 127c0 80 61 146 150 146c90 0 154 -66 154 -170c0 -117 -82 -252 -263 -288l-8 7c125 47 184 146 201 229zM265 238c3 17 5 35 5 51c0 82 -40 138 -97 138c-47 0 -86 -39 -86 -108c0 -80 50 -115 101 -115
c27 0 58 12 77 34z" />
    <glyph glyph-name="plus" unicode="+" horiz-adv-x="608" 
d="M286 62v251h-254v34h254v251h36v-251h254v-34h-254v-251h-36z" />
    <glyph glyph-name="minus" unicode="&#x2212;" horiz-adv-x="524" 
d="M456 313h-388v34h388v-34z" />
    <glyph glyph-name="multiply" unicode="&#xd7;" horiz-adv-x="621" 
d="M548 68l-238 238l-237 -238l-24 24l237 238l-237 238l24 24l237 -238l238 238l24 -24l-238 -238l238 -238z" />
    <glyph glyph-name="divide" unicode="&#xf7;" horiz-adv-x="568" 
d="M283 426c-36 0 -64 29 -64 65c0 35 28 64 64 64s66 -29 66 -64c0 -36 -30 -65 -66 -65zM518 313h-468v34h468v-34zM283 107c-36 0 -64 28 -64 64s28 65 64 65s66 -29 66 -65s-30 -64 -66 -64z" />
    <glyph glyph-name="equal" unicode="=" horiz-adv-x="524" 
d="M68 421h388v-34h-388v34zM68 272h388v-34h-388v34z" />
    <glyph glyph-name="logicalnot" unicode="&#xac;" horiz-adv-x="522" 
d="M412 238v149h-351v34h388v-183h-37z" />
    <glyph glyph-name="asciitilde" unicode="~" horiz-adv-x="615" 
d="M454 329c19 0 49 -2 92 44l2 -3c-21 -38 -57 -73 -115 -73c-43 0 -214 44 -260 44c-39 0 -68 -12 -98 -49l-3 5c44 76 98 78 122 78c39 0 212 -46 260 -46z" />
    <glyph glyph-name="less" unicode="&#x3c;" horiz-adv-x="479" 
d="M421 82l-394 282v4l394 282l4 -3c-22 -59 -191 -233 -327 -281c136 -47 305 -222 327 -281z" />
    <glyph glyph-name="greater" unicode="&#x3e;" horiz-adv-x="480" 
d="M59 82l-4 3c22 59 191 234 327 281c-136 48 -305 222 -327 281l4 3l394 -282v-4z" />
    <glyph glyph-name="plusminus" unicode="&#xb1;" horiz-adv-x="647" 
d="M306 122v251h-254v34h254v251h36v-251h253v-34h-253v-251h-36zM52 0v34h543v-34h-543z" />
    <glyph glyph-name="asciicircum" unicode="^" horiz-adv-x="503" 
d="M73 246h-41l199 465h41l199 -465h-41l-178 427z" />
    <glyph glyph-name="notequal" unicode="&#x2260;" horiz-adv-x="524" 
d="M456 213h-176v-151h-36v151h-176v34h176v166h-176v34h176v151h36v-151h176v-34h-176v-166h176v-34z" />
    <glyph glyph-name="approxequal" unicode="&#x2248;" horiz-adv-x="616" 
d="M451 444c28 0 59 3 98 46l5 -4c-23 -58 -70 -96 -132 -96c-49 0 -196 45 -242 45c-42 0 -73 -14 -102 -49l-6 5c40 88 102 100 137 100c46 0 195 -47 242 -47zM451 274c28 0 59 3 98 46l5 -4c-23 -58 -70 -96 -132 -96c-49 0 -196 45 -242 45c-42 0 -73 -14 -102 -49
l-6 5c40 88 102 100 137 100c46 0 195 -47 242 -47z" />
    <glyph glyph-name="lessequal" unicode="&#x2264;" horiz-adv-x="506" 
d="M440 102l-394 282v4l394 282l4 -3c-22 -59 -191 -233 -327 -281c136 -47 305 -222 327 -281zM37 0v34h438v-34h-438z" />
    <glyph glyph-name="greaterequal" unicode="&#x2265;" horiz-adv-x="506" 
d="M66 102l-4 3c22 59 191 234 327 281c-136 48 -305 222 -327 281l4 3l394 -282v-4zM469 0h-438v34h438v-34z" />
    <glyph glyph-name="infinity" unicode="&#x221e;" horiz-adv-x="940" 
d="M271 578c103 0 169 -90 208 -185c60 111 122 185 220 185c102 0 186 -97 186 -231c0 -139 -93 -235 -215 -235s-184 113 -209 183c-59 -111 -121 -183 -220 -183c-101 0 -185 97 -185 231c0 139 93 235 215 235zM252 163c92 0 163 82 198 158c-44 108 -91 211 -200 211
c-106 0 -167 -93 -167 -179c0 -110 83 -190 169 -190zM689 527c-92 0 -163 -82 -199 -158c45 -108 92 -211 200 -211c107 0 168 93 168 180c0 110 -83 189 -169 189z" />
    <glyph glyph-name="lozenge" unicode="&#x25ca;" horiz-adv-x="603" 
d="M284 23l-264 324v4l264 325l4 -2c-12 -119 -136 -277 -242 -325c106 -47 230 -205 242 -324zM319 23l-4 2c12 119 136 277 242 324c-106 48 -230 206 -242 325l4 2l264 -325v-4z" />
    <glyph glyph-name="radical" unicode="&#x221a;" horiz-adv-x="654" 
d="M318 -209h-12l-189 485l-130 -77l-8 20l193 111l166 -427l287 916h47z" />
    <glyph glyph-name="integral" unicode="&#x222b;" horiz-adv-x="697" 
d="M200 -56l170 597c21 74 53 141 113 183c46 31 96 44 139 44c52 0 103 -16 103 -39c1 -21 -28 -45 -51 -45c-6 0 -11 2 -13 5c-23 33 -55 49 -85 49c-45 0 -103 -42 -135 -152l-169 -584c-57 -198 -131 -262 -225 -262c-36 0 -71 19 -72 41c0 24 16 42 45 42
c11 0 34 -51 68 -51c39 0 69 19 112 172z" />
    <glyph glyph-name="pi" unicode="&#x3c0;" horiz-adv-x="648" 
d="M638 74c-10 -36 -50 -85 -123 -85c-76 0 -104 46 -104 76v357h-159v-282c0 -107 -54 -150 -121 -150c-61 0 -101 43 -101 92c0 55 40 90 76 90c28 0 54 -17 54 -51c0 -25 -21 -46 -46 -46c-29 0 -50 22 -45 54c-7 -14 -10 -30 -10 -46c0 -33 30 -66 73 -66
c44 0 89 30 89 121v284h-112v36h516l-21 -36h-133v-324c0 -35 15 -67 78 -67c35 0 68 19 79 45z" />
    <glyph glyph-name="mu" unicode="&#xb5;" horiz-adv-x="537" 
d="M116 -131h-28v537l-65 18v13c48 1 93 14 115 30h10v-347c0 -57 41 -93 96 -93c47 0 88 20 138 71v308l-66 18v13c48 1 95 14 117 30h11c-3 -73 -2 -137 -2 -195v-227l72 -9v-13c-43 -5 -88 -17 -124 -32h-7v99c-47 -77 -114 -105 -165 -105c-45 0 -80 15 -102 42v-158z
" />
    <glyph glyph-name="summation" unicode="&#x2211;" horiz-adv-x="663" 
d="M618 195l-24 -195h-551v23l266 313l-246 341v23h516l-1 -153l-15 -1l-65 129h-351l218 -301v-14l-260 -301h419l79 140z" />
    <glyph glyph-name="Omega" unicode="&#x2126;" horiz-adv-x="716" 
d="M292 156v-156h-215v154h12l43 -95h133v83c-123 59 -225 155 -225 296c0 121 99 277 318 277s318 -156 318 -277c0 -141 -102 -237 -225 -296v-83h133l43 95h12v-154h-215v156c100 71 175 156 175 289c0 136 -100 241 -241 241s-241 -105 -241 -241
c0 -133 75 -218 175 -289z" />
    <glyph glyph-name="Delta" unicode="&#x2206;" horiz-adv-x="766" 
d="M32 0v27l338 673h27l337 -673v-27h-702zM71 31h579l-289 581z" />
    <glyph glyph-name="uni2113" unicode="&#x2113;" horiz-adv-x="373" 
d="M48 194l-28 15c22 16 68 59 68 59v320c0 71 45 121 108 121c54 0 103 -34 103 -124c0 -108 -66 -226 -142 -297v-192c0 -44 27 -65 62 -65c33 0 64 24 69 65l25 -4c-15 -89 -69 -105 -116 -105s-109 23 -109 108v135s-31 -29 -40 -36zM157 602v-275
c91 104 111 208 111 261c0 56 -25 85 -60 85c-40 0 -51 -35 -51 -71z" />
    <glyph glyph-name="estimated" unicode="&#x212e;" horiz-adv-x="872" 
d="M196 332v-172c0 -86 165 -140 247 -140c104 0 201 38 265 111h47c-72 -90 -182 -142 -312 -142c-216 0 -395 162 -395 364c0 198 175 359 395 359c242 0 397 -164 397 -368h-635c-7 0 -9 -4 -9 -12zM205 375h477c7 0 9 2 9 9v168c0 88 -160 130 -248 130
c-80 0 -247 -42 -247 -130v-168c0 -7 2 -9 9 -9z" />
    <glyph glyph-name="arrowleft" unicode="&#x2190;" horiz-adv-x="813" 
d="M774 327l-642 10l221 -253l-18 -19l-305 294l305 294l18 -19l-221 -253l642 10v-64z" />
    <glyph glyph-name="arrowup" unicode="&#x2191;" horiz-adv-x="634" 
d="M285 0l10 642l-253 -221l-19 18l294 305l294 -305l-19 -18l-253 221l11 -642h-65z" />
    <glyph glyph-name="arrowright" unicode="&#x2192;" horiz-adv-x="813" 
d="M39 327v64l642 -10l-221 253l18 19l305 -294l-305 -294l-18 19l221 253z" />
    <glyph glyph-name="arrowdown" unicode="&#x2193;" horiz-adv-x="636" 
d="M286 744h65l-11 -642l253 221l19 -18l-294 -305l-294 305l19 18l253 -221z" />
    <glyph glyph-name="arrowupleft" unicode="&#x2196;" horiz-adv-x="648" 
d="M562 96l-445 461l-22 -336h-27l-7 423l423 -7v-27l-336 -22l461 -445z" />
    <glyph glyph-name="arrowupright" unicode="&#x2197;" horiz-adv-x="648" 
d="M86 96l-47 47l461 445l-336 22v27l423 7l-7 -423h-27l-22 336z" />
    <glyph glyph-name="arrowdownleft" unicode="&#x2199;" horiz-adv-x="649" 
d="M563 644l47 -47l-461 -445l336 -22v-27l-423 -7l7 423h27l22 -336z" />
    <glyph glyph-name="arrowdownright" unicode="&#x2198;" horiz-adv-x="649" 
d="M86 644l445 -461l22 336h27l7 -423l-423 7v27l336 22l-461 445z" />
    <glyph glyph-name="at.case" horiz-adv-x="816" 
d="M367 -55c-230 0 -321 147 -321 306c0 226 190 471 445 471c178 0 292 -113 292 -265c0 -171 -116 -316 -259 -324c-49 0 -66 34 -52 77l16 50l-6 2c-66 -96 -125 -132 -175 -132c-51 0 -68 43 -68 78c0 108 138 343 289 343c35 0 65 -13 77 -20l10 17c4 7 14 9 25 9
c13 0 18 -3 16 -8l-122 -332c-14 -38 -9 -53 20 -53c76 0 207 115 207 295c0 141 -107 236 -264 236c-223 0 -386 -240 -386 -444c0 -143 82 -276 276 -276c110 0 210 47 276 98c6 0 11 -4 11 -9c0 -2 0 -4 -3 -6c-71 -56 -186 -113 -304 -113zM530 371l35 85
c24 55 0 81 -27 81c-118 0 -233 -253 -233 -324c0 -24 15 -38 39 -38c54 0 143 92 186 196z" />
    <glyph glyph-name="hyphen.case" horiz-adv-x="377" 
d="M68 304v60h241v-60h-241z" />
    <glyph glyph-name="endash.case" horiz-adv-x="573" 
d="M71 304v50h431v-50h-431z" />
    <glyph glyph-name="emdash.case" horiz-adv-x="933" 
d="M71 304v50h791v-50h-791z" />
    <glyph glyph-name="questiondown.case" horiz-adv-x="414" 
d="M246 714c31 0 57 -26 57 -57s-26 -57 -57 -57s-57 26 -57 57s26 57 57 57zM237 475h18l15 -176c-120 -11 -169 -90 -169 -160c0 -66 48 -126 122 -126c72 0 119 45 119 74c0 17 -48 17 -48 49c0 18 16 37 40 37c29 0 48 -26 48 -54c0 -74 -77 -135 -168 -135
c-120 0 -181 89 -181 169c0 113 94 193 195 205z" />
    <glyph glyph-name="exclamdown.case" horiz-adv-x="274" 
d="M80 653c0 31 26 57 57 57s57 -26 57 -57s-26 -57 -57 -57s-57 26 -57 57zM128 471h18c8 -239 36 -394 36 -436c0 -29 -17 -50 -45 -50s-45 21 -45 50c0 42 28 197 36 436z" />
    <glyph glyph-name="guillemotleft.case" horiz-adv-x="511" 
d="M124 367l123 -222l-12 -2l-184 220v9l184 218l12 -2zM324 367l123 -222l-12 -2l-184 220v9l184 218l12 -2z" />
    <glyph glyph-name="guillemotright.case" horiz-adv-x="511" 
d="M387 367l-123 221l12 2l184 -218v-9l-184 -220l-12 2zM187 367l-123 221l12 2l184 -218v-9l-184 -220l-12 2z" />
    <glyph glyph-name="guilsinglleft.case" horiz-adv-x="311" 
d="M124 367l123 -222l-12 -2l-184 220v9l184 218l12 -2z" />
    <glyph glyph-name="guilsinglright.case" horiz-adv-x="311" 
d="M187 367l-123 221l12 2l184 -218v-9l-184 -220l-12 2z" />
    <glyph glyph-name="less.alt" horiz-adv-x="1497" 
d="M1371 578c28 -58 61 -199 61 -330c0 -145 -38 -256 -83 -256c-43 0 -82 89 -89 202c-70 -21 -136 -39 -209 -39c-44 0 -70 6 -78 6c-21 -32 -87 -70 -152 -70c-50 0 -109 33 -109 61c0 31 126 115 124 113c2 2 2 4 2 5c0 4 -2 9 -5 9c-11 0 -35 -17 -66 -39
c-63 -47 -69 -72 -86 -72c-7 0 -33 5 -58 23c-44 33 -50 50 -50 63c0 36 178 132 178 135c0 4 -2 7 -6 7c-15 0 -57 -26 -84 -43c-63 -35 -104 -78 -114 -78c-45 0 -75 66 -75 86c0 56 135 122 160 134c-11 -1 -23 -1 -34 -1c-49 0 -77 9 -99 15l-9 2
c-25 -6 -70 -24 -111 -29c-44 -6 -101 0 -123 -8c-28 -8 -59 -38 -124 -38c-54 0 -105 18 -105 64c0 55 78 26 96 50c2 6 10 9 11 10c219 72 461 123 592 123c93 0 332 -56 446 -80l52 -12c22 -4 47 -9 74 -10c7 0 21 1 33 1c14 0 28 -1 40 -4zM54 514c-6 -3 -9 -9 -9 -15
c0 -14 10 -18 21 -18c27 0 61 39 61 51c0 1 -1 3 -2 3c-2 0 -30 -41 -58 -41c-1 0 -11 0 -11 9c0 2 0 4 3 7c0 4 -5 4 -5 4zM853 110c33 0 93 39 93 58c0 4 -6 8 -7 8c-12 0 -8 -34 -86 -51c-6 -3 -7 -4 -7 -6c0 -9 5 -9 7 -9z" />
    <glyph glyph-name="greater.alt" horiz-adv-x="1497" 
d="M237 194c-7 -113 -46 -202 -89 -202c-45 0 -83 111 -83 256c0 131 33 272 61 330c12 3 26 4 40 4c12 0 26 -1 33 -1c27 1 52 6 74 10l52 12c114 24 353 80 446 80c131 0 373 -51 592 -123c1 -1 9 -4 11 -10c18 -24 96 5 96 -50c0 -46 -51 -64 -105 -64
c-65 0 -96 30 -124 38c-22 8 -79 2 -123 8c-41 5 -86 23 -111 29l-9 -2c-22 -6 -50 -15 -99 -15c-11 0 -23 0 -34 1c25 -12 160 -78 160 -134c0 -20 -30 -86 -75 -86c-10 0 -51 43 -114 78c-27 17 -69 43 -84 43c-4 0 -6 -3 -6 -7c0 -3 178 -99 178 -135
c0 -13 -6 -30 -50 -63c-25 -18 -51 -23 -58 -23c-17 0 -23 25 -86 72c-31 22 -55 39 -66 39c-3 0 -5 -5 -5 -9c0 -1 0 -3 2 -5c-1 2 124 -82 124 -113c0 -28 -59 -61 -109 -61c-65 0 -131 38 -152 70c-8 0 -34 -6 -78 -6c-73 0 -139 18 -209 39zM1443 514c0 0 -5 0 -5 -4
c3 -3 3 -5 3 -7c0 -9 -10 -9 -11 -9c-28 0 -56 41 -58 41c-1 0 -2 -2 -2 -3c0 -12 34 -51 61 -51c11 0 21 4 21 18c0 6 -3 12 -9 15zM644 110c2 0 7 0 7 9c0 2 -1 3 -7 6c-78 17 -74 51 -86 51c-1 0 -7 -4 -7 -8c0 -19 60 -58 93 -58z" />
    <glyph glyph-name="orn.1" horiz-adv-x="683" 
d="M376 -15c-178 0 -329 132 -329 351c0 210 169 379 378 379c67 0 134 -17 189 -47l-9 -15c-52 29 -114 45 -179 45c-198 0 -359 -164 -359 -362c0 -96 34 -185 94 -250l2 2c-34 47 -54 105 -54 163c0 147 121 266 268 266c146 0 266 -119 266 -266
c0 -146 -121 -266 -267 -266z" />
    <glyph glyph-name="orn.2" horiz-adv-x="683" 
d="M258 -15c-67 0 -134 17 -189 47l9 15c52 -29 114 -45 179 -45c198 0 359 164 359 362c0 96 -34 185 -94 250l-2 -2c34 -47 54 -105 54 -163c0 -147 -121 -266 -268 -266c-146 0 -266 119 -266 266c0 146 121 266 267 266c178 0 329 -132 329 -351
c0 -210 -169 -379 -378 -379z" />
    <glyph glyph-name="orn.3" horiz-adv-x="910" 
d="M871 501c0 -272 -421 -538 -421 -538s-409 266 -409 538c0 128 71 220 193 220c109 0 183 -69 183 -192h78c0 123 79 192 185 192c121 0 191 -92 191 -220z" />
    <glyph glyph-name="orn.4" horiz-adv-x="896" 
d="M448 57c-16 -52 -53 -109 -113 -109c-44 0 -99 43 -99 99v4c-9 -3 -19 -4 -31 -4c-67 0 -104 52 -104 95c0 49 32 84 76 113c-78 0 -144 28 -144 98c0 44 32 87 73 101c-13 15 -21 39 -21 62c0 66 52 96 95 96c37 0 69 -18 101 -41c-12 23 -16 48 -16 71
c0 51 35 103 97 103c31 0 69 -19 86 -45c18 26 56 45 85 45c63 0 98 -52 98 -103c0 -23 -5 -48 -15 -71c29 23 63 41 100 41c42 0 95 -30 95 -96c0 -23 -8 -47 -20 -62c39 -14 73 -57 73 -101c0 -70 -67 -98 -145 -98c44 -29 75 -64 75 -113c0 -43 -36 -95 -102 -95
c-13 0 -23 1 -33 4v-4c0 -56 -55 -99 -98 -99c-60 0 -96 57 -113 109zM455 643h-14c-8 22 -31 41 -60 41c-43 0 -64 -33 -64 -68c0 -56 36 -116 70 -151c11 4 20 8 32 10l-39 66c-9 1 -18 11 -18 22s9 23 22 23c12 0 23 -10 23 -24c0 -3 -1 -6 -4 -10l28 -74c3 0 6 1 10 1
l-7 95c-6 4 -11 11 -11 18c0 13 11 25 25 25c13 0 25 -12 25 -25c0 -7 -5 -14 -12 -18l-6 -95c3 0 7 -1 11 -1l27 74c-3 4 -4 7 -4 10c0 14 10 24 23 24s21 -12 21 -23s-8 -21 -18 -22l-38 -66c12 -2 21 -6 32 -10c34 35 70 95 70 151c0 35 -21 68 -64 68
c-28 0 -52 -19 -60 -41zM585 367l78 -3c5 4 11 6 16 6c14 0 23 -8 23 -20c0 -16 -12 -23 -23 -23c-6 0 -16 5 -20 14l-72 13c1 -5 1 -11 1 -15c0 -7 0 -12 -1 -16c31 -16 73 -28 113 -28c17 0 34 3 49 8c27 8 49 29 49 60c0 37 -27 62 -61 66l-3 13c15 10 24 29 24 49
c0 45 -37 63 -63 63c-59 0 -120 -68 -146 -119c6 -8 13 -16 20 -27l51 58v5c0 12 11 21 21 21c11 0 22 -9 22 -22c0 -12 -8 -22 -22 -22h-5l-62 -50l4 -9l88 36c3 9 11 18 21 18c12 0 26 -10 26 -25c0 -9 -9 -22 -23 -22c-6 0 -11 1 -14 6l-94 -24c1 -6 3 -8 3 -11zM148 303
c15 -5 31 -8 48 -8c40 0 83 12 112 28v31l-72 -13c-3 -9 -12 -14 -19 -14c-11 0 -23 7 -23 23c0 12 10 20 23 20c6 0 10 -2 16 -6l78 3c0 3 1 5 4 11l-94 24c-4 -5 -9 -6 -15 -6c-14 0 -22 13 -22 22c0 15 13 25 24 25s19 -9 20 -18l90 -36l4 9l-61 50h-6
c-13 0 -22 10 -22 22c0 13 11 22 22 22c10 0 22 -9 22 -21v-5l49 -58c8 11 15 19 21 27c-26 51 -86 119 -146 119c-26 0 -63 -18 -63 -63c0 -20 10 -39 25 -49l-4 -13c-34 -4 -61 -29 -61 -66c0 -31 21 -52 50 -60zM359 145l20 71l-11 6l-47 -77c1 -2 1 -5 1 -9
c0 -11 -10 -21 -22 -21c-13 0 -24 9 -24 22c0 15 10 25 24 25l59 68l-9 8l-63 -41c-2 -11 -7 -21 -22 -21c-10 0 -21 10 -21 23c0 10 10 21 22 21c3 0 7 0 11 -1l64 29c-7 8 -15 18 -18 27c-61 -10 -158 -56 -158 -122c0 -27 24 -62 66 -62c12 0 24 4 34 10l9 -5
c-1 -5 -2 -11 -2 -15c0 -35 29 -69 66 -69c21 0 41 14 55 33c22 32 31 78 31 120c0 11 0 24 -2 34c-11 2 -22 7 -32 10l-7 -68c4 -5 7 -9 7 -15c0 -12 -10 -23 -24 -23c-12 0 -21 10 -21 21c0 9 5 18 14 21zM517 216l20 -71c9 -3 14 -12 14 -21c0 -11 -9 -21 -21 -21
c-15 0 -24 11 -24 23c0 6 3 10 7 15l-7 68c-10 -3 -20 -8 -32 -10c-2 -10 -2 -23 -2 -34c0 -42 9 -88 32 -120c13 -19 33 -33 54 -33c37 0 65 34 65 69c0 4 0 10 -1 15l9 5c10 -6 23 -10 34 -10c42 0 66 35 66 62c0 66 -96 112 -158 122c-4 -9 -11 -19 -18 -27l65 -29
c3 1 6 1 10 1c11 0 22 -11 22 -21c0 -13 -11 -23 -21 -23c-14 0 -20 10 -22 21l-63 41l-9 -8l59 -68c14 0 25 -10 25 -25c0 -13 -12 -22 -25 -22s-22 10 -22 21c0 4 0 7 1 9l-48 77z" />
    <glyph glyph-name="orn.5" horiz-adv-x="809" 
d="M404 -15c-198 0 -358 163 -358 365s160 366 358 366s359 -164 359 -366s-161 -365 -359 -365z" />
    <glyph glyph-name="orn.6" horiz-adv-x="809" 
d="M405 -15c-198 0 -359 163 -359 365s161 366 359 366s358 -164 358 -366s-160 -365 -358 -365zM387 175l-134 148l405 -2v57l-405 -1l134 148l-32 32l-215 -207l215 -207z" />
    <glyph glyph-name="orn.7" horiz-adv-x="809" 
d="M404 -15c-198 0 -358 163 -358 365s160 366 358 366s359 -164 359 -366s-161 -365 -359 -365zM422 175l32 -32l215 207l-215 207l-32 -32l134 -148l-405 1v-57l405 2z" />
    <glyph glyph-name="A.smcp" horiz-adv-x="594" 
d="M181 9v-9h-174v9l57 24l199 504l-9 23c22 1 40 10 57 23l220 -549l55 -25v-9h-203v9l80 24l-84 211h-204l-79 -211zM183 266h188l-97 243z" />
    <glyph glyph-name="B.smcp" horiz-adv-x="574" 
d="M51 551v9h263c121 0 174 -59 174 -128c0 -81 -87 -132 -152 -134c101 -2 185 -59 185 -144c0 -94 -83 -154 -198 -154h-272v9l70 24v494zM296 538h-111v-233h102c82 0 136 45 136 125c0 64 -47 108 -127 108zM307 284h-122v-262h119c93 0 150 48 150 130
c0 97 -75 132 -147 132z" />
    <glyph glyph-name="C.smcp" horiz-adv-x="658" 
d="M577 8l-29 38c-44 -26 -113 -58 -194 -58c-176 0 -301 126 -301 292s126 292 294 292c86 0 156 -31 200 -57l29 37h14v-163h-13c-58 106 -123 158 -227 158c-108 0 -225 -90 -225 -267s117 -267 232 -267c100 0 161 52 221 168h13v-173h-14z" />
    <glyph glyph-name="D.smcp" horiz-adv-x="679" 
d="M51 551v9h250c219 0 323 -127 323 -280s-104 -280 -323 -280h-250v9l70 24v494zM285 538h-100v-516h100c153 0 272 77 272 258s-119 258 -272 258z" />
    <glyph glyph-name="E.smcp" horiz-adv-x="570" 
d="M51 551v9h426l16 -106l-10 -5l-71 89h-227v-245h166l33 73h10v-174h-10l-32 80h-167v-250h250l91 101l10 -5l-31 -118h-454v9l70 24v494z" />
    <glyph glyph-name="F.smcp" horiz-adv-x="505" 
d="M51 551v9h409l16 -106l-11 -5l-70 89h-210v-245h164l33 73h10v-165h-10l-32 71h-165v-238l80 -25v-9h-214v9l70 24v494z" />
    <glyph glyph-name="G.smcp" horiz-adv-x="703" 
d="M642 88c-24 -23 -123 -102 -270 -102c-197 0 -318 132 -318 292c0 166 127 294 308 294c91 0 156 -31 197 -56l29 36h14v-163h-14c-58 107 -125 159 -225 159c-107 0 -237 -74 -237 -267c0 -161 115 -264 268 -264c53 0 96 8 132 22v195l-102 25v9h232v-9l-68 -31v-160
c18 11 36 23 54 36v-16z" />
    <glyph glyph-name="H.smcp" 
d="M264 9v-9h-213v9l70 24v494l-70 24v9h213v-9l-79 -25v-225h334v225l-78 25v9h213v-9l-71 -24v-494l71 -24v-9h-213v9l78 25v244h-334v-244z" />
    <glyph glyph-name="I.smcp" horiz-adv-x="307" 
d="M256 9v-9h-205v9l70 24v494l-70 24v9h205v-9l-71 -24v-494z" />
    <glyph glyph-name="J.smcp" horiz-adv-x="396" 
d="M290 52c0 -95 -68 -142 -146 -142c-89 0 -126 58 -126 99c0 35 24 55 47 55c20 0 38 -16 38 -39c0 -22 -16 -33 -36 -37c-8 -2 -10 -12 -4 -23c13 -20 39 -31 68 -31c51 0 95 32 95 110v483l-72 24v9h183v-9l-47 -21v-478z" />
    <glyph glyph-name="K.smcp" horiz-adv-x="619" 
d="M264 9v-9h-213v9l70 24v494l-70 24v9h212v-9l-78 -25v-219h18l253 218l-78 26v9h202v-9l-83 -31l-250 -198l300 -289l72 -24v-9h-227v9l72 21l-263 255h-16v-251z" />
    <glyph glyph-name="L.smcp" horiz-adv-x="543" 
d="M51 551v9h213v-9l-79 -25v-504h233l97 108l10 -5l-31 -125h-443v9l70 24v494z" />
    <glyph glyph-name="M.smcp" horiz-adv-x="810" 
d="M237 0h-193v9l77 30l2 486l-65 26v9h148l203 -468l202 468h147v-9l-71 -26l1 -492l78 -24v-9h-221v9l78 24v492l-229 -525h-14l-231 525l2 -486l86 -30v-9z" />
    <glyph glyph-name="N.smcp" horiz-adv-x="699" 
d="M230 0h-180v9l70 23l4 486l-73 33v9h135l371 -464l-3 432l-79 23v9h172v-9l-63 -24l-3 -534h-23l-408 511l2 -471l78 -24v-9z" />
    <glyph glyph-name="O.smcp" horiz-adv-x="685" 
d="M342 -12c-167 0 -288 133 -288 293s121 291 288 291c165 0 289 -131 289 -291s-124 -293 -289 -293zM342 13c119 0 216 102 216 268s-97 267 -216 267s-215 -101 -215 -267s96 -268 215 -268z" />
    <glyph glyph-name="P.smcp" horiz-adv-x="513" 
d="M51 551v9h237c113 0 191 -63 191 -156s-78 -156 -191 -156h-103v-214l87 -25v-9h-221v9l70 24v494zM281 538h-96v-268h96c84 0 131 54 131 134s-47 134 -131 134z" />
    <glyph glyph-name="Q.smcp" horiz-adv-x="683" 
d="M832 -137c-38 -25 -87 -30 -124 -30c-66 0 -140 34 -166 49l-189 106h-12c-161 0 -288 133 -288 293s127 291 288 291c159 0 289 -131 289 -291c0 -127 -82 -237 -195 -277l202 -104c57 -29 100 -42 127 -42s40 11 52 25c16 19 21 43 37 43c7 0 17 -5 17 -16
c0 -14 -19 -35 -38 -47zM341 13c119 0 216 102 216 268s-97 267 -216 267s-215 -101 -215 -267s96 -268 215 -268z" />
    <glyph glyph-name="R.smcp" horiz-adv-x="593" 
d="M51 551v9h264c109 0 186 -59 186 -140c0 -97 -93 -149 -185 -152c28 -5 61 -28 94 -73l83 -112c15 -22 29 -37 45 -49s35 -20 63 -25v-9h-107c-13 -1 -23 8 -36 27l-126 172c-38 52 -62 61 -103 61h-44v-225l94 -26v-9h-228v9l70 24v494zM294 538h-109v-256h88
c102 0 161 43 161 133c0 73 -45 123 -140 123z" />
    <glyph glyph-name="S.smcp" horiz-adv-x="516" 
d="M267 -12c-77 0 -140 31 -164 54l-24 -42h-14v176h19c24 -100 86 -167 183 -167c79 0 134 50 134 123c0 59 -39 92 -88 108l-116 37c-71 23 -123 66 -123 141c0 82 68 154 184 154c57 0 107 -22 137 -44l22 37h14v-151h-19c-21 84 -70 137 -153 137
c-82 0 -125 -53 -125 -109c0 -53 30 -87 88 -106l118 -38c62 -21 122 -61 122 -143c0 -89 -71 -167 -195 -167z" />
    <glyph glyph-name="T.smcp" horiz-adv-x="586" 
d="M418 9v-9h-243v9l86 25v504h-143l-78 -126l-11 3l11 145h505l11 -145l-11 -3l-77 126h-143v-504z" />
    <glyph glyph-name="U.smcp" horiz-adv-x="657" 
d="M549 184c0 -132 -102 -196 -220 -196c-128 0 -223 64 -223 187v352l-69 24v9h203v-9l-70 -24v-352c0 -102 77 -155 178 -155c93 0 173 52 173 170v333l-73 28v9h173v-9l-72 -28v-339z" />
    <glyph glyph-name="V.smcp" horiz-adv-x="607" 
d="M313 -8h-17l-231 534l-57 25v9h220v-9l-94 -22l193 -453l180 450l-94 25v9h189v-9l-58 -24z" />
    <glyph glyph-name="W.smcp" horiz-adv-x="874" 
d="M595 -8l-157 418l-156 -418h-18l-200 534l-57 25v9h219v-9l-93 -22l162 -453l133 361l-33 89l-57 25v9h219v-9l-94 -22l162 -453l150 450l-94 25v9h188v-9l-57 -24l-200 -535h-17z" />
    <glyph glyph-name="X.smcp" horiz-adv-x="624" 
d="M221 9v-9h-210v9l87 26l187 254l-178 238l-79 24v9h242v-9l-86 -26l144 -193l129 193l-74 26v9h192v-9l-84 -26l-152 -207l212 -285l72 -24v-9h-228v9l79 26l-178 238l-162 -238z" />
    <glyph glyph-name="Y.smcp" horiz-adv-x="607" 
d="M429 9v-9h-243v9l86 25v228l-193 265l-57 24v9h212v-9l-79 -22l172 -236l163 234l-86 24v9h181v-9l-58 -23l-191 -260v-234z" />
    <glyph glyph-name="Z.smcp" horiz-adv-x="577" 
d="M512 560v-5l-386 -533h307l102 134l9 -10l-35 -146h-473v5l389 533h-274l-81 -119l-10 2l12 139h440z" />
    <glyph glyph-name="AE.smcp" horiz-adv-x="842" 
d="M808 118l-32 -118h-454v9l71 24v236h-162l-142 -236l92 -24v-9h-183v9l59 24l312 502l-48 16v9h428l16 -106l-11 -5l-70 89h-227v-245h166l33 73h10v-174h-10l-32 80h-167v-250h250l91 101zM244 290h149v237l-6 2z" />
    <glyph glyph-name="OE.smcp" horiz-adv-x="943" 
d="M379 0c-219 0 -324 127 -324 280s105 280 324 280h471l16 -106l-11 -5l-70 89h-227v-245h166l33 73h10v-174h-10l-33 80h-166v-250h250l91 101l10 -5l-32 -118h-498zM394 22h100v516h-100c-152 0 -272 -77 -272 -258s120 -258 272 -258z" />
    <glyph glyph-name="Lslash.smcp" horiz-adv-x="544" 
d="M53 551v9h211v-9l-78 -25v-263l149 70v-21l-149 -70v-220h233l97 108l10 -5l-31 -125h-442v9l69 24v179l-59 -28v21l59 28v294z" />
    <glyph glyph-name="Oslash.smcp" horiz-adv-x="694" 
d="M346 -12c-70 0 -134 26 -184 68l-61 -68h-35l77 85c-53 54 -85 127 -85 208c0 160 128 291 288 291c71 0 136 -26 186 -68l62 68h35l-78 -86c53 -53 85 -125 85 -205c0 -160 -130 -293 -290 -293zM132 281c0 -69 17 -127 44 -171l327 361c-39 50 -95 77 -157 77
c-118 0 -214 -101 -214 -267zM562 281c0 68 -16 125 -44 169l-326 -362c39 -48 93 -75 154 -75c119 0 216 102 216 268z" />
    <glyph glyph-name="Eth.smcp" horiz-adv-x="680" 
d="M52 551v9h250c219 0 323 -127 323 -280s-104 -280 -323 -280h-250v9l70 24v236h-70v21h70v237zM367 269h-181v-247h100c153 0 272 77 272 258s-119 258 -272 258h-100v-248h181v-21z" />
    <glyph glyph-name="Thorn.smcp" horiz-adv-x="525" 
d="M272 9v-9h-221v9l70 24v494l-70 24v9h220v-9l-86 -25v-78h103c113 0 190 -63 190 -156s-77 -156 -190 -156h-103v-102zM281 426h-96v-268h96c84 0 131 54 131 134s-47 134 -131 134z" />
    <glyph glyph-name="Aacute.smcp" horiz-adv-x="594" 
d="M292 633l64 129h88l-138 -129h-14zM181 9v-9h-174v9l57 24l199 519v8c4 0 49 21 51 23l215 -549l57 -25v-9h-203v9l79 24l-82 211h-207l-77 -211zM180 266h191l-99 254z" />
    <glyph glyph-name="Acircumflex.smcp" horiz-adv-x="594" 
d="M311 762l84 -129h-15l-87 74l-86 -74h-14l83 129h35zM181 9v-9h-174v9l57 24l199 519v8c4 0 49 21 51 23l215 -549l57 -25v-9h-203v9l79 24l-82 211h-207l-77 -211zM180 266h191l-99 254z" />
    <glyph glyph-name="Adieresis.smcp" horiz-adv-x="594" 
d="M173 699c0 26 20 47 47 47s47 -21 47 -47c0 -27 -20 -48 -47 -48s-47 21 -47 48zM321 699c0 26 21 47 47 47c27 0 48 -21 48 -47c0 -27 -21 -48 -48 -48c-26 0 -47 21 -47 48zM181 9v-9h-174v9l57 24l199 519v8c4 0 49 21 51 23l215 -549l57 -25v-9h-203v9l79 24l-82 211
h-207l-77 -211zM180 266h191l-99 254z" />
    <glyph glyph-name="Agrave.smcp" horiz-adv-x="594" 
d="M233 762l64 -129h-15l-137 129h88zM181 9v-9h-174v9l57 24l199 519v8c4 0 49 21 51 23l215 -549l57 -25v-9h-203v9l79 24l-82 211h-207l-77 -211zM180 266h191l-99 254z" />
    <glyph glyph-name="Aring.smcp" horiz-adv-x="594" 
d="M212 712c0 46 36 82 82 82s83 -36 83 -82s-37 -82 -83 -82s-82 36 -82 82zM234 712c0 -36 26 -63 60 -63c33 0 60 27 60 63c0 35 -27 63 -60 63c-34 0 -60 -28 -60 -63zM181 9v-9h-174v9l57 24l199 519v8c4 0 49 21 51 23l215 -549l57 -25v-9h-203v9l79 24l-82 211h-207
l-77 -211zM180 266h191l-99 254z" />
    <glyph glyph-name="Atilde.smcp" horiz-adv-x="594" 
d="M365 701c18 0 32 15 32 40h16c-1 -58 -31 -83 -67 -83s-95 38 -121 38c-17 0 -31 -15 -32 -40h-15c0 58 30 84 67 84c32 0 84 -39 120 -39zM181 9v-9h-174v9l57 24l199 519v8c4 0 49 21 51 23l215 -549l57 -25v-9h-203v9l79 24l-82 211h-207l-77 -211zM180 266h191
l-99 254z" />
    <glyph glyph-name="Abreve.smcp" horiz-adv-x="594" 
d="M294 633c-83 0 -109 55 -100 115h14c0 -36 23 -60 86 -60s86 24 86 60h15c8 -60 -18 -115 -101 -115zM181 9v-9h-174v9l57 24l199 519v8c4 0 49 21 51 23l215 -549l57 -25v-9h-203v9l79 24l-82 211h-207l-77 -211zM180 266h191l-99 254z" />
    <glyph glyph-name="Amacron.smcp" horiz-adv-x="594" 
d="M184 673v37h221v-37h-221zM181 9v-9h-174v9l57 24l199 519v8c4 0 49 21 51 23l215 -549l57 -25v-9h-203v9l79 24l-82 211h-207l-77 -211zM180 266h191l-99 254z" />
    <glyph glyph-name="Aogonek.smcp" horiz-adv-x="594" 
d="M527 -161c-26 -11 -49 -16 -67 -16c-39 0 -59 22 -59 49c0 41 54 91 98 128h-116v9l79 24l-82 211h-207l-77 -211l85 -24v-9h-174v9l57 24l199 519v8c4 0 49 21 51 23l215 -549l57 -25v-9h-73c-14 -16 -61 -68 -61 -115c0 -26 19 -39 45 -39c13 0 27 2 43 6zM180 266h191
l-99 254z" />
    <glyph glyph-name="Ccedilla.smcp" horiz-adv-x="659" 
d="M400 -114c0 -44 -39 -72 -85 -72c-48 0 -76 20 -76 42c0 12 11 24 24 24c17 0 20 -9 27 -27c6 -15 16 -25 31 -25c18 0 34 14 34 35c0 48 -75 60 -91 61l56 66c-157 15 -266 135 -266 290c0 166 126 292 294 292c86 0 156 -31 200 -57l29 37h14v-163h-13
c-58 106 -123 158 -227 158c-108 0 -225 -90 -225 -267s117 -267 232 -267c100 0 161 52 221 168h13v-173h-14l-29 38c-44 -26 -113 -58 -194 -58h-18l-20 -32c57 -9 83 -41 83 -70z" />
    <glyph glyph-name="Cacute.smcp" horiz-adv-x="658" 
d="M331 633l64 129h88l-137 -129h-15zM577 8l-29 38c-44 -26 -113 -58 -194 -58c-176 0 -301 126 -301 292s126 292 294 292c86 0 156 -31 200 -57l29 37h14v-163h-13c-58 106 -123 158 -227 158c-108 0 -225 -90 -225 -267s117 -267 232 -267c100 0 161 52 221 168h13v-173
h-14z" />
    <glyph glyph-name="Ccaron.smcp" horiz-adv-x="658" 
d="M351 633h-35l-84 129h15l86 -75l87 75h14zM577 8l-29 38c-44 -26 -113 -58 -194 -58c-176 0 -301 126 -301 292s126 292 294 292c86 0 156 -31 200 -57l29 37h14v-163h-13c-58 106 -123 158 -227 158c-108 0 -225 -90 -225 -267s117 -267 232 -267c100 0 161 52 221 168
h13v-173h-14z" />
    <glyph glyph-name="Ccircumflex.smcp" horiz-adv-x="658" 
d="M351 762l83 -129h-14l-87 74l-86 -74h-15l84 129h35zM577 8l-29 38c-44 -26 -113 -58 -194 -58c-176 0 -301 126 -301 292s126 292 294 292c86 0 156 -31 200 -57l29 37h14v-163h-13c-58 106 -123 158 -227 158c-108 0 -225 -90 -225 -267s117 -267 232 -267
c100 0 161 52 221 168h13v-173h-14z" />
    <glyph glyph-name="Cdotaccent.smcp" horiz-adv-x="658" 
d="M277 708c0 31 24 56 56 56c31 0 56 -25 56 -56c0 -32 -25 -56 -56 -56c-32 0 -56 24 -56 56zM577 8l-29 38c-44 -26 -113 -58 -194 -58c-176 0 -301 126 -301 292s126 292 294 292c86 0 156 -31 200 -57l29 37h14v-163h-13c-58 106 -123 158 -227 158
c-108 0 -225 -90 -225 -267s117 -267 232 -267c100 0 161 52 221 168h13v-173h-14z" />
    <glyph glyph-name="Dcaron.smcp" horiz-adv-x="679" 
d="M362 633h-35l-83 129h14l86 -75l87 75h15zM51 551v9h250c219 0 323 -127 323 -280s-104 -280 -323 -280h-250v9l70 24v494zM285 538h-100v-516h100c153 0 272 77 272 258s-119 258 -272 258z" />
    <glyph glyph-name="Dcroat.smcp" horiz-adv-x="680" 
d="M52 551v9h250c219 0 323 -127 323 -280s-104 -280 -323 -280h-250v9l70 24v236h-70v21h70v237zM367 269h-181v-247h100c153 0 272 77 272 258s-119 258 -272 258h-100v-248h181v-21z" />
    <glyph glyph-name="Eacute.smcp" horiz-adv-x="570" 
d="M288 633l64 129h88l-137 -129h-15zM51 551v9h426l16 -106l-10 -5l-71 89h-227v-245h166l33 73h10v-174h-10l-32 80h-167v-250h250l91 101l10 -5l-31 -118h-454v9l70 24v494z" />
    <glyph glyph-name="Ecircumflex.smcp" horiz-adv-x="570" 
d="M309 762l83 -129h-15l-86 74l-86 -74h-15l83 129h36zM51 551v9h426l16 -106l-10 -5l-71 89h-227v-245h166l33 73h10v-174h-10l-32 80h-167v-250h250l91 101l10 -5l-31 -118h-454v9l70 24v494z" />
    <glyph glyph-name="Edieresis.smcp" horiz-adv-x="570" 
d="M169 699c0 26 21 47 48 47c26 0 47 -21 47 -47c0 -27 -21 -48 -47 -48c-27 0 -48 21 -48 48zM317 699c0 26 21 47 48 47c26 0 47 -21 47 -47c0 -27 -21 -48 -47 -48c-27 0 -48 21 -48 48zM51 551v9h426l16 -106l-10 -5l-71 89h-227v-245h166l33 73h10v-174h-10l-32 80
h-167v-250h250l91 101l10 -5l-31 -118h-454v9l70 24v494z" />
    <glyph glyph-name="Egrave.smcp" horiz-adv-x="570" 
d="M229 762l64 -129h-14l-138 129h88zM51 551v9h426l16 -106l-10 -5l-71 89h-227v-245h166l33 73h10v-174h-10l-32 80h-167v-250h250l91 101l10 -5l-31 -118h-454v9l70 24v494z" />
    <glyph glyph-name="Ebreve.smcp" horiz-adv-x="570" 
d="M291 633c-84 0 -109 55 -101 115h15c0 -36 23 -60 86 -60s86 24 86 60h14c8 -60 -17 -115 -100 -115zM51 551v9h426l16 -106l-10 -5l-71 89h-227v-245h166l33 73h10v-174h-10l-32 80h-167v-250h250l91 101l10 -5l-31 -118h-454v9l70 24v494z" />
    <glyph glyph-name="Ecaron.smcp" horiz-adv-x="570" 
d="M309 633h-36l-83 129h15l86 -75l86 75h15zM51 551v9h426l16 -106l-10 -5l-71 89h-227v-245h166l33 73h10v-174h-10l-32 80h-167v-250h250l91 101l10 -5l-31 -118h-454v9l70 24v494z" />
    <glyph glyph-name="Edotaccent.smcp" horiz-adv-x="570" 
d="M235 708c0 31 24 56 56 56c31 0 56 -25 56 -56c0 -32 -25 -56 -56 -56c-32 0 -56 24 -56 56zM51 551v9h426l16 -106l-10 -5l-71 89h-227v-245h166l33 73h10v-174h-10l-32 80h-167v-250h250l91 101l10 -5l-31 -118h-454v9l70 24v494z" />
    <glyph glyph-name="Emacron.smcp" horiz-adv-x="570" 
d="M180 673v37h221v-37h-221zM51 551v9h426l16 -106l-10 -5l-71 89h-227v-245h166l33 73h10v-174h-10l-32 80h-167v-250h250l91 101l10 -5l-31 -118h-454v9l70 24v494z" />
    <glyph glyph-name="Eogonek.smcp" horiz-adv-x="570" 
d="M536 118l-31 -118h-76c-15 -16 -61 -68 -61 -115c0 -26 18 -39 44 -39c13 0 27 2 44 6l-13 -13c-27 -11 -49 -16 -68 -16c-39 0 -59 22 -59 49c0 41 54 91 98 128h-363v9l70 24v494l-70 24v9h426l16 -106l-10 -5l-71 89h-227v-245h166l33 73h10v-174h-10l-32 80h-167
v-250h250l91 101z" />
    <glyph glyph-name="Gbreve.smcp" horiz-adv-x="703" 
d="M354 633c-83 0 -108 55 -100 115h14c0 -36 23 -60 86 -60s86 24 86 60h15c8 -60 -17 -115 -101 -115zM639 63c-4 -3 -120 -77 -267 -77c-197 0 -318 132 -318 292c0 166 127 294 308 294c91 0 156 -31 197 -56l29 36h14v-163h-14c-60 107 -125 159 -225 159
c-107 0 -237 -74 -237 -267c0 -161 115 -266 268 -266c44 0 91 10 134 22v177l-102 25v9h232v-9l-68 -31v-150c19 7 36 14 49 19v-14z" />
    <glyph glyph-name="Gcircumflex.smcp" horiz-adv-x="703" 
d="M372 762l84 -129h-15l-87 74l-86 -74h-14l83 129h35zM639 63c-4 -3 -120 -77 -267 -77c-197 0 -318 132 -318 292c0 166 127 294 308 294c91 0 156 -31 197 -56l29 36h14v-163h-14c-60 107 -125 159 -225 159c-107 0 -237 -74 -237 -267c0 -161 115 -266 268 -266
c44 0 91 10 134 22v177l-102 25v9h232v-9l-68 -31v-150c19 7 36 14 49 19v-14z" />
    <glyph glyph-name="Gcommaaccent.smcp" horiz-adv-x="703" 
d="M639 63c-4 -3 -120 -77 -267 -77c-197 0 -318 132 -318 292c0 166 127 294 308 294c91 0 156 -31 197 -56l29 36h14v-163h-14c-60 107 -125 159 -225 159c-107 0 -237 -74 -237 -267c0 -161 115 -266 268 -266c44 0 91 10 134 22v177l-102 25v9h232v-9l-68 -31v-150
c19 7 36 14 49 19v-14zM428 -139c0 -57 -47 -113 -115 -113c-10 0 -21 1 -32 4l3 13c9 -3 19 -3 28 -3c59 0 99 50 99 98c0 51 -34 74 -58 79c10 -11 15 -23 15 -35c0 -22 -16 -41 -41 -41c-24 0 -42 18 -42 42c0 29 27 49 58 49c37 0 85 -28 85 -93z" />
    <glyph glyph-name="Gdotaccent.smcp" horiz-adv-x="703" 
d="M299 708c0 31 24 56 55 56c32 0 57 -25 57 -56c0 -32 -25 -56 -57 -56c-31 0 -55 24 -55 56zM639 63c-4 -3 -120 -77 -267 -77c-197 0 -318 132 -318 292c0 166 127 294 308 294c91 0 156 -31 197 -56l29 36h14v-163h-14c-60 107 -125 159 -225 159
c-107 0 -237 -74 -237 -267c0 -161 115 -266 268 -266c44 0 91 10 134 22v177l-102 25v9h232v-9l-68 -31v-150c19 7 36 14 49 19v-14z" />
    <glyph glyph-name="Hbar.smcp" 
d="M256 9v-9h-205v9l70 24v382h-52v23h52v89l-70 24v9h205v-9l-71 -24v-89h334v89l-71 24v9h206v-9l-71 -24v-89h52v-23h-52v-382l71 -24v-9h-206v9l71 24v245h-334v-245zM185 301h334v114h-334v-114z" />
    <glyph glyph-name="Hcircumflex.smcp" 
d="M370 762l83 -129h-15l-86 74l-86 -74h-15l83 129h36zM264 9v-9h-213v9l70 24v494l-70 24v9h213v-9l-79 -25v-225h334v225l-78 25v9h213v-9l-71 -24v-494l71 -24v-9h-213v9l78 25v244h-334v-244z" />
    <glyph glyph-name="Iacute.smcp" horiz-adv-x="307" 
d="M151 633l64 129h88l-137 -129h-15zM256 9v-9h-205v9l70 24v494l-70 24v9h205v-9l-71 -24v-494z" />
    <glyph glyph-name="Icircumflex.smcp" horiz-adv-x="307" 
d="M172 762l83 -129h-15l-86 74l-86 -74h-15l83 129h36zM256 9v-9h-205v9l70 24v494l-70 24v9h205v-9l-71 -24v-494z" />
    <glyph glyph-name="Idieresis.smcp" horiz-adv-x="307" 
d="M32 699c0 26 21 47 48 47c26 0 47 -21 47 -47c0 -27 -21 -48 -47 -48c-27 0 -48 21 -48 48zM180 699c0 26 21 47 48 47c26 0 47 -21 47 -47c0 -27 -21 -48 -47 -48c-27 0 -48 21 -48 48zM256 9v-9h-205v9l70 24v494l-70 24v9h205v-9l-71 -24v-494z" />
    <glyph glyph-name="Igrave.smcp" horiz-adv-x="307" 
d="M92 762l64 -129h-14l-138 129h88zM256 9v-9h-205v9l70 24v494l-70 24v9h205v-9l-71 -24v-494z" />
    <glyph glyph-name="Ibreve.smcp" horiz-adv-x="307" 
d="M154 633c-84 0 -109 55 -101 115h15c0 -36 23 -60 86 -60s86 24 86 60h14c8 -60 -17 -115 -100 -115zM256 9v-9h-205v9l70 24v494l-70 24v9h205v-9l-71 -24v-494z" />
    <glyph glyph-name="Idotaccent.smcp" horiz-adv-x="307" 
d="M98 708c0 31 24 56 56 56c31 0 56 -25 56 -56c0 -32 -25 -56 -56 -56c-32 0 -56 24 -56 56zM256 9v-9h-205v9l70 24v494l-70 24v9h205v-9l-71 -24v-494z" />
    <glyph glyph-name="Imacron.smcp" horiz-adv-x="307" 
d="M43 673v37h221v-37h-221zM256 9v-9h-205v9l70 24v494l-70 24v9h205v-9l-71 -24v-494z" />
    <glyph glyph-name="Iogonek.smcp" horiz-adv-x="307" 
d="M216 -161c-26 -11 -48 -16 -67 -16c-39 0 -59 22 -59 49c0 41 54 91 98 128h-137v9l70 24v494l-70 24v9h205v-9l-71 -24v-494l71 -24v-9h-54c-14 -16 -61 -68 -61 -115c0 -26 19 -39 45 -39c13 0 27 2 44 6z" />
    <glyph glyph-name="Itilde.smcp" horiz-adv-x="307" 
d="M225 701c18 0 32 15 33 40h15c-1 -58 -30 -83 -67 -83c-36 0 -95 38 -120 38c-18 0 -32 -15 -32 -40h-16c1 58 30 84 67 84c33 0 84 -39 120 -39zM256 9v-9h-205v9l70 24v494l-70 24v9h205v-9l-71 -24v-494z" />
    <glyph glyph-name="Jcircumflex.smcp" horiz-adv-x="396" 
d="M275 762l84 -129h-15l-87 74l-86 -74h-14l83 129h35zM290 52c0 -95 -68 -142 -146 -142c-89 0 -126 58 -126 99c0 35 24 55 47 55c20 0 38 -16 38 -39c0 -22 -16 -33 -36 -37c-8 -2 -10 -12 -4 -23c13 -20 39 -31 68 -31c51 0 95 32 95 110v483l-72 24v9h183v-9l-47 -21
v-478z" />
    <glyph glyph-name="IJ.smcp" horiz-adv-x="703" 
d="M597 52c0 -95 -68 -142 -146 -142c-89 0 -126 58 -126 99c0 35 24 55 47 55c20 0 38 -16 38 -39c0 -22 -16 -33 -36 -37c-8 -2 -10 -12 -4 -23c13 -20 39 -31 68 -31c51 0 95 32 95 110v483l-71 24v9h182v-9l-47 -21v-478zM256 9v-9h-205v9l70 24v494l-70 24v9h205v-9
l-71 -24v-494z" />
    <glyph glyph-name="Kcommaaccent.smcp" horiz-adv-x="619" 
d="M264 9v-9h-213v9l70 24v494l-70 24v9h212v-9l-78 -25v-219h18l253 218l-78 26v9h202v-9l-83 -31l-250 -198l300 -289l72 -24v-9h-227v9l72 21l-263 255h-16v-251zM391 -139c0 -57 -47 -113 -115 -113c-10 0 -21 1 -32 4l3 13c9 -3 19 -3 28 -3c59 0 99 50 99 98
c0 51 -34 74 -58 79c10 -11 15 -23 15 -35c0 -22 -16 -41 -41 -41c-24 0 -42 18 -42 42c0 29 27 49 58 49c37 0 85 -28 85 -93z" />
    <glyph glyph-name="Lacute.smcp" horiz-adv-x="543" 
d="M150 633l64 129h88l-137 -129h-15zM51 551v9h213v-9l-79 -25v-504h233l97 108l10 -5l-31 -125h-443v9l70 24v494z" />
    <glyph glyph-name="Lcaron.smcp" horiz-adv-x="551" 
d="M481 478c0 -57 -48 -114 -116 -114c-11 0 -21 1 -33 4l4 13c9 -2 19 -3 28 -3c59 0 99 50 99 99c0 51 -33 74 -57 79c9 -10 14 -22 14 -33c0 -23 -16 -42 -41 -42s-42 18 -42 41c0 29 27 50 58 50c37 0 86 -28 86 -94zM51 551v9h213v-9l-79 -25v-504h233l97 108l10 -5
l-31 -125h-443v9l70 24v494z" />
    <glyph glyph-name="Lcommaaccent.smcp" horiz-adv-x="543" 
d="M51 551v9h213v-9l-79 -25v-504h233l97 108l10 -5l-31 -125h-443v9l70 24v494zM357 -139c0 -57 -47 -113 -115 -113c-10 0 -21 1 -32 4l3 13c9 -3 20 -3 28 -3c59 0 99 50 99 98c0 51 -34 74 -57 79c9 -11 14 -23 14 -35c0 -22 -16 -41 -41 -41c-24 0 -42 18 -42 42
c0 29 28 49 58 49c37 0 85 -28 85 -93z" />
    <glyph glyph-name="Ldot.smcp" horiz-adv-x="544" 
d="M51 551v9h213v-9l-79 -25v-504h233l97 108l10 -5l-31 -125h-443v9l70 24v494zM395 245c-25 0 -44 19 -44 45c0 24 19 44 44 44s45 -20 45 -44c0 -26 -20 -45 -45 -45z" />
    <glyph glyph-name="Ntilde.smcp" horiz-adv-x="699" 
d="M420 701c18 0 32 15 32 40h16c-1 -58 -31 -83 -67 -83s-95 38 -121 38c-17 0 -31 -15 -32 -40h-15c1 58 30 84 67 84c32 0 84 -39 120 -39zM230 0h-180v9l70 23l4 486l-73 33v9h135l371 -464l-3 432l-79 23v9h172v-9l-63 -24l-3 -534h-23l-408 511l2 -471l78 -24v-9z" />
    <glyph glyph-name="Nacute.smcp" horiz-adv-x="699" 
d="M346 633l64 129h88l-138 -129h-14zM230 0h-180v9l70 23l4 486l-73 33v9h135l371 -464l-3 432l-79 23v9h172v-9l-63 -24l-3 -534h-23l-408 511l2 -471l78 -24v-9z" />
    <glyph glyph-name="Ncaron.smcp" horiz-adv-x="699" 
d="M366 633h-35l-83 129h14l86 -75l87 75h15zM230 0h-180v9l70 23l4 486l-73 33v9h135l371 -464l-3 432l-79 23v9h172v-9l-63 -24l-3 -534h-23l-408 511l2 -471l78 -24v-9z" />
    <glyph glyph-name="Ncommaaccent.smcp" horiz-adv-x="699" 
d="M230 0h-180v9l70 23l4 486l-73 33v9h135l371 -464l-3 432l-79 23v9h172v-9l-63 -24l-3 -534h-23l-408 511l2 -471l78 -24v-9zM422 -139c0 -57 -47 -113 -115 -113c-10 0 -21 1 -32 4l3 13c9 -3 20 -3 28 -3c59 0 99 50 99 98c0 51 -34 74 -57 79c9 -11 14 -23 14 -35
c0 -22 -16 -41 -41 -41c-24 0 -42 18 -42 42c0 29 27 49 58 49c37 0 85 -28 85 -93z" />
    <glyph glyph-name="Eng.smcp" horiz-adv-x="699" 
d="M581 -64c0 -78 -52 -118 -115 -118c-55 0 -101 36 -101 85c0 29 20 49 44 49c17 0 32 -12 32 -32c0 -19 -14 -29 -26 -32s-14 -6 -14 -10c0 -14 30 -36 65 -36c46 0 86 29 86 97v61h-1l-401 504l2 -471l78 -24v-9h-180v9l70 23l4 486l-73 33v9h135l371 -464l-3 432
l-79 23v9h172v-9l-63 -24l-3 -527v-64z" />
    <glyph glyph-name="Oacute.smcp" horiz-adv-x="685" 
d="M340 633l64 129h88l-138 -129h-14zM342 -12c-167 0 -288 133 -288 293s121 291 288 291c165 0 289 -131 289 -291s-124 -293 -289 -293zM342 13c119 0 216 102 216 268s-97 267 -216 267s-215 -101 -215 -267s96 -268 215 -268z" />
    <glyph glyph-name="Ocircumflex.smcp" horiz-adv-x="685" 
d="M360 762l83 -129h-15l-86 74l-86 -74h-15l83 129h36zM342 -12c-167 0 -288 133 -288 293s121 291 288 291c165 0 289 -131 289 -291s-124 -293 -289 -293zM342 13c119 0 216 102 216 268s-97 267 -216 267s-215 -101 -215 -267s96 -268 215 -268z" />
    <glyph glyph-name="Odieresis.smcp" horiz-adv-x="685" 
d="M221 699c0 26 21 47 47 47c27 0 48 -21 48 -47c0 -27 -21 -48 -48 -48c-26 0 -47 21 -47 48zM369 699c0 26 21 47 48 47c26 0 47 -21 47 -47c0 -27 -21 -48 -47 -48c-27 0 -48 21 -48 48zM342 -12c-167 0 -288 133 -288 293s121 291 288 291c165 0 289 -131 289 -291
s-124 -293 -289 -293zM342 13c119 0 216 102 216 268s-97 267 -216 267s-215 -101 -215 -267s96 -268 215 -268z" />
    <glyph glyph-name="Ograve.smcp" horiz-adv-x="685" 
d="M281 762l64 -129h-14l-138 129h88zM342 -12c-167 0 -288 133 -288 293s121 291 288 291c165 0 289 -131 289 -291s-124 -293 -289 -293zM342 13c119 0 216 102 216 268s-97 267 -216 267s-215 -101 -215 -267s96 -268 215 -268z" />
    <glyph glyph-name="Otilde.smcp" horiz-adv-x="685" 
d="M414 701c17 0 31 15 32 40h15c-1 -58 -30 -83 -67 -83c-36 0 -95 38 -120 38c-18 0 -32 -15 -32 -40h-16c1 58 30 84 67 84c33 0 84 -39 121 -39zM342 -12c-167 0 -288 133 -288 293s121 291 288 291c165 0 289 -131 289 -291s-124 -293 -289 -293zM342 13
c119 0 216 102 216 268s-97 267 -216 267s-215 -101 -215 -267s96 -268 215 -268z" />
    <glyph glyph-name="Obreve.smcp" horiz-adv-x="685" 
d="M342 633c-83 0 -108 55 -100 115h14c0 -36 24 -60 86 -60c63 0 86 24 86 60h15c8 -60 -17 -115 -101 -115zM342 -12c-167 0 -288 133 -288 293s121 291 288 291c165 0 289 -131 289 -291s-124 -293 -289 -293zM342 13c119 0 216 102 216 268s-97 267 -216 267
s-215 -101 -215 -267s96 -268 215 -268z" />
    <glyph glyph-name="Ohungarumlaut.smcp" horiz-adv-x="685" 
d="M268 633l64 129h88l-137 -129h-15zM413 633l64 129h88l-138 -129h-14zM342 -12c-167 0 -288 133 -288 293s121 291 288 291c165 0 289 -131 289 -291s-124 -293 -289 -293zM342 13c119 0 216 102 216 268s-97 267 -216 267s-215 -101 -215 -267s96 -268 215 -268z" />
    <glyph glyph-name="Omacron.smcp" horiz-adv-x="685" 
d="M232 673v37h221v-37h-221zM342 -12c-167 0 -288 133 -288 293s121 291 288 291c165 0 289 -131 289 -291s-124 -293 -289 -293zM342 13c119 0 216 102 216 268s-97 267 -216 267s-215 -101 -215 -267s96 -268 215 -268z" />
    <glyph glyph-name="Racute.smcp" horiz-adv-x="593" 
d="M314 633l64 129h88l-137 -129h-15zM51 551v9h264c109 0 186 -59 186 -140c0 -97 -93 -149 -185 -152c28 -5 61 -28 94 -73l83 -112c15 -22 29 -37 45 -49s35 -20 63 -25v-9h-107c-13 -1 -23 8 -36 27l-126 172c-38 52 -62 61 -103 61h-44v-225l94 -26v-9h-228v9l70 24
v494zM294 538h-109v-256h88c102 0 161 43 161 133c0 73 -45 123 -140 123z" />
    <glyph glyph-name="Rcaron.smcp" horiz-adv-x="593" 
d="M335 633h-36l-83 129h15l86 -75l86 75h15zM51 551v9h264c109 0 186 -59 186 -140c0 -97 -93 -149 -185 -152c28 -5 61 -28 94 -73l83 -112c15 -22 29 -37 45 -49s35 -20 63 -25v-9h-107c-13 -1 -23 8 -36 27l-126 172c-38 52 -62 61 -103 61h-44v-225l94 -26v-9h-228v9
l70 24v494zM294 538h-109v-256h88c102 0 161 43 161 133c0 73 -45 123 -140 123z" />
    <glyph glyph-name="Rcommaaccent.smcp" horiz-adv-x="593" 
d="M51 551v9h264c109 0 186 -59 186 -140c0 -97 -93 -149 -185 -152c28 -5 61 -28 94 -73l83 -112c15 -22 29 -37 45 -49s35 -20 63 -25v-9h-107c-13 -1 -23 8 -36 27l-126 172c-38 52 -62 61 -103 61h-44v-225l94 -26v-9h-228v9l70 24v494zM294 538h-109v-256h88
c102 0 161 43 161 133c0 73 -45 123 -140 123zM393 -139c0 -57 -47 -113 -116 -113c-10 0 -20 1 -32 4l4 13c8 -3 19 -3 28 -3c58 0 99 50 99 98c0 51 -35 74 -58 79c9 -11 14 -23 14 -35c0 -22 -16 -41 -41 -41c-24 0 -42 18 -42 42c0 29 28 49 58 49c37 0 86 -28 86 -93z
" />
    <glyph glyph-name="Scaron.smcp" horiz-adv-x="516" 
d="M276 633h-35l-84 129h15l86 -75l87 75h14zM267 -12c-77 0 -140 31 -164 54l-24 -42h-14v176h19c24 -100 86 -167 183 -167c79 0 134 50 134 123c0 59 -39 92 -88 108l-116 37c-71 23 -123 66 -123 141c0 82 68 154 184 154c57 0 107 -22 137 -44l22 37h14v-151h-19
c-21 84 -70 137 -153 137c-82 0 -125 -53 -125 -109c0 -53 30 -87 88 -106l118 -38c62 -21 122 -61 122 -143c0 -89 -71 -167 -195 -167z" />
    <glyph glyph-name="Sacute.smcp" horiz-adv-x="516" 
d="M255 633l64 129h88l-137 -129h-15zM267 -12c-77 0 -140 31 -164 54l-24 -42h-14v176h19c24 -100 86 -167 183 -167c79 0 134 50 134 123c0 59 -39 92 -88 108l-116 37c-71 23 -123 66 -123 141c0 82 68 154 184 154c57 0 107 -22 137 -44l22 37h14v-151h-19
c-21 84 -70 137 -153 137c-82 0 -125 -53 -125 -109c0 -53 30 -87 88 -106l118 -38c62 -21 122 -61 122 -143c0 -89 -71 -167 -195 -167z" />
    <glyph glyph-name="Scedilla.smcp" horiz-adv-x="516" 
d="M323 -114c0 -44 -39 -72 -85 -72c-47 0 -76 20 -76 42c0 12 12 24 24 24c17 0 20 -9 27 -27c6 -15 16 -25 31 -25c18 0 35 14 35 35c0 48 -75 60 -92 61l55 65c-65 6 -118 33 -139 53l-24 -42h-14v176h19c24 -100 86 -167 183 -167c79 0 134 50 134 123
c0 59 -39 92 -88 108l-116 37c-71 23 -123 66 -123 141c0 82 68 154 184 154c57 0 107 -22 137 -44l22 37h14v-151h-19c-21 84 -70 137 -153 137c-82 0 -125 -53 -125 -109c0 -53 30 -87 88 -106l118 -38c62 -21 122 -61 122 -143c0 -89 -71 -167 -195 -167h-7l-20 -32
c57 -9 83 -41 83 -70z" />
    <glyph glyph-name="Scircumflex.smcp" horiz-adv-x="516" 
d="M276 762l83 -129h-14l-87 74l-86 -74h-15l84 129h35zM267 -12c-77 0 -140 31 -164 54l-24 -42h-14v176h19c24 -100 86 -167 183 -167c79 0 134 50 134 123c0 59 -39 92 -88 108l-116 37c-71 23 -123 66 -123 141c0 82 68 154 184 154c57 0 107 -22 137 -44l22 37h14v-151
h-19c-21 84 -70 137 -153 137c-82 0 -125 -53 -125 -109c0 -53 30 -87 88 -106l118 -38c62 -21 122 -61 122 -143c0 -89 -71 -167 -195 -167z" />
    <glyph glyph-name="Scommaaccent.smcp" horiz-adv-x="516" 
d="M267 -12c-77 0 -140 31 -164 54l-24 -42h-14v176h19c24 -100 86 -167 183 -167c79 0 134 50 134 123c0 59 -39 92 -88 108l-116 37c-71 23 -123 66 -123 141c0 82 68 154 184 154c57 0 107 -22 137 -44l22 37h14v-151h-19c-21 84 -70 137 -153 137
c-82 0 -125 -53 -125 -109c0 -53 30 -87 88 -106l118 -38c62 -21 122 -61 122 -143c0 -89 -71 -167 -195 -167zM332 -139c0 -57 -47 -113 -115 -113c-11 0 -21 1 -33 4l4 13c9 -3 19 -3 28 -3c59 0 99 50 99 98c0 51 -34 74 -58 79c9 -11 15 -23 15 -35
c0 -22 -17 -41 -42 -41c-24 0 -42 18 -42 42c0 29 28 49 58 49c37 0 86 -28 86 -93z" />
    <glyph glyph-name="Tbar.smcp" horiz-adv-x="586" 
d="M418 9v-9h-243v9l86 25v242h-80v20h80v242h-143l-78 -126l-11 3l11 145h505l11 -145l-11 -3l-77 126h-143v-242h80v-20h-80v-242z" />
    <glyph glyph-name="Tcaron.smcp" horiz-adv-x="586" 
d="M310 633h-35l-83 129h14l86 -75l87 75h15zM418 9v-9h-243v9l86 25v504h-143l-78 -126l-11 3l11 145h505l11 -145l-11 -3l-77 126h-143v-504z" />
    <glyph glyph-name="Tcommaaccent.smcp" horiz-adv-x="586" 
d="M418 9v-9h-243v9l86 25v504h-143l-78 -126l-11 3l11 145h505l11 -145l-11 -3l-77 126h-143v-504zM366 -139c0 -57 -47 -113 -115 -113c-10 0 -21 1 -32 4l3 13c9 -3 20 -3 28 -3c59 0 99 50 99 98c0 51 -34 74 -57 79c9 -11 14 -23 14 -35c0 -22 -16 -41 -41 -41
c-24 0 -42 18 -42 42c0 29 27 49 58 49c37 0 85 -28 85 -93z" />
    <glyph glyph-name="uni021A.smcp" horiz-adv-x="586" 
d="M418 9v-9h-243v9l86 25v504h-143l-78 -126l-11 3l11 145h505l11 -145l-11 -3l-77 126h-143v-504zM366 -139c0 -57 -47 -113 -115 -113c-10 0 -21 1 -32 4l3 13c9 -3 20 -3 28 -3c59 0 99 50 99 98c0 51 -34 74 -57 79c9 -11 14 -23 14 -35c0 -22 -16 -41 -41 -41
c-24 0 -42 18 -42 42c0 29 27 49 58 49c37 0 85 -28 85 -93z" />
    <glyph glyph-name="Uacute.smcp" horiz-adv-x="657" 
d="M326 633l64 129h88l-137 -129h-15zM549 184c0 -132 -102 -196 -220 -196c-128 0 -223 64 -223 187v352l-69 24v9h203v-9l-70 -24v-352c0 -102 77 -155 178 -155c93 0 173 52 173 170v333l-73 28v9h173v-9l-72 -28v-339z" />
    <glyph glyph-name="Ucircumflex.smcp" horiz-adv-x="657" 
d="M346 762l83 -129h-14l-87 74l-86 -74h-15l84 129h35zM549 184c0 -132 -102 -196 -220 -196c-128 0 -223 64 -223 187v352l-69 24v9h203v-9l-70 -24v-352c0 -102 77 -155 178 -155c93 0 173 52 173 170v333l-73 28v9h173v-9l-72 -28v-339z" />
    </font>
</defs>
</svg>
